<?xml version="1.0" standalone="no"?>
<!DOCTYPE svg PUBLIC "-//W3C//DTD SVG 1.1//EN" "http://www.w3.org/Graphics/SVG/1.1/DTD/svg11.dtd" >
<svg xmlns="http://www.w3.org/2000/svg">
<metadata>Generated by IcoMoon</metadata>
<defs>
<font id="icomoon" horiz-adv-x="1024">
<font-face units-per-em="1024" ascent="960" descent="-64" />
<missing-glyph horiz-adv-x="1024" />
<glyph unicode="&#x20;" horiz-adv-x="512" d="" />
<glyph unicode="&#xe900;" glyph-name="add" d="M929 479h-384v384h-64v-384h-384v-64h384v-384h64v384h384z" />
<glyph unicode="&#xe901;" glyph-name="app-advice" d="M461.5 811.8l40.1-435.4 225.1 383.4-72.9-113.4h-125.3l226.5 161.8 2.1 3.6h201.3l-430-727.7h-198.3l3.3 5.6-54.5 566.3-11.9-9.5h-201.5l199.7 152.8-1.2 12.5h197.5z" />
<glyph unicode="&#xe902;" glyph-name="app-proposal" d="M150.4 128l-1.3 587.1c0 30.1 16 54.5 46.1 54.5h543c26.9 0 49.3-8.6 53.7-34.4v32.8c0 30.1-24.4 54.5-54.5 54.5h-584.9c-30.1-0.1-54.5-24.4-54.5-54.5l1.3-640c0.1-30 24.5-54.4 54.5-54.4h42.7c-30 0-46.1 24.4-46.1 54.4zM765 395.6c-88.9 0-161-72.1-161-161s72.1-161 161-161 161 72.1 161 161-72.1 161-161 161zM792.7 233.3v-80.5h-53.9v80.5h-53.7l80.7 88.5 80.7-88.5h-53.8zM739.3 730.1h-494.6c-29.6 0-53.5-24.4-53.5-54.5l1.3-547.7c0.1-30 24.1-54.4 53.5-54.4h388.5c-47.5 38.1-77.7 96-77.7 160.9 0 114.5 94.3 207.4 210.5 207.4 8.6 0 17.1-0.5 25.5-1.5v235.4c-0.1 30.1-24 54.4-53.5 54.4zM479.6 146.1h-194.2c-14.6 0-26.4 12.1-26.4 26.9s11.8 26.9 26.4 26.9h194.2c14.5 0 26.4-12.1 26.4-26.9 0-14.9-11.8-26.9-26.4-26.9zM479.6 298.4h-194.2c-14.6 0-26.4 12.1-26.4 26.9s11.8 26.9 26.4 26.9h194.2c14.5 0 26.4-12.1 26.4-26.9s-11.8-26.9-26.4-26.9zM613.8 451.9h-328.5c-14.6 0-26.4 12.1-26.4 26.9s11.8 26.9 26.4 26.9h328.4c14.6 0 26.5-12.1 26.5-26.9s-11.8-26.9-26.4-26.9zM698.6 603.8h-413.3c-14.6 0-26.4 12.1-26.4 26.9s11.8 26.9 26.4 26.9h413.3c14.6 0 26.4-12.1 26.4-26.9s-11.8-26.9-26.4-26.9z" />
<glyph unicode="&#xe903;" glyph-name="app-social" d="M540.7 236c0 117.8 98.8 213.4 220.6 213.4 9.1 0 17.9-0.5 26.7-1.6v322.8c0 31-25.1 56.1-56.1 56.1h-578.6c-31 0-56.1-25.1-56.1-56.1l1.3-644.1c0.1-30.9 25.2-56 56.1-56h467.6c-49.7 39.1-81.5 98.7-81.5 165.5zM178.1 771.3h128.4v-144.9l-64.7 55.4-63.7-55.4v144.9zM434.8 179.3h-232.6c-13.1 0-23.8 12.4-23.8 27.7 0 15.2 10.7 27.7 23.8 27.7h232.6c13.1 0 23.8-12.5 23.8-27.7s-10.7-27.7-23.8-27.7zM458 332.4h-251.8c-15.2 0-27.7 12.4-27.7 27.7 0 15.2 12.4 27.7 27.7 27.7h251.8c15.2 0 27.7-12.5 27.7-27.7s-12.4-27.7-27.7-27.7zM206.2 485.4c-15.2 0-27.7 12.4-27.7 27.7 0 15.2 12.4 27.7 27.7 27.7h317.7c15.3 0 27.7-12.5 27.7-27.7s-12.4-27.7-27.7-27.7h-317.7zM761.1 400.6c-91.4 0-165.6-74.2-165.6-165.6s74.2-165.6 165.6-165.6 165.7 74.1 165.7 165.6-74.2 165.6-165.7 165.6zM832.3 223.5c-36.7-49.1-95.1-73.2-95.1-73.2-6.6 57.5-26.4 48-43.3 81.9s8.5 54.6 8.5 54.6c33.9 28.2 64-12.2 64-12.2 31.1 37.2 65.6 9.1 65.6 9.1 29.3-26.6 0.3-60.2 0.3-60.2z" />
<glyph unicode="&#xe904;" glyph-name="arrow-down" d="M510.1 704.4l-444.7-449.2 64.1-63.6 381.1 385 384.4-381.8 63.5 64.2-448.4 445.4z" />
<glyph unicode="&#xe905;" glyph-name="arrow-left" d="M255.6 446.1l449.1-444.7 63.6 64.1-385 381.1 381.9 384.4-64.2 63.6-445.4-448.5z" />
<glyph unicode="&#xe906;" glyph-name="arrow-right" d="M323 894.6l-64.2-63.6 381.8-384.4-385-381.1 63.6-64.1 449.1 444.7-445.3 448.5z" />
<glyph unicode="&#xe907;" glyph-name="arrow-up" d="M958.6 637l-63.6 64.2-384.4-381.8-381.1 385-64.1-63.6 444.7-449.1 448.5 445.3z" />
<glyph unicode="&#xe908;" glyph-name="calendar" d="M882.7 745.3h-43c-14.3 0-31.9-3.2-43 3.2-9.6 6.4-3.2 20.7-3.2 31.9-3.2 20.7-20.7 35.1-46.2 35.1s-44.6-12.8-47.8-35.1v-20.7c0-11.2-6.4-14.3-20.7-14.3h-312.7c-36.7 0-36.7 0-39.9 31.9v3.2c-3.2 22.3-20.7 36.7-43 36.7-28.7 0-44.6-12.8-51-35.1v-22.3c0-8-6.4-11.2-17.5-11.2h-74.9c-39.9-3.2-74.9-28.7-74.9-60.6v-543.6c0-11.2 3.2-23.9 11.2-31.9 19.1-20.7 44.6-28.7 76.5-28.7h357.1c119.6 0 242.3 0 360.3-4.8 52.6 3.2 89.3 28.7 89.3 65.4v538.7c-0.1 33.5-33.6 59-76.6 62.2zM889 163.4c0-20.7 0-20.7-25.5-20.7h-703c-17.5 0-25.5 3.2-25.5 20.7v395.4c0 11.2 6.4 14.3 20.7 14.3h357.1c0 0 357.1 0 355.5 0 17.5 0 20.7-3.2 20.7-17.5v-392.2zM337.4 322.9h-97.2c-17.5 0-28.7-8-28.7-22.3v-47.8c3.2-14.3 11.2-22.3 31.9-22.3h46.2v-1.6h47.8c20.7 0 28.7 8 28.7 22.3v46.2c0 17.5-7.9 25.5-28.7 25.5zM337.4 487.1h-47.8c-17.5 0-31.9 0-46.2 3.2-17.5 0-28.7-6.4-28.7-20.7v-54.2c0-14.3 8-20.7 25.5-20.7h100.4c17.5 0 25.5 6.4 25.5 20.7v51c0 12.7-11.1 20.7-28.7 20.7zM685 393h47.8c17.5 0 33.5 0 47.8 1.6 17.5 0 25.5 9.6 25.5 20.7v51c0 12.8-8 20.7-25.5 20.7h-98.8c-17.5 0-25.5-6.4-25.5-20.7v-51c0-14.3 11.1-22.3 28.7-22.3zM562.2 487.1h-100.4c-17.5 0-25.5-6.4-25.5-20.7v-51c0-15.9 8-22.3 28.7-22.3h47.8v1.6h49.4c20.7 0 28.7 8 28.7 22.3v47.8c-3.2 14.3-11.1 22.3-28.7 22.3zM783.8 324.4h-47.8c-17.5 0-35.1 3.2-52.6-3.2-17.5 0-28.7-8-28.7-22.3v-47.8c0-14.3 11.2-22.3 28.7-22.3h97.2c17.5 0 28.7 8 28.7 22.3v51c3.2 14.4-7.9 22.3-25.5 22.3zM557.4 324.4h-94.1c-20.7-3.2-28.7-8-28.7-25.5v-46.2c0-14.3 11.2-22.3 31.9-22.3h46.2c0 0 44.6 0 44.6 1.6 17.5 0 28.7 8 28.7 22.3v47.8c0.1 14.4-11 22.3-28.6 22.3z" />
<glyph unicode="&#xe909;" glyph-name="check" d="M854.6 805.855l-493.2-516.4-200.7 208.4-96-108.7 296.7-299 597.9 616.1z" />
<glyph unicode="&#xe90a;" glyph-name="close" d="M874.1 861.8c14.8 0 27.2-4.8 37-14.7s14.7-22.2 14.7-37c0-14.5-5-26.8-14.9-36.7l-325.8-325.4 325.8-325.3c9.9-9.9 14.9-22.2 14.9-36.8 0-14.7-5-27.1-14.7-36.9-9.8-9.9-22.2-14.8-37-14.8-14.6 0-26.8 5.1-36.8 15.1l-325.3 325.6-325.3-325.6c-9.9-10-22.2-15.1-36.8-15.1-14.8 0-27.1 4.9-37 14.8-9.8 9.8-14.7 22.2-14.7 36.9 0 14.6 5 26.9 14.9 36.8l325.8 325.3-325.8 325.4c-9.9 9.9-14.9 22.2-14.9 36.7 0 14.8 4.9 27.1 14.7 37 9.9 9.9 22.2 14.7 37 14.7 14.6 0 26.8-4.9 36.8-14.9l325.3-325.7 325.3 325.6c10 10.1 22.2 15 36.8 15z" />
<glyph unicode="&#xe90b;" glyph-name="close-circle-fill" d="M512 895.8c247.3 0 447.8-200.5 447.8-447.8s-200.5-447.8-447.8-447.8-447.8 200.5-447.8 447.8 200.5 447.8 447.8 447.8zM651.7 643.6l-139.7-139.7-139.7 139.7-55.9-55.9 139.7-139.7-139.7-139.7 55.9-55.9 139.7 139.8 139.7-139.7 55.9 55.9-139.8 139.6 139.7 139.7-55.8 55.9z" />
<glyph unicode="&#xe90c;" glyph-name="close-circle-line" d="M512 896.2c-247.6 0-448.2-200.6-448.2-448.2s200.6-448.2 448.2-448.2 448.2 200.6 448.2 448.2-200.6 448.2-448.2 448.2zM512 78.9c-203.9 0-369.1 165.3-369.1 369.1s165.2 369.1 369.1 369.1 369.1-165.2 369.1-369.1-165.2-369.1-369.1-369.1zM651.8 643.8l-139.8-139.9-139.8 139.9-56-56 139.9-139.8-139.9-139.8 56-56 139.8 139.9 139.8-139.9 56 56-139.9 139.8 139.9 139.8z" />
<glyph unicode="&#xe90d;" glyph-name="collecting" d="M310.5 33.3c-18.6 0-37.1 6-52.6 17.9-27.6 20.4-41 54.3-35.1 88.6l30.8 187.2-130.5 132.5c-24.1 24.2-32.6 59.6-22.4 92.6 10.3 33.2 37.9 57.2 71.9 62.5h0.1l179 27.3 80.6 170c15.1 31.7 45.8 51.4 80.1 51.4 24.6 0 47.8-10.6 65.5-29.7l0.6-0.7c5.8-6.6 10.7-14.1 14.1-21.6l78.8-166.5 118.7-20.4 61.2-9.3c33.7-5.2 61.2-29.1 71.8-62.2l0.1-0.2c10.2-32.9 2.1-68.2-21.2-92.3l-0.2-0.2-130.6-132.7 30.8-187.9c5.1-33.4-8.2-67-34.8-87.7l-0.3-0.2c-15.7-11.9-34-18.2-53.1-18.2-15.1 0-29.7 3.8-42.2 11l-159.3 87.4-159.6-87.6c-13.1-7.4-27.7-11-42.2-11zM183.9 541.5c-6.2-1-10.6-5-12.6-11.4-2.1-6.7-0.5-13.8 4.2-18.5l0.2-0.2 156.9-159.3-36.9-224.9c-1.2-6.7 1.3-13.1 6.3-16.8l0.9-0.7c4.1-3.2 9.3-3.6 13.9-1l0.4 0.2 195.3 107.2 196.2-107.7c1.2-0.7 3.2-1.1 5.3-1.1 2.7 0 5.5 1 8.2 3 5.4 4.3 7.9 10.9 6.9 17.9l-36.8 224.2 156.7 159.3c4.3 4.5 5.8 11.9 3.7 18.7-2 6.3-6.7 10.6-12.6 11.5l-62 9.4-127 21.8c-19.1 3.4-35.7 15.8-44.4 33.2l-3.9 7.8v2.9l-77.2 163.1c-0.4 0.8-1.2 2.1-2.3 3.5-2.5 2.6-6.3 5.5-10.7 5.5-5.7 0-10.6-3.3-13.3-9.2l-97.4-205.4-218-33z" />
<glyph unicode="&#xe90e;" glyph-name="collect-selected" d="M925.1 550.6c-6.8 21.4-24.3 37-46.2 40.4l-67.1 10.2-138.7 23.8c-8.3 1.5-15.6 6.8-19.5 14.6v0.5c-0.5 1.9-0.5 3.4-1.5 5.4l-86.6 182.9c-2.4 5.3-5.8 10.2-9.2 14.1-11.2 12.2-25.8 19.5-41.8 19.5-21.9 0-41.3-12.6-51.1-33.1l-97.3-205.3-216.9-33.1c-21.9-3.4-39.4-18.5-46.2-40.4s-1-45.2 14.6-60.8l157.1-159.5-37-225.2c-3.9-22.4 4.9-44.7 22.9-57.9 17.5-13.6 40.9-15.1 59.8-4.4l194.1 106.5 194.1-106.5c8.3-4.9 17.5-6.8 26.3-6.8 11.7 0 23.3 3.9 33.6 11.7 17.5 13.6 26.3 35.5 22.9 57.9l-37 225.2 157.1 159.5c15 15.6 20.4 38.9 13.6 60.8z" />
<glyph unicode="&#xe90f;" glyph-name="comment" d="M865.2 773.5c4.6 0 8.7-4.1 8.7-8.7v-471.5c0-4.6-4.1-8.7-8.7-8.7h-263c-3.1 0-6.1-1.5-7.7-4.6l-79.7-151.7c-1.5-3.1-4.6-4.6-7.7-4.6s-6.1 1.5-7.7 5.1l-71.4 151.3c-1.5 3.1-4.6 5.1-7.7 5.1h-263c-4.6 0-8.7 4.1-8.7 8.7v470.9c0 4.6 4.1 8.7 8.7 8.7h707.9zM865.2 858.3h-708c-51.6 0-93.5-41.9-93.5-93.5v-471.5c0-51.6 41.9-93.5 93.5-93.5h214.5l51.1-107.8c15.3-32.2 48.5-53.1 84.3-53.1 34.7 0 66.4 18.9 82.7 50.1l58.7 111.4h217.1c51.6 0 93.5 41.9 93.5 93.5v470.9c-0.4 51.6-42.3 93.5-93.9 93.5v0zM311.5 585.1c-34.7 0-62.3-28.1-62.3-62.3s27.6-62.8 62.3-62.8c34.7 0 62.3 28.1 62.3 62.3 0.1 34.1-27.5 62.8-62.3 62.8v0zM511.3 585.1c-34.7 0-62.3-28.1-62.3-62.3s27.6-62.8 62.3-62.8c34.7 0 62.3 28.1 62.3 62.3 0 34.1-27.6 62.8-62.3 62.8v0zM711 585.1c-34.7 0-62.3-28.1-62.3-62.3s28.1-62.3 62.3-62.3c34.7 0 62.3 28.1 62.3 62.3s-27.6 62.3-62.3 62.3v0z" />
<glyph unicode="&#xe910;" glyph-name="data-report" d="M927.3 763.6c-4.2 16.6-20.8 24.9-33.2 20.8l-149.5-37.4c-12.5 0-20.8-4.2-24.9-16.6s0-20.8 8.3-29.1l33.2-37.4-174.4-166.1-95.5 95.5c-12.5 12.5-29.1 12.5-41.5 0l-195.2-216c-24.9 4.2-49.8-4.2-62.3-29.1-12.5-20.8-12.5-49.8 4.2-70.6 16.6-20.8 41.5-29.1 62.3-20.8 29.1 12.5 45.7 33.2 45.7 58.1 0 8.3 0 12.5-4.2 16.6l174.4 191 91.4-87.2c12.5-12.5 29.1-12.5 37.4 0l195.2 182.7 37.4-41.5c8.3-8.3 16.6-12.5 29.1-8.3 8.3 4.2 16.6 12.5 20.8 20.8l41.3 158v16.6zM865 99.1h-726.8c-16.6 0-29.1-12.5-29.1-29.1s12.5-29.1 29.1-29.1h726.8c16.6 0 29.1 12.5 29.1 29.1s-12.5 29.1-29.1 29.1zM877.5 506.1c-16.6 0-29.1-12.5-29.1-29.1v-228.4c0-16.6-12.5-29.1-29.1-29.1h-635.4c-16.6 0-29.1 12.5-29.1 29.1v519.2c0 16.6 12.5 29.1 29.1 29.1h481.8c16.6 0 29.1 12.5 29.1 29.1s-12.5 29-29.1 29h-481.8c-49.8 0-87.2-37.4-87.2-87.2v-523.3c0-49.8 37.4-87.2 87.2-87.2h639.6c49.8 0 87.2 37.4 87.2 87.2v232.6c-4.2 12.4-16.6 29-33.2 29z" />
<glyph unicode="&#xe911;" glyph-name="default-avatar" d="M835.7 234.2l-180.9 65.8c0 0-32.9 10.9-44 27.4-5.4 5.4-5.4 27.4 0 49.3 5.4 22 87.8 120.7 87.8 208.3 5.4 137-82.2 246.9-186.7 246.9s-192-109.6-192-246.9c0-82.2 71.3-186.7 82.2-202.9 10.9-16.4 5.4-44 0-54.9-10.9-10.9-49.3-27.4-49.3-27.4l-164.5-65.6c-32.9-10.9-60.3-49.3-60.3-87.8v-16.4c0-38.4 32.9-65.8 71.3-65.8h625.2c38.4 0 71.3 27.4 71.3 65.8v16.4c0.2 38.4-27.2 76.9-60.1 87.8zM484.4 287.6h52.2c3.2 0 5.7-2.9 5.7-6.4l-11.6-22.5c0-3.4-2.7-6.4-5.7-6.4h-29.1c-3.2 0-5.7 2.9-5.7 6.4l-11.6 22.5c0.1 3.7 2.6 6.4 5.8 6.4zM510.5 146.4l-32 36.8 17.3 64h29.2l20.4-67-34.9-33.8z" />
<glyph unicode="&#xe912;" glyph-name="delete" d="M298.2 532.1v-308.5c0-18.4 14.9-33.2 33.2-33.2 18.4 0 33.2 14.9 33.2 33.2v308.5c0 18.4-14.9 33.2-33.2 33.2s-33.2-14.9-33.2-33.2zM917.4 732.5c-6.3 6.3-15.4 9.8-24.3 9.8h-170.5v53.1c0 35.9-29.2 65.1-65.1 65.1h-291c-35.9 0-65.1-29.2-65.1-65.1v-53.1h-171.4c-18.2 0-33.1-14.8-33.1-33.1s14.8-33.1 33.1-33.1h29.2v-575.5c0-35.9 29.2-65.1 65.1-65.1h584.6c35.9 0 65.1 29.2 65.1 65.1v575.5h19c18.2 0 34 14.8 34 33.1 0.1 8.8-3.3 17-9.6 23.3zM200.2 47.2c1.4-1.4 2.6-2.8 3.9-3.9-1.3 1-2.6 2.5-3.9 3.9zM366.4 795.2h290.8v-53.5h-290.8v53.5zM808.8 100.7h-584.5v575.4h584.5v-575.4zM511.5 190.3c18.4 0 33.2 14.9 33.2 33.2v308.6c0 18.4-14.9 33.2-33.2 33.2-18.4 0-33.2-14.9-33.2-33.2v-308.5c0-18.4 14.9-33.3 33.2-33.3zM689.8 190.3c18.4 0 33.2 14.9 33.2 33.2v308.6c0 18.4-14.9 33.2-33.2 33.2-18.4 0-33.2-14.9-33.2-33.2v-308.5c0-18.4 14.8-33.3 33.2-33.3z" />
<glyph unicode="&#xe913;" glyph-name="document" d="M290.4 494c0-12.5 9.9-22.6 22.1-22.6h391.5c12.3 0 22.2 10.1 22.2 22.6v22.6c0 12.5-9.9 22.6-22.2 22.6h-391.5c-12.2 0-22.1-10.1-22.1-22.6v-22.6zM312.5 637.3h391.5c12.3 0 22.2 10.1 22.2 22.6v22.6c0 12.5-9.9 22.6-22.2 22.6h-391.5c-12.2 0-22.1-10.1-22.1-22.6v-22.6c0-12.5 9.9-22.6 22.1-22.6zM290.4 328.1c0-12.5 9.9-22.6 22.1-22.6h320.6c12.2 0 22.2 10.1 22.2 22.6v22.6c0 12.5-10 22.6-22.2 22.6h-320.6c-12.2 0-22.1-10.1-22.1-22.6v-22.6zM866.6 893.7h-709.2c-16.3 0-29.6-13.5-29.6-30.2v-829.1c0-16.7 13.2-30.1 29.6-30.1h373.7v75.4h-304.6c-13.7 0-24.7 11.3-24.7 25.3v688c0 14 11 25.3 24.7 25.3h571.1c13.7 0 24.7-11.3 24.7-25.3v-531.8h-165.8c-16.3 0-16.6-3.1-16.6-19.8v-237.2h83.2l172.9 178h0.2v681.4c0 16.6-13.3 30.1-29.6 30.1zM696.8 93.2v59.3c0 14 15.1 33.4 28.8 33.4h71.7l-100.5-92.7z" />
<glyph unicode="&#xe914;" glyph-name="double-avatar" d="M903 247.4l-169.7 61.7c0 0-30.9 10.2-41.3 25.7-5.1 5.1-5.1 25.7 0 46.2 5.1 20.6 82.3 113.2 82.3 195.4 5.2 128.5-77 231.6-175 231.6s-180.1-102.8-180.1-231.6c0-77.1 66.9-175.1 77.1-190.3 10.2-15.4 5.1-41.3 0-51.5-10.2-10.2-46.2-25.7-46.2-25.7l-74-29.5c0.4 4.4 1.2 9.1 2.3 13.9 3.5 14.3 57.1 78.5 57.1 135.4 3.5 89.1-53.4 160.5-121.4 160.5s-124.7-71.2-124.7-160.4c0-53.4 46.3-121.4 53.4-131.9 7.1-10.7 3.5-28.6 0-35.7-7.1-7.1-32-17.8-32-17.8l-106.9-42.6c-21.4-7.1-39.2-32-39.2-57.1v-10.7c0-25 21.4-42.8 46.3-42.8h177c5.8-1.5 11.9-2.2 18.1-2.2h586.4c36 0 66.9 25.7 66.9 61.7v15.4c0.1 36-25.6 72.1-56.4 82.3zM573.5 297.5h49c3 0 5.3-2.7 5.3-6l-10.9-21.1c0-3.2-2.5-6-5.3-6h-27.3c-3 0-5.3 2.7-5.3 6l-10.9 21.1c0.1 3.5 2.4 6 5.4 6zM598 165.1l-30 34.5 16.2 60h27.4l19.1-62.8-32.7-31.7z" />
<glyph unicode="&#xe915;" glyph-name="drop-down" d="M956.3 732l-444.3-568-444.3 568z" />
<glyph unicode="&#xe916;" glyph-name="error" d="M96.784 762.235l101.045 101.045 729.444-729.444-101.045-101.045-729.444 729.444zM197.765 32.784l-101.045 101.045 729.444 729.444 101.045-101.045-729.444-729.444z" />
<glyph unicode="&#xe917;" glyph-name="excel" d="M862.2 706.1l-156.1 156.1c-18.5 18.5-55.5 34-82 34h-448.3c-26.5 0-48-21.5-48-48v-800.4c0-26.5 21.5-48 48-48h672.3c26.5 0 48 21.5 48 48v576.3c0.1 26.5-15.4 63.5-33.9 82zM640.1 828.2c8.5-3 17-7.5 20.5-11l156.6-156.6c3.5-3.5 8-12 11-20.5h-188.1v188.1zM832.1 63.8h-640.2v768.4h384.1v-208.1c0-26.5 21.5-48 48-48h208.1v-512.3zM569.1 544.4l-56.7-88.1-57.5 88.1h-135.2l125.5-191.9-125.5-192.7h135.9l56.8 88.2 56.7-88.2h135.2l-124 192.7 124 191.9z" />
<glyph unicode="&#xe918;" glyph-name="exit" d="M110 290.8c-0.4 0-0.8 0-1.1 0.1-0.5 0-0.9 0.1-1.4 0.1-0.3 0-0.6 0.1-0.9 0.1-0.5 0.1-1 0.1-1.4 0.3-0.3 0-0.5 0.1-0.8 0.1-0.5 0.1-1 0.3-1.4 0.4-0.3 0-0.5 0.1-0.8 0.1-0.5 0.1-0.9 0.3-1.4 0.4-0.3 0.1-0.5 0.1-0.8 0.3-0.4 0.1-0.9 0.3-1.3 0.4-0.3 0.1-0.6 0.3-0.9 0.3-0.4 0.1-0.8 0.3-1.1 0.4s-0.6 0.3-1 0.4c-0.4 0.1-0.6 0.3-1 0.4s-0.8 0.4-1.1 0.5c-0.3 0.1-0.5 0.3-0.9 0.4-0.4 0.3-0.8 0.4-1.1 0.6-0.3 0.1-0.5 0.3-0.8 0.4-0.4 0.3-0.9 0.5-1.3 0.8-0.3 0.1-0.4 0.3-0.6 0.4-0.4 0.3-0.9 0.5-1.3 0.8-0.3 0.1-0.4 0.3-0.6 0.4-0.4 0.3-0.8 0.5-1.1 0.9-0.3 0.1-0.5 0.4-0.6 0.5-0.4 0.3-0.8 0.5-1 0.9-0.3 0.3-0.6 0.5-0.9 0.8s-0.5 0.5-0.8 0.6c-1.1 1-2.1 2-3.2 3.2-0.3 0.3-0.5 0.5-0.6 0.8-0.3 0.3-0.5 0.6-0.8 0.9-0.3 0.4-0.5 0.8-0.9 1-0.1 0.3-0.4 0.5-0.5 0.6-0.3 0.4-0.5 0.8-0.9 1.1-0.1 0.3-0.3 0.4-0.4 0.6-0.3 0.4-0.5 0.9-0.8 1.3-0.1 0.3-0.3 0.4-0.4 0.6-0.3 0.4-0.5 0.9-0.8 1.3-0.1 0.3-0.3 0.5-0.4 0.8-0.3 0.4-0.4 0.8-0.6 1.1-0.1 0.3-0.3 0.5-0.4 0.8-0.1 0.4-0.4 0.8-0.5 1.1-0.1 0.4-0.3 0.6-0.4 1s-0.3 0.6-0.4 1c-0.1 0.4-0.3 0.8-0.4 1.1s-0.3 0.6-0.3 0.9c-0.1 0.4-0.3 0.9-0.4 1.3-0.1 0.3-0.1 0.5-0.3 0.8-0.1 0.5-0.3 0.9-0.4 1.4 0 0.3-0.1 0.5-0.1 0.8-0.1 0.5-0.3 1-0.3 1.4 0 0.3-0.1 0.5-0.1 0.8-0.1 0.5-0.1 1-0.3 1.4 0 0.3-0.1 0.6-0.1 0.9 0 0.5-0.1 0.9-0.1 1.4 0 0.4 0 0.8-0.1 1.1 0 0.4 0 0.8-0.1 1-0.1 1.5-0.1 3 0 4.5 0 0.4 0 0.8 0.1 1 0 0.4 0 0.8 0.1 1.1 0 0.5 0.1 0.9 0.1 1.4 0 0.3 0.1 0.6 0.1 0.9 0.1 0.5 0.1 1 0.3 1.4 0 0.3 0.1 0.5 0.1 0.8 0.1 0.5 0.3 1 0.3 1.4 0 0.3 0.1 0.5 0.1 0.8 0.1 0.5 0.3 0.9 0.4 1.4 0.1 0.3 0.1 0.5 0.3 0.8 0.1 0.4 0.3 0.9 0.4 1.3 0.1 0.3 0.3 0.6 0.3 0.9 0.1 0.4 0.3 0.8 0.4 1.1 0.1 0.4 0.3 0.6 0.4 1s0.3 0.6 0.4 1c0.1 0.4 0.4 0.8 0.5 1.1s0.3 0.5 0.4 0.8c0.3 0.4 0.4 0.8 0.6 1.1 0.1 0.3 0.3 0.5 0.4 0.8 0.3 0.4 0.5 0.9 0.8 1.3 0.1 0.3 0.3 0.4 0.4 0.6 0.3 0.4 0.5 0.9 0.8 1.3 0.1 0.3 0.3 0.4 0.4 0.6 0.3 0.4 0.5 0.8 0.9 1.1 0.1 0.3 0.4 0.5 0.5 0.6 0.3 0.4 0.5 0.8 0.9 1 0.3 0.3 0.5 0.6 0.8 0.9s0.5 0.5 0.8 0.8 1 1.1 1.5 1.6l224.2 224.2c17.8 17.8 46.6 17.8 64.3 0v0c17.8-17.8 17.8-46.6 0-64.3l-146.4-147h687.4c25.1 0 45.5-20.3 45.5-45.5v0c0-25.1-20.3-45.5-45.5-45.5h-797.2c-0.8 0-1.5 0-2.3 0-0.5 0.3-0.9 0.4-1.1 0.4z" />
<glyph unicode="&#xe919;" glyph-name="explain" d="M487.5 419.5c6.5 6.5 15.3 10.2 24.5 10.2 57.4 0 104 46.6 104 104s-46.6 104-104 104-104-46.6-104-104c0-19.1-15.5-34.7-34.7-34.7-19.1 0-34.7 15.5-34.7 34.7 0 95.7 77.6 173.3 173.4 173.3s173.3-77.6 173.3-173.4c0-82.4-58-153.3-138.7-169.8v-38.1c0-19.1-15.5-34.7-34.7-34.7-19.1 0-34.7 15.5-34.7 34.7v69.3c0.1 9.6 4 18.2 10.3 24.5zM512 31c-229.7 0-416 186.3-416 416s186.3 416 416 416 416-186.3 416-416-186.3-416-416-416zM512 100.3c191.5 0 346.7 155.2 346.7 346.7s-155.2 346.7-346.7 346.7-346.7-155.2-346.7-346.7 155.2-346.7 346.7-346.7v0zM512 187c-19.1 0-34.7 15.5-34.7 34.6s15.5 34.7 34.6 34.7c0 0 0 0 0.1 0 19.1 0 34.7-15.5 34.6-34.7 0-19.1-15.5-34.6-34.6-34.6z" />
<glyph unicode="&#xe91a;" glyph-name="filter" d="M918.8 825.6c-18.1 42-59.3 69.3-105 69.4h-600.9c-0.3 0-0.7 0-1-0.1-45.4-0.6-86.2-27.9-104-69.6-17.2-40.3-9.7-87.5 19.1-120.4 0.9-1.4 2-2.7 3.1-4l235.3-235.3v-245.8c0-20.8 16.9-37.7 37.7-37.7s37.7 16.9 37.7 37.7v261.4c0 10.1-3.9 19.5-11 26.6l-241.8 241.7c-1 1.4-2.1 2.6-3.2 3.8-10.8 11.4-13.8 28.1-7.6 42.5s20.3 23.8 35.9 23.9h600.4c0.3 0 0.5 0 0.8 0v0c15.3-0.4 29.1-9.7 35.1-23.8 6.2-14.4 3.2-31.1-7.5-42.4-0.6-0.6-1.2-1.3-1.9-2.1l-250.9-251.1c-7-7-11.1-16.7-11.1-26.7v-433.9c0-20.8 16.9-37.7 37.7-37.7s37.7 16.9 37.7 37.6v418.4l242.8 242.8c1.3 1.3 2.5 2.6 3.5 4.1 28.9 33.1 36.4 80.4 19.1 120.7zM664.5 676.2c0 20.8-16.9 37.7-37.7 37.7h-226.8c-20.8 0-37.7-16.9-37.7-37.7s16.9-37.7 37.7-37.7h226.9c20.7 0 37.6 16.9 37.6 37.7z" />
<glyph unicode="&#xe91b;" glyph-name="government-doc" d="M512 316.6c-0.6 0-1.2 0-1.7 0-77.3 0.5-149.9 31.1-204.3 86.2s-84.2 128-83.7 205.3c0.8 159.2 130.7 288.1 289.7 288.1 0.6 0 1.1 0 1.7 0 77.3-0.5 149.9-31.1 204.3-86.2s84.2-128 83.7-205.4c-0.5-77.3-31.1-149.9-86.2-204.3-54.6-54-126.9-83.7-203.5-83.7zM512 865.8c-142.3 0-258.5-115.3-259.4-257.8-0.4-69.1 26.2-134.4 75-183.8s113.7-76.8 182.9-77.2c0.5 0 1 0 1.6 0 68.6 0 133.2 26.6 182.2 75 49.4 48.8 76.8 113.7 77.2 182.9s-26.2 134.5-75 183.8-113.8 76.7-183 77.1c-0.5 0-1 0-1.5 0zM417.5 818.1c0 8.8 7.3 15.9 16 15.9l159.9-0.9c4.3 0 8.3-1.8 11.3-4.8s4.6-7.1 4.6-11.4l-1.2-211.2-16 0.4-13.2 0.4-2.7 7.9-24.4 70.5c-5.8 16.6-21.4 27.9-39.1 28.1-17.7 0-33.4-11-39.4-27.5l-28.1-78.3-29.1-0.2 1.4 211.1zM667.7 555.1l-85.1-63 30.1-101c1.2-3.9-0.3-8-3.6-10.5-1.6-1.2-3.7-1.8-5.6-1.8s-3.9 0.7-5.5 1.8l-86.9 60.6-87.8-59.6c-0.9-0.6-1.8-1-2.7-1.2-0.3-0.1-0.6 0-1-0.1-0.6 0-1.2-0.1-1.8-0.1-0.6 0.1-1.3 0.1-1.9 0.3-0.3 0-0.6 0-0.9 0.1-0.9 0.3-1.8 0.7-2.7 1.3-3.3 2.5-4.6 6.7-3.4 10.5l31.3 100.4-84.2 64c-3.3 2.5-4.6 6.7-3.3 10.5 1.3 4 4.9 6.5 9.1 6.7l54.4 0.7 16 0.1 16 0.3 13.7 0.1h6.4l3.4 9.7 31.9 89.5c1.3 3.7 5 6.2 9.1 6.2 4 0 7.6-2.5 9.1-6.4l31-90 3.3-9.7 6.4-0.1 13.7-0.3 31.9-0.8 54.4-1.5c4.2-0.1 7.7-2.7 8.9-6.7 0.9-3.3-0.4-7.6-3.7-10v0zM759.9-0.2h-495.6c-18.7 0-37.4 21.1-37.4 42.2s14 42.2 37.4 42.2h495.4c23.3 0 37.4-15.9 37.4-42.2 0-21.1-13.9-42.2-37.2-42.2zM759.9 168.8h-495.6c-18.7 0-37.4 21.1-37.4 42.2s14 42.2 37.4 42.2h495.4c23.3 0 37.4-15.9 37.4-42.2 0-21.1-13.9-42.2-37.2-42.2z" />
<glyph unicode="&#xe91c;" glyph-name="government-info" d="M484.1 521l-108.7 16.1c-8.1 0-16.1 4-20.1 12.1l-48.3 96.7c-8.1 20.1-36.2 20.1-44.3 0l-48.3-100.7c-4-4-12.1-12.1-20.1-12.1l-109-16.1c-20.1-4-28.2-28.2-12.1-44.3l80.6-76.5c8.1-4 8.1-12.1 8.1-20.1l-16.1-108.7c-4-20.1 20.1-32.2 36.2-24.2l96.7 48.3c8.1 4 16.1 4 24.2 0l96.7-48.3c20.1-8.1 40.3 8.1 36.2 32.2l-20.1 108.7c0 8.1 4 16.1 8.1 20.1l76.5 76.5c12 12.1 3.9 36.3-16.2 40.3zM959.3 593.5c0 24.2-16.1 40.3-40.3 40.3h-394.7c-24.2 0-40.3-16.1-40.3-40.3s16.1-40.3 40.3-40.3h394.7c20.2 0 40.3 16.1 40.3 40.3zM919.1 468.6h-273.9c-24.2 0-40.3-16.1-40.3-40.3s16.1-40.3 40.3-40.3h273.9c20.1 0 40.3 16.1 40.3 40.3-0.1 24.2-16.2 40.3-40.3 40.3zM919.1 315.6h-273.9c-24.2 0-40.3-16.1-40.3-40.3s16.1-40.3 40.3-40.3h273.9c20.1 0 40.3 16.1 40.3 40.3s-16.2 40.3-40.3 40.3z" />
<glyph unicode="&#xe91d;" glyph-name="info-reading" d="M95.1 724l-30.5-20v-555.5c0-38.5 25.8-67.3 53.1-67.2l346.3-0.1c9.3 0.3 23.2 29.6 23.2 29.6l-392.1 61.6v551.6zM959.2 704.1l-29 20v-551.7l-392.8-61.6c0 0 14-29.3 23.3-29.5l347 0.1c22.3-0.2 52.5 23.7 51.7 67.2l-0.2 555.5zM360.8 790.8c-67.7 12.2-136.9 15.6-215.7 24v-618.5c0-0.1 178 13.8 347.8-51.7l0.1 483.2c4.1 104.5-44.5 147.1-132.2 163zM881.5 196.3v618.4c-78.7-8.3-148-11.7-215.7-23.9-87.8-15.9-136.4-58.6-132.2-163l0.1-483.2c169.9 65.5 347.8 51.7 347.8 51.7z" />
<glyph unicode="&#xe91e;" glyph-name="information" d="M512 479.7c-106.4 99.1-246.2 154.4-391.5 154.4v-478.8c151.2 0 288.7-58.9 391.5-154.4 106.4 99.1 246.2 154.4 391.5 154.4v478.9c-151.2 0-288.7-59-391.5-154.5zM512 634.2c72.2 0 130.6 58.5 130.6 130.6 0.1 72.2-58.4 130.2-130.6 130.2s-130.6-58.5-130.6-130.7c0-72.1 58.4-130.1 130.6-130.1z" />
<glyph unicode="&#xe91f;" glyph-name="letter" d="M456.4 359.1c-11.3-11.3-11.3-29.6-0.1-40.9 5.6-5.6 13.1-8.5 20.5-8.5s14.9 2.8 20.5 8.4l109.3 109.3c11.3 11.3 11.3 29.9 0 41.2l-109.2 109.2c-11.3 11.3-29.7 11.3-41 0s-11.3-29.7 0-41l59.8-59.8h-387.1c-16 0-29-13-29-29s13-29 29-29l387.1-0.1-59.8-59.8zM891.6 608.3c-20.8 49.1-50.5 93.2-88.3 131s-81.8 67.6-130.9 88.4c-50.8 21.4-104.8 32.3-160.4 32.3-65.4 0-128-14.9-186-44.3-55.3-28.1-104.4-69-141.9-118.4-9.7-12.7-7.2-30.9 5.5-40.6s30.9-7.2 40.6 5.5c32.3 42.5 74.5 77.7 122.1 101.8 49.8 25.3 103.6 38.1 159.8 38.1 47.8 0 94.1-9.3 137.8-27.8 42.2-17.8 80.1-43.4 112.6-75.9s58-70.4 75.9-112.6c18.5-43.7 27.8-90 27.8-137.8s-9.3-94.1-27.8-137.8c-17.8-42.2-43.4-80.1-75.9-112.6s-70.4-58-112.6-75.9c-43.7-18.6-90-27.8-137.8-27.8-56.2 0-110 12.8-160 38.1-47.5 24.1-89.7 59.3-122.1 101.8-9.7 12.7-27.8 15.1-40.6 5.5-12.7-9.7-15.1-27.8-5.5-40.6 37.7-49.5 86.7-90.4 142-118.4 58-29.4 120.6-44.3 186-44.3 55.6 0 109.6 10.9 160.4 32.3 49 20.7 93.1 50.5 130.9 88.3s67.6 81.8 88.4 130.9c21.5 50.9 32.4 104.9 32.4 160.5s-10.9 109.6-32.4 160.3z" />
<glyph unicode="&#xe920;" glyph-name="levitate-add" d="M557.2 491.2v327.6c0 22.9-21.3 44.2-44.2 44.2s-44.2-21.3-44.2-44.2v-327.6h-327.6c-22.9 0-44.2-21.3-44.2-44.2s21.3-44.2 44.2-44.2h327.6v-327.6c0-22.9 21.3-44.2 44.2-44.2s44.2 21.3 44.2 44.2v0 327.6h327.6c22.9 0 44.2 21.3 44.2 44.2s-21.3 44.2-44.2 44.2h-327.6z" />
<glyph unicode="&#xe921;" glyph-name="levitate-advice" d="M765.7 418c-92.3 0-167.6-75.3-167.6-167.6s75.3-167.6 167.6-167.6c92.3 0 167.6 75.3 167.6 167.6s-75.3 167.6-167.6 167.6zM765.7 344.2h47.7v-47.7c0-26.1-21.5-47.7-47.7-47.7s-47.7 21.5-47.7 47.7 23.1 47.7 47.7 47.7zM813.4 175.1h-93.8c-15.4 0-27.7 12.3-27.7 27.7v4.6c0 18.5 15.4 32.3 32.3 32.3h84.6c18.5 0 32.3-15.4 32.3-32.3 0 0 0-4.6 0-4.6 0-15.4-12.3-27.7-27.7-27.7zM765.7 487.2h1.5l193.8 327.6h-203l-1.5-4.6-229.1-163h132.2l-158.4-270.7-40 438.3h-198.3l-199.9-167.7h214.6l54.5-559.7-3.1-6.2h199.9l30.8 53.8c-18.5 33.8-30.8 73.8-30.8 115.3 0 130.8 106.1 236.9 236.8 236.9z" />
<glyph unicode="&#xe922;" glyph-name="levitate-delete" d="M512 532.2l-310.6 310.7c-22.8 22.8-61.4 22.8-84.2 0s-22.8-61.4 0-84.2l310.6-310.7-310.7-310.6c-22.8-22.8-22.8-61.4 0-84.2s61.4-22.8 84.2 0l310.7 310.6 310.6-310.6c22.8-22.8 61.4-22.8 84.2 0s22.8 61.4 0 84.2v0l-310.6 310.6 310.6 310.6c22.8 22.8 22.8 61.4 0 84.2s-61.4 22.8-84.2 0l-310.6-310.6z" />
<glyph unicode="&#xe923;" glyph-name="levitate-examine" d="M200.9 126.5h643.1c20.9 2.1 18.8-4.2 18.8 18.8v52.2c0 29.2-6.3 35.5-35.5 35.5h-125.3c-16.7 12.5-18.8 29.2-23 33.4-73.1 81.4-31.3 135.7 14.6 210.9 8.4 10.4 16.7 20.9 23 33.4 18.8 33.4 29.2 71 29.2 112.8 0 129.5-104.4 236-236 236-129.5 0-236-104.4-236-236 0-54.3 18.8-104.4 50.1-144.1 50.1-79.3 131.5-144.1 0-246.4h-125.1c-23 0-35.5-12.5-35.5-35.5v-54.3c0-20.9 14.6-16.7 37.6-16.7zM898.3 91h-770.5c-10.4 0-18.8-8.4-18.8-18.8v-18.8c0-10.4 8.4-18.8 18.8-18.8h768.4c10.4 0 18.8 8.4 18.8 18.8v18.8c0 10.4-8.4 18.8-16.7 18.8z" />
<glyph unicode="&#xe924;" glyph-name="levitate-function" d="M281.9 860.6c-101.1 0-181.9-80.8-181.9-181.9s80.8-181.9 181.9-181.9h156.6c15.2 0 26.9 11.8 26.9 25.3v156.6c0.1 101.1-82.5 181.9-183.5 181.9zM436.2 399.2h-156.6c-101.1 0-181.9-80.8-181.9-181.9s80.8-181.9 181.9-181.9 183.6 82.5 185.3 180.2v154.9c-0.1 16.9-13.5 28.7-28.7 28.7zM590.1 493.5h156.6c97.7 3.4 178.5 84.2 178.5 185.3s-80.8 181.8-181.8 181.8-181.9-80.8-181.9-181.9v-156.6c0-15.2 11.8-26.9 28.6-28.6zM615.4 677.1c0 70.7 57.3 128 128 128s128-57.3 128-128-57.3-128-128-128h-128v128zM746.1 400.8h-156.6c-16.8 0-28.6-13.5-28.6-28.6v-154.9c0-101.1 80.8-181.9 181.9-181.9 102.7 0 185.3 82.5 185.3 183.6-0.1 101-80.9 181.8-182 181.8z" />
<glyph unicode="&#xe925;" glyph-name="levitate-good" d="M121.2 103.5l-1.6 631.7c0 31.9 17.5 59 49.4 59h585.4c28.7 0 52.6-9.6 57.4-36.7v35.1c0 31.9-25.5 59-59 59h-628.4c-33.5 0-59-27.1-59-59l1.6-689.1c0-31.9 27.1-59 59-59h46.3c-33.6-0.1-51.1 27.1-51.1 59zM756.1 752.7h-532.8c-31.9 0-57.4-25.5-57.4-59l1.6-590.2c0-31.9 25.5-59 57.4-59h417.9c-51 41.5-82.9 103.7-82.9 173.9 0 122.8 102.1 223.3 226.5 223.3 9.6 0 19.1 0 27.1-1.6v253.5c0 31.9-25.5 59.1-57.4 59.1zM476.9 122.6h-209c-16 0-28.7 12.8-28.7 28.7 0 16 12.8 28.7 28.7 28.7h209c16 0 28.7-12.8 28.7-28.7-1.6-15.9-12.7-28.7-28.7-28.7zM476.9 286.9h-209c-16 0-28.7 12.8-28.7 28.7 0 16 12.8 28.7 28.7 28.7h209c16 0 28.7-12.8 28.7-28.7-1.6-15.9-12.7-28.7-28.7-28.7zM620.5 452.8h-354.1c-16 0-28.7 12.8-28.7 28.7 0 16 12.8 28.7 28.7 28.7h354.1c16 0 28.7-12.8 28.7-28.7 0-16-12.8-28.7-28.7-28.7zM713 615.5h-446.6c-16 0-28.7 12.8-28.7 28.7s12.8 28.7 28.7 28.7h445c16 0 28.7-12.8 28.7-28.7s-12.8-28.7-27.1-28.7zM783.2 392.2c-95.7 0-173.9-78.2-173.9-173.9s78.2-173.9 173.9-173.9 175.5 78.2 175.5 173.9-79.8 173.9-175.5 173.9zM874.1 192.8c0-20.7-17.5-38.3-38.3-38.3-4.8 0-9.6 1.6-14.4 3.2-3.2-19.1-19.1-31.9-38.3-31.9-19.1 0-35.1 14.4-38.3 31.9-4.8-1.6-9.6-3.2-14.4-3.2-20.7 0-38.3 17.5-38.3 38.3 0 11.2 4.8 20.7 11.2 27.1-6.4 6.4-11.2 16-11.2 27.1 0 20.7 17.5 38.3 38.3 38.3 4.8 0 9.6-1.6 12.8-3.2 1.6 19.1 17.5 35.1 38.3 35.1 20.7 0 36.7-16 38.3-36.7 4.8 1.6 9.6 3.2 16 3.2 20.7 0 38.3-17.5 38.3-38.3 0-11.2-4.8-20.7-12.8-27.1 8-6.4 12.8-15.9 12.8-25.5zM821.5 221.5c0-20.269-16.431-36.7-36.7-36.7s-36.7 16.431-36.7 36.7c0 20.269 16.431 36.7 36.7 36.7s36.7-16.431 36.7-36.7z" />
<glyph unicode="&#xe926;" glyph-name="levitate-hottest" d="M428.5 582.3v-34.4c3.1 1.6 6.3 1.6 9.4 3.1 14.1 3.1 18.8 6.3 20.3 6.3v0c-4.7 4.7-4.7 10.9-3.1 17.2 1.6 3.1 3.1 6.3 6.3 7.8 0 0 0 0-1.6 0h-31.3zM480.2 604.2c0-1.6 0-1.6 1.6-3.1v-3.2c-1.6-4.7-3.1-9.4-7.8-10.9v0c1.6 0 3.1 0 4.7 0l3.1-1.6c14.1-7.8 25-15.6 34.4-21.9 1.6 12.5 3.1 26.6 4.7 42.2l-40.7-1.5zM97 841.9v-749.1c0-28.2 29.7-43.8 67.2-34.4l348.7 86 348.7-87.6c37.5-9.4 67.2 6.3 67.2 34.4v750.7h-831.8zM570.9 344.6l-3.1-1.6c-1.6 0-3.1 0-3.1 0-7.8 0-14.1 4.7-17.2 14.1-4.7 17.2-12.5 37.5-23.5 61-3.1 4.7-3.1 9.4-1.6 12.5 1.6 3.1 3.1 6.3 9.4 9.4 6.3 1.6 14.1 1.6 21.9-7.8l1.6-1.6c9.4-18.8 17.2-40.7 25-64.1 3.1-14.1-4.7-20.4-9.4-21.9zM664.7 350.8c-4.7-3.1-9.4-4.7-12.5-4.7-1.6 0-3.1 0-4.7 0-3.1 1.6-6.3 3.1-9.4 9.4-10.9 18.8-25 39.1-39.1 56.3-3.1 4.7-4.7 9.4-4.7 14.1 0 3.1 1.6 7.8 6.3 10.9 6.3 3.1 14.1 4.7 23.5-3.1l1.6-1.6c10.9-14.1 23.5-34.4 39.1-61 6.2-6.2 4.6-14-0.1-20.3zM660 438.4c-4.7-4.7-10.9-6.3-18.8-4.7h-3.1c-25 14.1-37.5 50-40.7 112.6l-3.1 56.3h-40.7c-1.6-26.6-4.7-48.5-7.8-64.1 25-23.5 45.4-42.2 56.3-54.7 6.3-9.4 6.3-17.2 1.6-25l-1.6-1.6c-4.7-3.1-9.4-3.1-12.5-3.1s-7.8 3.1-10.9 9.4c-3.1 3.1-18.8 17.2-43.8 40.7-15.6-29.7-36-53.2-64.1-70.4-1.6-1.6-3.1-1.6-4.7-1.6 1.6-1.6 3.1-3.1 4.7-6.3v-1.6c10.9-23.5 18.8-45.4 25-64.1 1.6-9.4-1.6-17.2-10.9-21.9-10.9-3.1-18.8 3.1-21.9 12.5-6.3 15.6-12.5 37.5-21.9 61-4.7 6.3-3.1 15.6 4.7 21.9-4.7 6.3-6.3 10.9-4.7 12.5 0 4.7 3.1 9.4 9.4 12.5 23.5 15.6 42.2 37.5 56.3 65.7-1.6 1.6-3.1 1.6-6.3 3.1-6.3 4.7-10.9 7.8-15.6 10.9 0-3.1-1.6-4.7-1.6-6.3-1.6-3.1-4.7-6.3-10.9-7.8-12.5-4.7-26.6-7.8-42.2-12.5v-54.7c-3.1-14.1-9.4-23.5-18.8-26.6h-1.6c1.6-3.1 3.1-7.8 1.6-12.5-7.8-29.7-17.2-53.2-28.2-73.5-4.7-6.3-10.9-9.4-17.2-9.4-1.6 0-4.7 0-7.8 1.6v1.6c-7.8 6.3-9.4 14.1-3.1 23.5 10.9 18.8 18.8 39.1 23.5 62.6 0 3.1 1.6 6.3 3.1 7.8-4.7 1.6-10.9 4.7-15.6 7.8s-7.8 6.3-7.8 9.4c0 3.1 0 7.8 3.1 12.5 6.3 6.3 14.1 7.8 21.9 4.7s12.5-4.7 14.1-4.7v42.2c-10.9-1.6-21.9-4.7-34.4-6.3-10.9-1.6-18.8 3.1-20.3 12.5 0 9.4 4.7 17.2 15.6 18.8 6.3 1.6 12.5 1.6 17.2 3.1 6.3 1.6 12.5 1.6 20.3 4.7v42.2h-34.4c-12.5 0-17.2 7.8-17.2 17.2 0 3.1 1.6 14.1 15.6 15.6h36v34.4c0 12.5 7.8 17.2 17.2 17.2 3.1 0 14.1-1.6 15.6-15.6v-35.9h34.4c0 0 0 0 1.6 0 0 1.6 0 1.6-1.6 3.1v3.2c1.6 7.8 7.8 12.5 15.6 14.1h43.8c0 3.1 0 9.4 0 17.2 1.6 10.9 9.4 15.6 17.2 15.6 9.4-1.6 14.1-6.3 15.6-14.1 0-4.7 0-9.4-1.6-15.6v-3.1h43.8c18.8-1.6 29.7-10.9 29.7-28.2 0-36 0-48.5 0-53.2v0-4.7c1.6-36 6.3-57.9 10.9-70.4 1.6 7.8 1.6 20.3 3.1 40.7 0 9.4 6.3 15.6 17.2 15.6 9.4-1.6 14.1-7.8 15.6-15.6 3.3-42.2-2.9-67.2-13.9-78.2z" />
<glyph unicode="&#xe927;" glyph-name="levitate-latest" d="M482.5 607.6h-65.8c4.7-12.5 9.4-26.6 14.1-42.3 0-3.1 0-4.7 0-6.3h31.3c6.3 12.5 11 29.8 15.7 45.4 3.1 1.7 4.7 3.2 4.7 3.2zM424.5 474.5c1.6-3.1 1.6-6.3 1.6-11-9.4-28.2-23.5-50.1-34.5-68.9 4.7 1.6 9.4 1.6 15.7-1.6 15.7-9.4 21.9-7.8 23.5-7.8 0 0 1.6 1.6 1.6 3.1v84.6h-7.8c-0.1 0-0.1 1.6-0.1 1.6zM496.6 474.5c6.3-11 12.5-28.2 23.5-47 6.3 12.5 11 31.3 12.5 50.1-3.1-1.6-6.3-3.1-9.4-3.1 0 0-26.6 0-26.6 0zM97.2 841v-748.7c0-29.8 29.8-43.9 67.3-34.5l349.3 86.2 347.7-86.1c37.6-9.4 67.3 6.3 67.3 34.5v748.6h-831.6zM662.6 530.9h-28.2v-169.2c-1.6-9.4-7.8-14.1-15.7-15.7v0c-12.5 0-17.2 7.8-17.2 14.1v170.8h-32.9v-39.2c0-61.1-21.9-103.4-62.6-126.9-9.4-3.1-15.7-3.1-23.5 3.1-4.7 6.3-4.7 11-3.1 15.7 0 3.1 3.1 6.3 7.8 9.4 3.1 1.6 6.3 4.7 9.4 6.3-1.6 1.6-3.1 3.1-3.1 6.3-6.3 14.1-15.7 32.9-28.2 51.7l-1.6 1.6v-73.6c-3.1-15.7-9.4-28.2-20.4-32.9-4.7-1.6-9.4-3.1-14.1-3.1-11 0-25.1 4.7-40.7 12.5l-1.6 1.6c-4.7 4.7-6.3 9.4-6.3 14.1-4.7-4.7-9.4-6.3-14.1-6.3s-7.8 1.6-9.4 3.1-6.3 6.3-6.3 11 1.6 9.4 6.3 14.1c15.7 21.9 29.8 43.9 36 68.9v1.6h-20.4c-9.4 0-15.7 6.3-15.7 15.7 0 6.3 3.1 14.1 14.1 15.7h59.5v23.5h-56.4c-9.4 0-15.7 6.3-15.7 15.7s4.7 15.7 14.1 17.2h26.6c-4.7 14.1-9.4 28.2-12.5 39.2-1.6 3.1-1.6 6.3-1.6 9.4h-3.1c-9.4 0-15.7 6.3-15.7 15.7 0 6.3 3.1 14.1 14.1 15.7h45.4c-1.6 1.6-1.6 4.7-3.1 6.3-3.1 4.7-3.1 9.4-3.1 14.1 0 3.1 3.1 6.3 7.8 9.4 3.1 1.6 12.5 4.7 23.5-6.3 4.7-6.3 7.8-12.5 11-23.5h51.7c3.1-1.6 9.4-4.7 11-12.5 0-14.1-7.8-20.4-12.5-20.4v0c1.6-3.1 3.1-7.8 1.6-11-3.1-12.5-7.8-25.1-12.5-37.6h23.5c4.7-1.6 7.8-3.1 9.4-4.7v59.5c-1.6 12.5 6.3 25.1 23.5 26.6 25.1 3.1 53.3 9.4 86.1 17.2 4.7 1.6 9.4 0 11-1.6 3.1-1.6 6.3-6.3 6.3-11 1.6-6.3 0-11-3.1-14.1-1.6-3.1-4.7-4.7-9.4-4.7-23.5-6.3-50.1-12.5-81.4-17.2v-42.3h97.1c6.3-1.6 11-6.3 12.5-12.5 0-15.8-6.3-20.5-14.1-20.5zM465.2 524.6v-17.2h59.5c4.7-1.6 7.8-3.1 9.4-4.7v26.6c-3.1-4.7-6.3-4.7-9.4-4.7h-59.5z" />
<glyph unicode="&#xe928;" glyph-name="levitate-leaving" d="M803.8 554.9c-0.6-8.7-1.6-17.4-2.8-26-21.7-150.2-140.8-259.3-283.2-259.3h-46.4l-8.5-8.9c32-59.3 91.4-98.1 158.3-98.1h46.1l91.2-95.2c5.8-6 13.7-9.4 22-9.4 3.8 0 7.7 0.7 11.4 2.2 11.6 4.6 19.1 15.8 19.1 28.3v77.8c85 17.7 147.9 97.4 147.9 193.8 0 98.5-67.4 180.2-155.1 194.8zM803.8 554.9v0 0zM757.6 535.2c2.1 14.8 3.1 28 3.1 40.6 0 144.6-108.9 262.2-242.9 262.2h-209.8c-133.9 0-242.9-117.6-242.9-262.2 0-129.8 85.8-236.9 200.7-258.3v-110.5c0-14.5 8.8-27.6 22.3-33 4.3-1.7 8.8-2.6 13.2-2.6 9.5 0 18.9 3.8 25.7 11l125.6 131.2h65.1c120.5 0 221.3 93.2 239.9 221.6zM240.5 656.8h341.4c9.5 0 17.3-8.2 17.3-18.3s-7.8-18.3-17.3-18.3h-341.4c-9.6 0-17.3 8.2-17.3 18.3s7.7 18.3 17.3 18.3zM445.4 487v0h-205c-9.6 0-17.3 8.2-17.3 18.3s7.8 18.3 17.3 18.3h205c9.5 0 17.3-8.2 17.3-18.3 0.1-10.1-7.7-18.3-17.3-18.3z" />
<glyph unicode="&#xe929;" glyph-name="levitate-log" d="M501.7 239c0 139.3 117.2 251.8 261.3 251.8 11 0 20.6 0 31.6-1.6v136.1h-183.7c-41.2 0-74.4 33.2-74.4 74.4v153.6h-405.3c-36.5 0-66.5-30.1-66.5-66.5l1.6-677.7c0-36.5 30.1-66.5 66.5-66.5h465.6c-58.6 46-96.7 117.3-96.7 196.4zM360.8 196.1h-171.1c-15.9 0-28.5 14.3-28.5 33.2 0 17.4 12.7 33.2 28.5 33.2h172.6c15.9 0 28.5-14.3 28.5-33.2-1.6-18.9-14.3-33.2-30-33.2zM389.2 381.5h-194.8c-17.4 0-33.2 14.3-33.2 33.2 0 17.4 14.3 33.2 33.2 33.2h194.8c17.4 0 33.2-14.3 33.2-33.2-1.5-17.4-15.7-33.2-33.2-33.2zM466.8 568.3h-272.4c-17.4 0-33.2 14.3-33.2 33.2 0 17.4 14.3 33.2 33.2 33.2h272.3c17.4 0 33.2-14.3 33.2-33.2-1.4-19-15.7-33.2-33.1-33.2zM631.5 853.3h-31.6v-164.7h196.4c-0.1 91.8-74.5 164.7-164.8 164.7zM959.3 240.5c0-109.3-88.7-196.4-196.4-196.4-109.3 0-196.4 88.7-196.4 196.4 0 109.3 88.7 196.4 196.4 196.4 109.2 0 196.3-88.7 196.4-196.4zM764 333.8h-57.8v-172.4h137.2v53.3h-79.4v119.1z" />
<glyph unicode="&#xe92a;" glyph-name="levitate-map" d="M617.7 893.2c-120.1 0-216.2-97.7-216.2-216.2 0-84.9 110.5-246.6 173-333.1 20.8-28.8 65.7-28.8 86.5 0 62.5 86.5 173 246.6 173 333.1-0.1 118.5-96.2 216.2-216.3 216.2zM617.7 540.9c-81.7 0-145.7 68.9-140.9 150.5 4.8 73.7 65.7 131.3 139.3 132.9 78.5 1.6 144.1-62.5 144.1-140.9-1.6-78.4-64-142.5-142.5-142.5zM102 305.5v-230.6c0-33.6 22.4-60.9 52.9-68.9l110.5 227.4c1.6 0-163.4 72.1-163.4 72.1zM238.1 2.8h683.9l-584.6 200.2zM894.8 693c-27.2-118.5-148.9-297.9-222.6-397.2-28.8-38.4-86.5-38.4-115.3 0-4.8 6.4-9.6 14.4-16 20.8-4.8 4.8-8 8-12.8 14.4-33.6 46.4-62.5 88.1-86.5 128.1l-80.1-187.4 558.9-201.7c0 1.6 0 4.8 0 6.4v616.6c-8 0-17.6 0-25.6 0zM334.2 693h-160.1c-38.4 0-70.5-32-70.5-70.5v-230.6l189-86.5c0 0 100.9 240.2 100.9 241.8-28.8 52.9-49.7 102.6-59.3 145.8z" />
<glyph unicode="&#xe92b;" glyph-name="levitate-poverty" d="M560.8 210.8c0 34.1 7.8 65.1 20.2 94.6-6.2 4.7-12.4 9.3-17.1 15.5-6.2 6.2-6.2 29.5 0 51.2 6.2 23.3 89.9 127.1 89.9 218.6 6.2 144.2-85.3 258.9-192.3 258.9-108.5 0-198.5-114.7-198.5-258.9 0-86.8 74.4-195.4 85.3-212.4 10.9-17.1 6.2-46.5 0-57.4-10.9-10.9-51.2-29.5-51.2-29.5l-170.6-68.2c-34.1-12.4-62-51.2-62-91.5v-17.1c0-40.3 34.1-68.2 74.4-68.2h493.1c-44.8 38.8-71.2 99.2-71.2 164.4zM497.3 123.9l-34.1-31c-1.6-1.6-4.7-1.6-6.2 0l-34.1 31c-1.6 1.6-1.6 3.1-1.6 4.7l24.8 155.1c0 1.6 0 1.6 0 3.1l-12.4 27.9c-1.6 3.1 0 6.2 3.1 6.2h46.6c3.1 0 4.7-1.6 4.7-4.7 0-1.6 0-1.6 0-1.6l-12.4-27.9c0-1.6 0-1.6 0-3.1l24.8-155.1c-1.7-1.5-3.2-3-3.2-4.6zM790.3 384.4c-93 0-169-76-169-169s76-169 169-169 169 76 169 169c0 94.6-75.9 169-169 169zM793.4 148.7h-3.2c-3.1 1.6-69.8 41.9-69.8 86.8 0 18.6 14 38.8 37.2 38.8 15.5 0 29.5-7.8 35.7-18.6 6.2 10.9 20.2 18.6 34.1 18.6 23.3 0 37.2-20.2 37.2-38.8-1.4-46.4-68.1-85.2-71.2-86.8z" />
<glyph unicode="&#xe92c;" glyph-name="levitate-proposal" d="M119.5 100.5l-1.6 637c0 32.2 17.7 59.5 49.9 59.5h590.4c29 0 53.1-9.7 57.9-37v35.4c0 32.2-25.7 59.5-59.5 59.5h-633.9c-33.8 0-59.5-27.3-59.5-59.5l1.6-695c0-32.2 27.3-59.5 59.5-59.5h46.7c-33.8 0.1-51.5 27.4-51.5 59.6zM758.1 755.3h-535.7c-32.2 0-57.9-25.7-57.9-59.5l1.6-595.2c0-32.2 25.7-59.5 57.9-59.5h421.5c-51.5 41.8-83.7 104.6-83.7 175.3 0 123.9 103 225.2 228.4 225.2 9.7 0 19.3 0 27.3-1.6v255.7c0.2 32.2-27.2 59.6-59.4 59.6zM478.2 119.8h-210.7c-16.1 0-29 12.9-29 29s12.9 29 29 29h210.7c16.1 0 29-12.9 29-29-1.6-16.1-12.9-29-29-29zM478.2 285.5h-210.7c-16.1 0-29 12.9-29 29s12.9 29 29 29h210.7c16.1 0 29-12.9 29-29-1.6-16.1-12.9-29-29-29zM623 452.8h-357.1c-16.1 0-29 12.9-29 29s12.9 29 29 29h357.1c16.1 0 29-12.9 29-29s-12.9-29-29-29zM716.3 616.9h-450.4c-16.1 0-29 12.9-29 29s12.9 29 29 29h448.8c16.1 0 29-12.9 29-29s-12.9-29-27.4-29zM785.5 391.7c-96.5 0-175.3-78.8-175.3-175.3s78.8-175.4 175.3-175.4 175.3 78.8 175.3 175.3-78.8 175.4-175.3 175.4zM785.5 314.5h49.9v-49.9c0-27.3-22.5-49.9-49.9-49.9-27.3 0-49.9 22.5-49.9 49.9s24.1 49.9 49.9 49.9zM864.3 166.5c0-16.1-12.9-29-29-29h-98.1c-16.1 0-29 12.9-29 29v4.8c0 19.3 16.1 33.8 33.8 33.8h88.5c19.3 0 33.8-16.1 33.8-33.8v-4.8z" />
<glyph unicode="&#xe92d;" glyph-name="levitate-social" d="M783.1 390.3c-96.2 0-174.8-78.6-174.8-174.8s78.6-174.8 174.8-174.8 174.8 78.6 174.8 174.8-78.6 174.8-174.8 174.8zM783.1 313.3h49.7v-49.7c0-27.3-22.5-49.7-49.7-49.7-27.3 0-49.7 22.5-49.7 49.7-0.1 27.2 24 49.7 49.7 49.7zM861.7 165.7c0-16-12.8-28.9-28.9-28.9h-97.8c-16 0-28.9 12.8-28.9 28.9v4.8c0 19.2 16 33.7 33.7 33.7h88.2c19.2 0 33.7-16 33.7-33.7v-4.8zM547.3 218.6c0 128.3 107.5 231 239 231 9.6 0 19.2 0 28.9-1.6v349.7c-1.6 33.7-28.9 59.3-60.9 59.3h-627.2c-33.7 0-60.9-25.7-60.9-59.3l1.6-697.7c0-33.7 27.3-60.9 60.9-60.9h506.8c-54.5 41.6-88.2 107.4-88.2 179.5zM154.3 797.7h139.5v-158.8l-70.6 60.9-69-59.3v157.2zM431.8 154.5h-251.8c-14.4 0-25.7 12.8-25.7 30.5 0 16 11.2 30.5 25.7 30.5h251.8c14.4 0 25.7-12.8 25.7-30.5 0-16.1-11.3-30.5-25.7-30.5zM457.5 321.3h-272.7c-16 0-30.5 12.8-30.5 30.5 0 16 12.8 30.5 30.5 30.5h272.7c16 0 30.5-12.8 30.5-30.5-1.7-16.1-14.5-30.5-30.5-30.5zM184.8 486.5c-16 0-30.5 12.8-30.5 30.5 0 16 12.8 30.5 30.5 30.5h343.2c16 0 30.5-12.8 30.5-30.5 0-17.6-14.4-30.5-30.5-30.5h-343.2z" />
<glyph unicode="&#xe92e;" glyph-name="levitate-studio" d="M574.7 216.2c0 118.4 96.9 215.3 215.3 215.3 15.4 0 30.8-1.5 44.6-4.6v49.2c0 9.2 7.7 16.9 16.9 16.9h66.1c35.4 0 52.3 43.1 24.6 64.6l-284.5 238.3c-84.6 70.7-209.1 70.7-293.7 0l-284.5-239.9c-26.1-23.1-10.8-64.6 24.6-64.6h63.1c9.2 0 16.9-7.7 16.9-16.9l-3.1-333.7c0-50.7 40-92.3 90.7-93.8 0 0 0 0 1.5 0h381.4c-47.6 41.5-79.9 101.5-79.9 169.2zM790 383.8c-92.3 0-167.6-75.4-167.6-167.6 0-92.3 75.4-167.6 167.6-167.6 92.3 0 167.6 75.4 167.6 167.6s-75.3 167.6-167.6 167.6zM790 310h47.7v-47.7c0-26.1-21.5-47.7-47.7-47.7-26.1 0-47.7 21.5-47.7 47.7 0 26.1 23.1 47.7 47.7 47.7zM865.3 168.5c0-15.4-12.3-27.7-27.7-27.7h-93.8c-15.4 0-27.7 12.3-27.7 27.7v4.6c0 18.5 15.4 32.3 32.3 32.3h84.6c18.5 0 32.3-15.4 32.3-32.3 0 0 0-4.6 0-4.6z" />
<glyph unicode="&#xe92f;" glyph-name="likes" d="M512 57.9l-38.6 25.2c-24.8 16.3-112.7 75.8-200.7 155.6-128.7 116.7-197.8 222.6-205.6 314.7-0.9 8.2-1.3 16.7-1.3 25-0.1 8.6 0.2 17.2 1 25.7l0.1 1.2 1.5 11.5c1.8 11.1 4.2 22.2 7.3 32.9 9.5 35.2 27 68.4 50.7 96 1.7 2.2 3.6 4.4 5.5 6.4 48.7 54.9 118.6 86.2 192 85.9 70.7 0 139.2-22.6 187.9-60.7 48.7 38 117.2 60.6 187.9 60.7 0.4 0 0.8 0 1.2 0 72.9 0 142.4-31.2 190.8-85.9 1.9-2 3.8-4.2 5.5-6.4 23.7-27.6 41.2-60.8 50.7-96 3.1-10.7 5.5-21.8 7.3-32.9l0.2-1.3 1.4-10.9c0.9-8.6 1.4-17.3 1.4-25.9 0-8.4-0.4-16.9-1.3-25.4-7.7-92.8-77.6-199.4-207.7-316.9-96.9-87.4-194.3-150.6-199.2-153.7l-38-24.8zM146.4 595.9c-0.5-5.4-0.7-10.9-0.6-16.4v-0.7c0-5.9 0.3-11.8 0.9-17.5l0.1-0.9c5.8-70.3 67.9-161 179.6-262.4 78.4-71.1 156.6-125.2 185.6-144.5 21.2 14 102.3 69.1 183.5 142.4 51.8 46.8 93.4 91.7 123.7 133.7 35.4 49 54.9 92.9 57.9 130.8l0.1 0.9c0.6 5.8 0.9 11.7 0.9 17.5v0.1c0 5.6-0.3 11.2-0.9 16.7l-1.2 9.3c-1.3 7.8-3 15.6-5.2 23.2l-0.2 0.7c-6.4 24.1-18.5 46.8-34.8 65.6l-1.8 2.2c-0.2 0.2-0.4 0.5-0.5 0.6l-0.7 0.7-0.7 0.8c-33.5 38-81.7 59.7-132.3 59.4h-0.2c-63.5 0-125.4-24.2-157.7-61.6l-30.3-35-30.3 35c-32.3 37.4-94.2 61.6-157.7 61.6h-0.2c-50.6 0.2-98.8-21.4-132.3-59.4l-1.4-1.5c-0.2-0.2-0.4-0.4-0.6-0.7l-1.8-2.2c-16.3-18.8-28.4-41.5-34.8-65.6l-0.2-0.7c-2.2-7.6-3.9-15.3-5.2-23.2l-0.7-8.9z" />
<glyph unicode="&#xe930;" glyph-name="likes-selected" d="M958.1 611l-1.4 11.3c-1.7 10.6-4 21-7 31.3-8.9 33-25.1 63.6-47.6 89.5-1.3 1.8-2.8 3.4-4.3 5-45.3 51.3-110.5 80.5-178.9 80.2-84.6 0-164.1-33.3-207-82.8-42.9 49.6-122.6 82.8-207 82.8-68.4 0.3-133.6-28.9-178.9-80.2-1.5-1.6-3-3.3-4.3-5-22.5-25.8-38.7-56.4-47.6-89.5-3-10.3-5.3-20.7-7-31.3l-1.5-11.3c-0.7-7.8-1-15.7-0.9-23.6 0-7.9 0.4-15.9 1.3-23.8 17.9-217 411.5-473.3 428.2-484.2l17.9-11.6 17.9 11.6c16.8 10.7 410.5 267 428.2 484.2 0.8 7.9 1.3 15.8 1.3 23.8-0.1 7.9-0.6 15.8-1.4 23.6v0z" />
<glyph unicode="&#xe931;" glyph-name="listen-audio" d="M140.3 10.7c-22.8 0-41.3 18.7-41.3 41.6v458.2c0 207 166.4 374.8 371.7 374.8h82.6c205.3-0.1 371.7-167.9 371.7-374.8v-458.1c0-23-18.5-41.6-41.3-41.6h-82.6c-68.4 0-123.9 55.9-123.9 124.9v83.2c0 69 55.5 124.9 123.9 124.9h41.3v166.6c0 161-129.4 291.5-289.1 291.5h-82.6c-159.6 0-289.1-130.5-289.1-291.5v-166.6h41.3c68.4 0 123.9-55.9 123.9-124.9v-83.3c0-69-55.5-124.9-123.9-124.9h-82.6zM181.6 260.6v-166.6h41.3c22.8 0 41.3 18.6 41.3 41.6v83.2c0 23-18.5 41.7-41.3 41.7l-41.3 0.1zM842.4 260.6h-41.3c-22.8 0-41.3-18.7-41.3-41.7v-83.3c0-23 18.5-41.6 41.3-41.6h41.3v166.6z" />
<glyph unicode="&#xe932;" glyph-name="menu" d="M118.1 707.4h787.8c29.1 0 52.7 24.8 52.7 55.4s-23.6 55.4-52.7 55.4h-787.8c-29.1 0-52.7-24.8-52.7-55.4s23.6-55.4 52.7-55.4zM905.9 506.9h-787.8c-29.1 0-52.7-24.8-52.7-55.4s23.6-55.4 52.7-55.4h787.8c29.1 0 52.7 24.8 52.7 55.4s-23.6 55.4-52.7 55.4zM905.9 188.7h-787.8c-29.1 0-52.7-24.8-52.7-55.4s23.6-55.4 52.7-55.4h787.8c29.1 0 52.7 24.8 52.7 55.4 0 30.5-23.6 55.4-52.7 55.4z" />
<glyph unicode="&#xe933;" glyph-name="minus-circle" d="M512 864c229.4 0 416-186.6 416-416s-186.6-416-416-416c-229.4 0-416 186.6-416 416s186.6 416 416 416zM668 474h-312c-14.4 0-26-11.6-26-26 0-14.3 11.6-26 26-26h312c14.4 0 26 11.7 26 26 0 14.4-11.6 26-26 26z" />
<glyph unicode="&#xe934;" glyph-name="minus-square" d="M809.6 863.1h-595.2c-64.8 0-117.5-52.7-117.5-117.5v-595.2c0-64.8 52.7-117.5 117.5-117.5h595.2c64.8 0 117.5 52.7 117.5 117.5v595.2c0 64.8-52.7 117.5-117.5 117.5zM896.1 150.4c0-31.7-54.8-86.5-86.5-86.5h-595.2c-31.7 0-85.5 54.8-85.5 86.5v595.2c0 31.7 53.8 85.5 85.5 85.5h595.2c31.7 0 86.5-53.8 86.5-85.5v-595.2zM359.5 462h305.1v-28h-305.1v28z" />
<glyph unicode="&#xe935;" glyph-name="minus-square-disabled" d="M512 864c-229.4 0-416-186.6-416-416s186.6-416 416-416c229.4 0 416 186.6 416 416s-186.6 416-416 416zM512 84c-200.7 0-364 163.3-364 364s163.3 364 364 364c200.7 0 364-163.3 364-364s-163.3-364-364-364zM668 474h-312c-14.4 0-26-11.6-26-26 0-14.3 11.6-26 26-26h312c14.4 0 26 11.7 26 26 0 14.4-11.6 26-26 26z" />
<glyph unicode="&#xe936;" glyph-name="more" d="M165.7 349.1c-54.6 0-99 44.3-99 98.9s44.3 98.9 99 98.9c54.6 0 99-44.3 99-98.9-0.1-54.6-44.4-98.9-99-98.9zM512 349.1c-54.6 0-99 44.3-99 98.9s44.3 98.9 99 98.9c54.6 0 99-44.3 99-98.9s-44.4-98.9-99-98.9zM858.3 349.1c-54.6 0-99 44.3-99 98.9s44.3 98.9 99 98.9c54.6 0 99-44.3 99-98.9s-44.2-98.9-99-98.9z" />
<glyph unicode="&#xe937;" glyph-name="my-proposal" d="M846.6 894.6c18.8 0 35.3-6.8 48.1-20.5 11.8-12 18.5-26 20-42.3l0.3-7.1v-449.7l-2.3-304c0-36.6-27.8-66.1-62.5-69.3l-6.2-0.3h-2.2c-12.9 50.4-44.7 93-89.3 118.4-5 2.5-7.9 4.8-16.6 8.3-15.3 6.2-30.7 10.2-45.7 12.5 38.7 12.1 67.2 48.5 67.2 91 0 52.2-43.1 95.2-95.2 95.2-52.2 0-95.2-43.1-95.2-95.2 0-41.3 27-76.9 64.2-89.9-71.3-12.6-129.6-67.2-148.5-140l-305.1 0.2c-18.8 0-34.9 6.8-48.4 20.5-11.8 12-18.5 26-20 42.3l-0.3 7.1 1.5 752.9c0 36.2 27.5 66.4 62.5 69.6l6.3 0.3h667.4zM631.8 567.8h-348.5v-65.3h348.5v65.3zM697.2 720.3h-413.9v-65.3h413.9v65.3z" />
<glyph unicode="&#xe938;" glyph-name="notice" d="M104 642.9h816v-612.1h-816v612.1zM211.9 550.8v-85.7h599.7v85.7h-599.7zM211.9 385v-85.7h599.7v85.7h-599.7zM211.9 206.4v-85.7h599.7v85.7h-599.7zM511.8 851.1l326.4-244.6h-652.8c0-0.4 326.4 244.6 326.4 244.6zM508.8 777.4l-165.8-130.2h333.3l-167.5 130.2zM448.4 804c0-33.8 27.4-61.3 61.3-61.3s61.3 27.4 61.3 61.3v0c0 33.8-27.4 61.3-61.3 61.3s-61.3-27.5-61.3-61.3v0z" />
<glyph unicode="&#xe939;" glyph-name="pdf" d="M829.4 631.7l-242.8 245.2c-3.9 3.9-8.2 7.3-12.8 10.1-1.2 0.7-2.4 1.4-3.8 2-0.8 0.4-1.7 0.8-2.4 1.1-7.9 3.5-16.5 5.4-25.3 5.4h-301.7c-34.8 0-63.8-28.1-63.8-62.9v-769.2c0-34.8 29-62.9 63.8-62.9h544.6c34.8 0 62.1 28.1 62.1 62.9v524c-0.1 16.6-6.2 32.5-17.9 44.3zM574.5 799.1l175.5-176.3h-175.5v176.3zM784.3 63.4h-544.6v769.2h271.9v-209.8c0-34.8 29-62.9 63.8-62.9h208.9v-496.5zM499.8 392.1h-48.5v-167.8h50.7c48.8 0 82.5 26.6 82.5 84.8 0.1 58.1-33.7 83-84.7 83zM497.2 256.6h-4.9v103.1h4.9c27 0 46.1-11.2 46.1-51 0-39.7-19.1-52.1-46.1-52.1zM355.7 392.1h-58.3v-167.8h40.2v55.9h19.3c35.3 0 66.1 17.7 66.1 57.4-0.1 41.3-30.3 54.5-67.3 54.5zM354.9 311.6h-17.3v49h16.2c19.4 0 30.2-6.1 30.2-23.1-0.1-16.3-9.5-25.9-29.1-25.9zM655.8 288h56.8v33.3h-56.8v37.5h66.4v33.3h-106.6v-167.9h40.2z" />
<glyph unicode="&#xe93a;" glyph-name="picture" d="M794.2 863h-564.4c-91.3 0-166-74.7-166-166v-498c0-91.3 74.7-166 166-166h564.4c91.3 0 166 74.7 166 166v498c0 91.3-74.7 166-166 166zM893.8 199c0-54.8-44.8-99.6-99.6-99.6h-564.4c-54.8 0-99.6 44.8-99.6 99.6v498c0 54.8 44.8 99.6 99.6 99.6h564.4c54.8 0 99.6-44.8 99.6-99.6v-498zM346 481.2c54.8 0 99.6 44.8 99.6 99.6s-44.8 99.6-99.6 99.6-99.6-44.8-99.6-99.6 44.8-99.6 99.6-99.6zM346 614c18.3 0 33.2-14.9 33.2-33.2s-14.9-33.2-33.2-33.2c-18.3 0-33.2 14.9-33.2 33.2s14.9 33.2 33.2 33.2zM825.7 220.6l-187.5 187.6c-26.6 26.6-68.1 26.6-94.6 0l-83-83-38.2 38.2c-26.6 26.6-68.1 26.6-94.6 0l-139.5-139.5c-5-6.6-8.3-14.9-8.3-24.9 0-18.3 14.9-33.2 33.2-33.2 10 0 16.6 3.3 23.2 10l139.4 139.4 139.4-139.4c6.6-6.6 14.9-10 24.9-10 18.3 0 33.2 14.9 33.2 33.2 0 10-5 18.3-10 24.9l-54.8 54.8 83 83 187.6-187.6c6.6-5 13.3-8.3 21.6-8.3 18.3 0 33.2 14.9 33.2 33.2 0.1 8.3-3.2 16.6-8.2 21.6v0z" />
<glyph unicode="&#xe93b;" glyph-name="plus-circle" d="M512.7 861.3c229 0 415.3-186.3 415.3-415.3s-186.3-415.3-415.3-415.3c-228.9 0-415.2 186.3-415.2 415.3s186.3 415.3 415.2 415.3zM512.7 627.7c-14.3 0-26-11.6-26-26v-129.7h-129.7c-14.3 0-26-11.6-26-26 0-14.3 11.6-26 26-26h129.8v-129.8c0-14.3 11.6-26 26-26 14.3 0 26 11.6 26 26v129.8h129.8c14.3 0 26 11.6 26 26 0 14.3-11.6 26-26 26h-129.9v129.7c0 14.4-11.6 26-26 26z" />
<glyph unicode="&#xe93c;" glyph-name="plus-square" d="M808.9 862.2h-593.8c-64.7 0-117.3-52.6-117.3-117.3v-593.7c0-64.7 52.6-117.3 117.3-117.3h593.7c64.7 0 117.3 52.6 117.3 117.3v593.7c0.1 64.6-52.6 117.3-117.2 117.3zM896.2 151.1c0-31.6-55.7-87.3-87.3-87.3h-593.8c-42.3 0-84.3 55.7-84.3 87.3l-4 593.7c0 31.6 56.7 87.3 88.3 87.3h593.7c31.6 0 87.3-55.7 87.3-87.3v-593.7zM528.9 600.2h-29.9v-135.7h-137.2v-29.9h137.2v-138.8h29.9v138.8h133.3v29.9h-133.3z" />
<glyph unicode="&#xe93d;" glyph-name="proposal-confirmed" d="M178.9 892.6h668c18.8 0 35.3-6.8 48.1-20.5 11.8-12 18.5-26 20-42.3l0.3-7.1v-450l-2.3-304.3c0-36.6-27.8-66.2-62.6-69.3l-6.2-0.3h-63.9l-1.1 35 0.4 123.3h75.9c10.1 0 18.8 5.7 22.9 15.2 3.2 8.1 2.6 16.9-2.2 24l-2.7 3.4-157.7 144.7c-5.3 4.9-11.3 8-18.8 8-5.7-0.6-10.9-2.2-15.3-5.7l-3.1-3-155.7-144.9c-6.4-7.6-8.3-17.5-4.1-27 3.5-8.2 10.1-13.5 18.6-14.9l4.4-0.3h76.2l-0.4-123.3v-34.6l-440.2 0.3c-18.8 0-35 6.8-48.5 20.5-11.8 12-18.5 26-20 42.3l-0.3 7.1 1.5 753.7c0 36.3 27.5 66.5 62.5 69.7l6.3 0.3zM631.9 565.6h-348.8v-65.4h348.9v65.4zM697.3 718.2h-414.2v-65.4h414.3v65.4z" />
<glyph unicode="&#xe93e;" glyph-name="reading" d="M512 831.6c131 0 242.2-70.7 333.4-187.3 39.5-50.7 73.4-107.3 101-168.5 3.5-7.8 5.9-13.6 7.2-16.9l7-18.1-8.2-17.3c-1.5-3.1-4.3-8.7-8.2-16.1-31.4-58.7-68.1-113.1-109.3-162.1-95.3-112.7-203.4-180.9-322.9-180.9-119.4 0-227.6 68.3-322.8 180.9-41.3 49-77.9 103.3-109.3 162-2.8 5.3-5.6 10.7-8.2 16.1l-8.3 17.3 7 18c4.8 12.3 13.9 32.9 27.4 58.9 23.4 45.3 50.5 87.7 80.7 126.6 91.3 116.7 202.5 187.4 333.5 187.4v0zM872.4 477c-21.2 41-45.7 79.4-73.1 114.6-80.3 102.5-175.8 163.3-287.3 163.3-111.4 0-207-60.8-287.2-163.3-34.6-44.4-64.5-93.9-89-147.2 28.3-52.2 61.1-100.5 97.9-144.2 84.3-99.9 178.1-159 278.3-159 100.3 0 194 59.2 278.3 159 36.8 43.7 69.6 92.1 97.9 144.3-4.5 9.8-9.8 20.8-15.8 32.5v0zM512 623.8c96.3 0 175.8-79.4 175.8-175.8 0-97.2-77.6-175.8-175.8-175.8-97.2 0-175.8 77.6-175.8 175.8 0.1 97.2 77.6 175.8 175.8 175.8v0zM512 553.5c-59.2 0-105.5-46.9-105.5-105.4 0-59.2 46.9-105.5 105.5-105.5 59.2 0 105.5 46.9 105.5 105.5 0 57.4-48 105.4-105.5 105.4v0z" />
<glyph unicode="&#xe93f;" glyph-name="references-document" d="M880.5 608v226.4c-18 14.4-39.5 21.6-64.7 21.6h-604c-64.7 0-115-50.3-115-115v-586c0-64.7 50.3-115 115-115h600.3c64.7 0 115 50.3 115 115v453h-46.6zM797.8 126.3h-273.2c-14.4 0-28.8 14.4-28.8 28.8s14.4 28.8 28.8 28.8h273.2c14.4 0 28.8-14.4 28.8-28.8-0.1-18-14.4-28.8-28.8-28.8zM797.8 252.1h-273.2c-14.4 0-28.8 14.4-28.8 28.8s14.4 28.8 28.8 28.8h273.2c14.4 0 28.8-14.4 28.8-28.8-0.1-14.4-14.4-28.8-28.8-28.8zM797.8 381.5h-273.2c-14.4 0-28.8 14.4-28.8 28.8s14.4 28.8 28.8 28.8h273.2c14.4 0 28.8-14.4 28.8-28.8-0.1-18-14.4-28.8-28.8-28.8zM546.1 608c-10.8 0-32.4-21.6-43.1-32.4-21.6-21.6-43.1-39.5-79.1-39.5h-266v219.2h668.6v-21.6c0 0 0-82.7 0-125.8h-280.4z" />
<glyph unicode="&#xe940;" glyph-name="references-historical" d="M223.1 224.7c-93.6 0-126.1-36-126.1-93.6 0-54 32.4-93.6 126.1-93.6s126.1 36 126.1 93.6c-0.1 54-32.5 93.6-126.1 93.6v0zM911 801h-72c-10.8 0-18-7.2-18-18v-93.6h-36v129.6c0 10.8-7.2 18-18 18h-72c-10.8 0-18-7.2-18-18v-93.6h-36v93.6c0 10.8-7.2 18-18 18h-72c-10.8 0-18-7.2-18-18v-93.6h-36v57.6c0 10.8-7.2 18-18 18h-72c-10.8 0-18-7.2-18-18v-93.6h-36v75.6c0 54-32.4 93.6-126.1 93.6s-126.1-36-126.1-93.6v-543.9c28.8 25.2 68.4 36 126.1 36s97.2-10.8 126.1-36v36h36v-93.6c0-10.8 7.2-18 18-18h72c10.8 0 18 7.2 18 18v129.6h36v-93.6c0-10.8 7.2-18 18-18h72c10.8 0 18 7.2 18 18v93.6h36v-93.6c0-10.8 7.2-18 18-18h72c10.8 0 18 7.2 18 18v54h36v-93.6c0-10.8 7.2-18 18-18h72c10.8 0 18 7.2 18 18v623.1c0 10.8-7.2 18-18 18v0zM385.1 296.7h-36v356.6h36v-356.6zM529.2 332.7h-36v360.2h36v-360.2zM673.3 332.7h-36v360.2h36v-360.2zM817.3 296.7h-36v356.6h36v-356.6z" />
<glyph unicode="&#xe941;" glyph-name="references-history" d="M934.8 468.6c0 235.6-189.3 426.6-422.9 426.6s-422.7-191-422.7-426.6c0-154.2 81.1-289.2 202.3-364.1-1.8-21.1-2.7-42.3-2.7-64.1v-2.4c1.8-28.4 18.6-34.3 32.6-34.3 17.1 0 26.4 9.5 26.4 26.6 0.2 15.3 0.7 30.1 1.3 44.8v2.2c101.1-42.3 214.7-43.7 316.7-3.5-6.4 81.3-21.9 160-46.3 234.5v0.2c-17.7 61.5-45.4 106.7-82.5 134.6-23.5-8.9-47.6-23.9-71.8-44.8-69.6-74-108.6-181.7-116.1-320.9-19.7 8.4-39 18.2-57.4 29.5 3.8 44.1 12.2 87.5 24.8 129.9 18.6 60.9 47 118.3 84 169.7l0.2 0.2c21.5 25 45.4 47.6 71.6 67.6-35.5 19.1-64.5 41.4-85.8 66.5-22.4 24.2-35.9 43.9-41.2 60.1-40.3-16.8-52.5-18.8-57.8-18.8-11.1 0-24.6 5.8-26.4 33.5 0 7.3 6.6 16.8 55.6 36.1h0.2c114.6 41.2 142.7 54.1 148.5 58.1v3.1h4.4c1.6 1.6 6.9 11.1 6.9 67.4v1.1l0.4 1.1c3.3 7.5 11.3 16.4 29.5 16.4 21.9 0 27.9-9.8 29-18v-0.5c1.6-64.5 10.2-67.8 10.4-67.8l1.1-0.2 0.9-0.7c4.9-4.2 35.5-17.3 152.7-55.4 41.9-11.1 61.4-24.2 61.4-40.8 0-17.7-9.7-27.5-27.3-27.5-10.2 0-36.3 7.8-79.3 23.7-0.9-43-16.9-80.2-47.4-110.8-6.4-10-14.4-19.1-23.5-26.6 31.9-29.9 55.6-65.4 70.5-105.5 36.6-95.5 59.2-185.3 67.2-267.9-18.4-10.6-37.5-19.9-57-27.7 0-0.7 0-1.3 0.2-2.2h-0.2c0.9-12.4 1.8-25 2.2-37.7v-0.7l0.2-0.7c7.3-21.1 16.8-31.2 28.8-31.2 12.2 0 27.3 5.8 29 32.6v2.4c0 20.6-1.1 41.4-3.1 63.2 127.3 73.8 212.4 211.7 212.4 369.7v0zM603.3 631.9c-34.6 13.7-66.3 24.8-94.4 33.2-29.3-10.6-67.4-24.8-113.7-42.1 8.4-7.7 16.4-15.7 23.9-24.4l0.2-0.2c26.4-34.3 49.6-56.7 68.9-66.5 13.3-4.2 26.1-9.5 38.6-16 5.8 3.8 12 7.7 18.8 11.7 36.8 27.5 56.1 62.3 57.4 103.5l0.3 0.8z" />
<glyph unicode="&#xe942;" glyph-name="references-leader" d="M513.7 500.1c57.5 0 104.2 46.7 104.2 100.6 0 7.2 0 14.4-3.6 21.6-10.8-3.6-21.6-3.6-35.9-3.6-50.3 0-93.4 21.6-122.1 50.3-7.2-28.7-21.6-57.5-46.7-79 3.5-46.8 50.2-89.9 104.1-89.9zM815.5 855.7h-603.5c-64.7 0-115-50.3-115-115v-585.5c0-64.7 50.3-115 115-115h599.9c64.7 0 115 50.3 115 115v585.6c3.5 61-50.4 114.9-111.4 114.9zM513.7 722.8c68.3 0 125.7-53.9 125.7-122.1s-57.4-122.2-125.7-122.2-125.7 53.9-125.7 122.2 57.5 122.1 125.7 122.1zM495.7 442.6v14.4c0 3.6 3.6 7.2 7.2 7.2h18c3.6 0 7.2-3.6 7.2-7.2v-14.4c0-3.6 0-3.6-3.6-7.2l14.4-57.5-25.1-75.4-28.7 79 18 53.9c-3.8 3.6-7.4 7.2-7.4 7.2zM283.8 245c18 100.6 61.1 183.2 143.7 215.5l86.2-211.9 86.2 211.9c86.2-32.3 129.3-115 143.7-215.5 18-100.5-477.8-100.5-459.8 0z" />
<glyph unicode="&#xe943;" glyph-name="references-library" d="M901.7 777.3c-3.9 15.6-11.7 31.2-19.5 42.9-7.8 15.6-19.5 23.4-31.2 31.2s-27.3 11.7-42.9 11.7h-152v-358.5l-70.1 101.2-74-101.3v358.5c-27.3 0-50.7 0-77.9 0h-175.4c-46.8 0-81.8-11.7-105.2-31.2s-39-54.6-39-101.3v-530c0-23.4 0-46.8 3.9-66.3s11.7-39 19.5-54.6c7.8-15.6 19.5-27.3 35.1-35.1s31.2-11.7 50.7-11.7h662.5c11.7 0 19.5 3.9 19.5 15.6 0 7.8-3.9 11.7-7.8 11.7-3.9 3.9-7.8 3.9-11.7 3.9h-615.8c-11.7 0-23.4 3.9-35.1 11.7s-23.4 15.6-35.1 31.2c-11.7 15.6-19.5 27.3-23.4 46.8-7.8 19.5-7.8 39-7.8 62.4 0 19.5 3.9 39 7.8 54.6s11.7 27.3 19.5 42.9c7.8 11.7 19.5 23.4 31.2 31.2s23.4 11.7 39 11.7h35.1c19.5 0 46.8 0 74 0 31.2 0 66.3 0 105.2 0h116.9c93.5 0 194.9 0 311.8 0v366.2c0 19.5-3.9 39-7.8 54.6zM847.1 198.6c0 36.4 15.6 86.3 61.2 87.6-0.4 0-0.8 0-1.3 0h-606.5c-46.6 0-67.7-39.5-67.7-87.7v0c0-48.2 21.1-87.7 67.7-87.7h606.5c0.8 0 1.6 0 2.5 0-46.2 0.8-62.4 48.2-62.4 87.8z" />
<glyph unicode="&#xe944;" glyph-name="references-library-search" d="M388.5 860.9h-274v-756.4h258.6c38.6 0 123.5-23.2 123.5-69.5 0 0 0 358.9 0 717.8 0 42.5-57.9 108.1-108.1 108.1zM635.5 860.9c-50.2 0-108.1-65.6-108.1-104.2 0-358.9 0-717.8 0-717.8 0 46.3 84.9 69.5 123.5 69.5h258.6v752.5h-274z" />
<glyph unicode="&#xe945;" glyph-name="references-map" d="M305.6 500.3c42.8-64.1 106.9-135.4 146.1-174.6v0l7.1-7.1c14.3-14.3 35.6-21.4 57-21.4s39.2 7.1 53.5 21.4v0l7.1 7.1c39.2 35.6 106.9 110.5 153.2 174.6v0h64.1c24.9 0 46.3-14.3 53.5-39.2v0l74.8-274.4c3.6-14.3 3.6-28.5-3.6-42.8-7.1-14.3-21.4-21.4-35.6-24.9v0l-292.2-71.3c-17.8-3.6-35.6 0-49.9 10.7v0l-142.4 103.4c-14.3 10.7-32.1 14.3-49.9 10.7v0l-178.2-42.8c-42.8-10.7-82 28.5-67.7 67.7v0l74.8 267.3c7.1 21.4 28.5 39.2 57 39.2v0h71.3v-3.6zM515.9 849.6c114 0 206.7-89.1 206.7-203.1 0-124.7-124.7-235.2-188.9-295.8-10.7-10.7-24.9-10.7-35.6 0-64.1 60.6-188.9 171.1-188.9 292.2 0 117.6 92.6 206.7 206.7 206.7zM515.9 724.9c-42.8 0-74.8-35.6-74.8-74.8s35.6-74.8 74.8-74.8c28.5 0 53.5 14.3 67.7 39.2 14.3 24.9 14.3 53.5 0 74.8s-39.2 35.6-67.7 35.6z" />
<glyph unicode="&#xe946;" glyph-name="references-notification" d="M817.2 672.2h-86.4l-212.5 176.4c-7.2 7.2-18 7.2-21.6 0l-212.4-176.4h-72c-64.9 0-115.3-50.5-115.3-115.3v-399.7c0-64.8 50.4-115.2 115.2-115.2h601.4c64.8 0 115.2 50.4 115.2 115.2v399.7c3.6 64.8-50.4 115.3-111.6 115.3zM503.9 776.6l133.2-111.6h-266.4l133.2 111.6zM705.6 164.4h-381.7c-14.4 0-28.8 14.4-28.8 28.8s14.4 28.8 28.8 28.8h385.3c14.4 0 28.8-14.4 28.8-28.8s-14.4-28.8-32.4-28.8zM705.6 315.7h-381.7c-14.4 0-28.8 14.4-28.8 28.8s14.4 28.8 28.8 28.8h385.3c14.4 0 28.8-14.4 28.8-28.8 0-18-14.4-28.8-32.4-28.8zM705.6 466.9h-381.7c-14.4 0-28.8 14.4-28.8 28.8s14.4 28.8 28.8 28.8h385.3c14.4 0 28.8-14.4 28.8-28.8 0-18-14.4-28.8-32.4-28.8z" />
<glyph unicode="&#xe947;" glyph-name="references-political" d="M816.2 856.7h-605c-64.8 0-115.2-50.4-115.2-115.2v-587c0-64.8 50.4-115.2 115.2-115.2h601.4c64.8 0 115.2 50.4 115.2 115.2v587c3.6 61.2-50.4 115.2-111.6 115.2zM358.9 608.2v0l90 21.6 39.6 68.4c3.6 10.8 14.4 18 25.2 18s21.6-3.6 25.2-14.4l43.2-68.4 86.4-21.6c0 0 0 0 3.6 0 10.8-3.6 18-7.2 21.6-18s0-21.6-7.2-25.2l-64.8-61.2 21.6-79.2c0 0 0 0 0-3.6 3.6-10.8 3.6-21.6-3.6-28.8s-18-10.8-28.8-3.6c0 0 0 0-3.6 0l-93.6 21.6-93.6-25.2c0 0 0 0-3.6 0-10.8-3.6-21.6-3.6-28.8 3.6s-10.8 18-3.6 28.8c0 0 0 0 0 3.6l21.6 79.2-57.6 57.6c-7.2 3.6-8.6 13.8-8.2 25.2 0.5 14.9 8.2 21.6 19 21.6zM751.4 284.2l-46.8-79.2c-3.6-3.6-3.6-7.2-10.8-10.8-3.6 0-3.6-3.6-7.2-3.6h-3.6c0 0-86.4 25.2-169.2 25.2s-169.2-25.2-169.2-25.2h-3.6c-3.6 0-7.2 0-10.8 3.6s-3.6 7.2-7.2 14.4l-46.8 75.6c-3.6 7.2-3.6 14.4 0 25.2 3.6 3.6 3.6 3.6 7.2 7.2l39.6 25.2c3.6 3.6 10.8 3.6 14.4 3.6 3.6-3.6 10.8-3.6 14.4-10.8 3.6-10.8 3.6-25.2-7.2-28.8l-21.6-14.4 25.2-43.2c25.2 7.2 93.6 21.6 162 21.6s133.2-14.4 162-21.6l25.2 43.2-21.6 14.4c-10.8 3.6-14.4 18-7.2 28.8 3.6 3.6 7.2 10.8 14.4 10.8 3.6 3.6 10.8 0 14.4-3.6l39.6-25.2c3.6-3.6 3.6-3.6 7.2-7.2 10.8-10.8 10.8-18 7.2-25.2z" />
<glyph unicode="&#xe948;" glyph-name="references-proposal" d="M817.2 856.7h-605c-64.8 0-115.2-50.4-115.2-115.2v-587c0-64.8 50.4-115.2 115.2-115.2h381.7v154.8h-50.4c-25.2 0-39.6 32.4-18 50.4l133.2 115.2c10.8 10.8 25.2 10.8 36 0l133.3-115.2c21.6-18 7.2-50.4-18-50.4h-50.4v-154.8h54c64.8 0 115.2 50.4 115.2 115.2v587c3.6 61.2-50.4 115.2-111.6 115.2zM536.3 475h-277.3c-18 0-32.4 14.4-32.4 32.4s14.4 32.4 32.4 32.4h277.3c18 0 32.4-14.4 32.4-32.4s-14.4-32.4-32.4-32.4zM644.3 644.3h-385.3c-18 0-32.4 14.4-32.4 32.4s14.4 32.4 32.4 32.4h385.3c18 0 32.4-14.4 32.4-32.4 0.1-18-14.3-32.4-32.4-32.4z" />
<glyph unicode="&#xe949;" glyph-name="references-regulations" d="M193.9 842.6c-50.2 10.8-96.8-25.1-96.8-71.7v-552.1c0-35.9 21.5-64.5 57.4-71.7l358.5-93.3v706.3l-319.1 82.5zM452.1 283.3c-3.6-14.3-21.5-25.1-35.9-21.5l-215.1 57.4c-14.3 3.6-25.1 17.9-21.5 35.9 3.6 14.3 17.9 25.1 35.9 21.5l215.1-57.4c14.3-3.7 25-18 21.5-35.9zM452.1 433.9c-3.6-14.3-21.5-25.1-35.9-21.5l-215.1 57.4c-14.3 3.6-25.1 17.9-21.5 35.9 3.6 14.3 17.9 25.1 35.9 21.5l215.1-57.4c14.3-7.3 25-21.6 21.5-35.9zM452.1 580.9c-3.6-14.3-21.5-25.1-35.9-21.5l-215.1 57.4c-14.3 3.6-25.1 17.9-21.5 35.9 3.6 14.3 17.9 25.1 35.9 21.5l215.1-57.4c14.3-3.7 25-18 21.5-35.9zM835.7 842.6l-322.7-82.5v-709.9l358.5 93.2c32.3 7.2 57.4 39.4 57.4 71.7v555.8c0 50.2-46.6 86-93.2 71.7zM835.7 322.7l-215.1-57.4c-14.3-3.6-32.3 7.2-35.9 21.5-3.6 17.9 7.2 32.3 21.5 35.9l215.1 57.4c17.9 3.6 32.3-7.2 35.9-21.5 3.6-21.5-7.2-32.3-21.5-35.9zM835.7 469.7l-215.1-57.4c-14.3-3.6-32.3 7.2-35.9 21.5-3.6 17.9 7.2 32.3 21.5 35.9l215.1 57.4c17.9 3.6 32.3-7.2 35.9-21.5 3.6-18-7.2-32.3-21.5-35.9zM835.7 616.7l-215.1-57.4c-14.3-3.6-32.3 7.2-35.9 21.5-3.6 17.9 7.2 32.3 21.5 35.9l215.1 57.4c17.9 3.6 32.3-7.2 35.9-21.5 3.6-18-7.2-32.3-21.5-35.9z" />
<glyph unicode="&#xe94a;" glyph-name="references-report" d="M839.4 630.5c0 17.9-14.3 35.8-32.2 35.8h-200.4v153.9c0 17.9-14.3 35.8-35.8 35.8h-272c-64.4 0-114.5-50.1-114.5-114.5v-254.1h654.9v143.1zM488.7 584h-171.8c-14.3 0-28.6 10.7-28.6 28.6s14.3 28.6 28.6 28.6h171.8c14.3 0 28.6-10.7 28.6-28.6s-10.8-28.6-28.6-28.6zM513.7 694.9c-3.6-7.2-14.3-14.3-25.1-14.3h-171.7c-14.3 0-28.6 10.7-28.6 28.6s14.3 28.6 28.6 28.6h171.8c10.7 0 21.5-3.6 25.1-14.3 7.1-7.1 7.1-17.8-0.1-28.6zM635.4 820.2v-125.3h171.8zM814.3 451.6h-601.2c-64.4 0-114.5-50.1-114.5-114.5v-182.5c0-64.4 50.1-114.5 114.5-114.5h597.7c64.4 0 114.5 50.1 114.5 114.5v182.5c3.6 64.4-50.1 114.5-111 114.5zM692.7 215.4c0-39.4-32.2-71.6-71.6-71.6h-214.8c-39.4 0-71.6 32.2-71.6 71.6v64.4c0 39.4 32.2 71.6 71.6 71.6h214.7c39.4 0 71.6-32.2 71.6-71.6v-64.4zM599.6 297.7h-168.2c-21.5 0-35.8-14.3-35.8-35.8v-32.2c0-21.5 14.3-35.8 35.8-35.8h168.2c21.5 0 35.8 14.3 35.8 35.8v32.2c0 21.5-17.9 35.8-35.8 35.8z" />
<glyph unicode="&#xe94b;" glyph-name="references-research" d="M817.2 856.7h-605c-64.8 0-115.2-50.4-115.2-115.2v-587c0-64.8 50.4-115.2 115.2-115.2h601.4c64.8 0 115.2 50.4 115.2 115.2v587c3.6 61.2-50.4 115.2-111.6 115.2zM514.7 370.6c0-28.8-36-50.4-64.8-32.4l-82.8 46.8-82.8-46.8c-28.8-14.4-64.8 3.6-64.8 32.4v349.3h295.3v-349.3z" />
<glyph unicode="&#xe94c;" glyph-name="references-social" d="M764 370.9c-93.2 0-165-75.3-165-165s75.3-165 165-165 165 75.3 165 165-71.7 165-165 165zM835.8 191.6c-35.9-50.2-93.2-71.7-93.2-71.7-7.2 57.4-25.1 46.6-43 82.5-17.9 32.3 7.2 53.8 7.2 53.8 32.3 28.7 64.6-10.8 64.6-10.8 32.3 35.9 64.6 7.2 64.6 7.2 28.4-25.1-0.2-61-0.2-61zM760.4 431.9c32.3 0 64.6-7.2 93.2-21.5v387.3c0 32.3-25.1 57.4-53.8 57.4h-645.4c-32.3 0-57.4-25.1-57.4-53.8v-702.9c0-32.3 25.1-57.4 57.4-57.4h451.9c-43 43-71.7 100.4-71.7 165-0.1 125.4 100.3 225.9 225.8 225.9zM179.5 797.7h129.1v-190.1l-64.6 57.4-64.6-53.8v186.5zM437.7 148.6h-233.1c-14.3 0-25.1 10.8-25.1 28.7 0 14.3 10.8 28.7 25.1 28.7h233.1c14.3 0 25.1-10.8 25.1-28.7-3.6-14.4-14.4-28.7-25.1-28.7zM459.2 302.8h-251c-14.3 0-28.7 10.8-28.7 28.7 0 14.3 10.8 28.7 28.7 28.7h251c14.3 0 28.7-10.8 28.7-28.7 0-18-14.3-28.7-28.7-28.7zM208.2 453.4c-14.3 0-28.7 10.8-28.7 28.7 0 14.3 10.8 28.7 28.7 28.7h315.6c14.3 0 28.7-10.8 28.7-28.7 0-14.3-14.3-28.7-28.7-28.7h-315.6z" />
<glyph unicode="&#xe94d;" glyph-name="references-speaker" d="M816.8 856.2h-604.2c-64.7 0-115.1-50.4-115.1-115.1v-586.3c0-64.7 50.4-115.1 115.1-115.1h143.9l-50.4 269.8h413.6l-50.4-269.8h143.9c64.7 0 115.1 50.4 115.1 115.1v586.3c3.6 61.2-50.3 115.1-111.5 115.1zM518.3 755.5c39.6 0 75.5-32.4 75.5-71.9 0-39.6-32.4-71.9-75.5-71.9-39.6 0-75.5 32.4-75.5 71.9 0 39.6 32.3 71.9 75.5 71.9zM539.9 586.5c0-7.2-7.2-14.4-10.8-18s-10.8-3.6-14.4-3.6c-3.6 0-10.8 0-14.4 3.6s-10.8 10.8-10.8 18c0 7.2 14.4 7.2 21.6 7.2 14.4 0 28.8 0 28.8-7.2zM363.6 546.9c3.6 18 18 32.4 39.6 32.4l64.7 10.8 32.4-71.9 3.6 36c0 0 0 3.6 3.6 3.6h18c0 0 3.6 0 3.6-3.6l3.6-36 32.4 71.9 64.7-10.8c18-3.6 32.4-14.4 39.6-32.4l18-68.3h-338.1l14.3 68.3zM773.7 367.1c-3.6-21.6-25.2-39.6-50.4-39.6h-417.2c-25.2 0-46.8 18-50.4 39.6l-7.2 64.7c0 10.8 10.8 21.6 25.2 21.6h482c14.4 0 25.2-10.8 25.2-21.6l-7.2-64.7z" />
<glyph unicode="&#xe94e;" glyph-name="references-study" d="M599.5 603.8c35.1 25.9 58 67 58 111.8 0 57.5-35.9 107.8-86.2 129.3-50.3 21.6-115 10.8-154.5-28.7s-53.9-100.6-32.3-154.5c9.8-24.5 25.6-44.6 45.3-59.2-18.2-4.5-36-11.6-52.5-19.9 50.3-14.4 97-39.5 140.1-68.3 43.1 28.7 93.4 53.9 140.1 68.3-18.2 9.2-37.8 16.8-58 21.2zM194 306v97c-3.6 25.2-25.2 46.7-50.3 46.7s-46.7-21.5-46.7-46.7v-97c0-25.2 21.6-46.7 46.7-46.7s46.7 21.6 50.3 46.7zM154.5 546.7c-7.2 0-14.4-3.6-18-7.2-3.6-7.2-7.2-14.4-7.2-21.6v-25.2c53.9 0 97-43.1 97-100.6v-100.6c0-53.9-43.1-100.6-97-100.6v-25.2c0-7.2 3.6-14.4 7.2-18s10.8-7.2 18-7.2c125.8 0 251.5-39.5 344.9-100.6v424c-97 54.1-190.4 97.2-344.9 82.8zM880.3 449.7c-25.2 0-46.7-21.6-46.7-46.7v-97c0-25.2 21.6-46.7 46.7-46.7 25.2 0 46.7 21.6 46.7 46.7v97c0 25.2-21.6 46.7-46.7 46.7zM801.2 291.6v100.6c0 53.9 43.1 100.6 97 100.6v25.2c0 7.2-3.6 14.4-7.2 18s-10.8 7.2-18 7.2c-122.2 14.4-247.9-25.2-344.9-82.6v-420.4c93.4 61.1 219.2 100.6 344.9 100.6 7.2 0 14.4 3.6 18 7.2s7.2 10.8 7.2 18v25c-53.8 0-97 43.1-97 100.6z" />
<glyph unicode="&#xe94f;" glyph-name="references-system" d="M305.9 822.6c-61.2 0-115.3-54-115.3-115.3v-288.1c21.6 7.2 46.8 10.8 72 10.8 129.7 0 226.9-104.4 226.9-226.9 0-50.4-18-97.2-46.8-136.9l392.6-21.6v104.5h93.7v709.5l-623.1-36zM637.3 390.4l-234.2 21.6c-14.4 0-25.2 14.4-21.6 32.4 0 14.4 14.4 28.8 28.8 25.2l234.2-21.6c14.4 0 25.2-14.4 21.6-32.4-7.2-14.4-18-25.2-28.8-25.2zM637.3 512.8l-234.1 21.6c-14.4 0-25.2 14.4-21.6 32.4 0 14.4 14.4 28.8 28.8 25.2l234.1-21.6c14.4 0 25.2-14.4 21.6-32.4-7.2-14.4-18-28.8-28.8-25.2zM882.2 239.1v0h-46.8v450.2l-500.6 39.6c-18 0-32.4 3.6-43.2 10.8-3.6 3.6-7.2 3.6-7.2 7.2s0 3.6 0 3.6v3.6c3.6 3.6 7.2 7.2 18 10.8 7.2 7.2 18 7.2 32.4 7.2v0l547.5 14.4v-547.4zM262.7 368.8c-93.7 0-165.7-75.7-165.7-165.7s75.6-165.7 165.7-165.7 165.7 75.6 165.7 165.7-72.1 165.7-165.7 165.7zM237.5 95v0c-3.6 0-10.8 3.6-10.8 7.2l-21.6 162.1c0 3.6 3.6 7.2 7.2 10.8v0c3.6 0 7.2-3.6 10.8-7.2l21.6-162.1c0-7.2-3.6-10.8-7.2-10.8zM244.7 203.1l-10.8 72c32.4 0 64.8-18 100.8 3.6-7.2-25.2-14.4-28.8-25.2-46.8 14.4-14.4 21.6-18 32.4-25.2-32.4-21.6-64.8-3.6-97.2-3.6z" />
<glyph unicode="&#xe950;" glyph-name="references-topics" d="M817.2 856.7h-605c-64.8 0-115.2-50.4-115.2-115.2v-587c0-64.8 50.4-115.2 115.2-115.2h565.3c18 0 28.8 14.4 28.8 28.8s-14.4 28.8-28.8 28.8h-543.7c-43.2 0-79.2 39.6-72 82.8 7.2 36 39.6 61.2 75.6 61.2 104.4 0 410.5 0 576.2 0 64.8 0 115.2 50.4 115.2 115.2v385.4c3.6 61.2-50.4 115.2-111.6 115.2zM460.7 680.3l54 108 54-108 122.4-18-86.4-86.4 21.6-118.9-108 57.6-108-57.6 21.6 118.8-93.6 86.4 122.4 18.1zM720 327.4h-410.5c-14.4 0-28.8 14.4-28.8 28.8s14.4 28.8 28.8 28.8h410.5c14.4 0 28.8-14.4 28.8-28.8s-14.4-28.8-28.8-28.8z" />
<glyph unicode="&#xe951;" glyph-name="set-font-size" d="M659.6 586.1h98.1l201.3-519.8h-92.2l-47.9 130.3h-220.5l-47.9-130.3h-92.2l201.3 519.8zM624.2 266.5h168.9l-82.6 227.9h-2.9l-83.4-227.9zM526.4 366.2h-213l124.4 340.2h4.4l104.3-287.9 65.2 169.1-99.1 255.7h-146.4l-300.5-776h137.6l71.5 194.6h211.4z" />
<glyph unicode="&#xe952;" glyph-name="share" d="M809.4 182.5l0.1-8c0-14.1-8.5-24.6-22.6-24.6h-558.1c-8 0-14.5 6.5-14.5 14.5v558.3c0 10.7 8.7 19.4 19.4 19.4h149.8v89.8h-204.8c-28.3 0-51.2-22.9-51.2-51.2v-665.4c0-28.3 22.9-51.2 51.2-51.2h665.4c28.3 0 51.2 22.9 51.2 51.2v204.7h-85.8v-137.5zM858 831.9h-230.3c-21.2 0-38.4-23.2-38.4-44.4s17.2-43.4 38.4-43.4h139.5l-320.3-316.3c-15-15-15-43.3 0-58.3s44.3-13 59.3 2l306.5 305.5v-113.9c0-21.2 22.2-38.4 43.4-38.4s40.4 17.2 40.4 38.4v230.4c-0.1 21.1-17.3 38.4-38.5 38.4z" />
<glyph unicode="&#xe953;" glyph-name="simplified-chinese" d="M884.3 0.9h-741.3c-24.1 0-43.7 19.6-43.7 43.7v808.7c0 24.1 19.6 43.7 43.7 43.7h741.3c24.1 0 43.7-19.6 43.7-43.7v-808.7c0-24.1-19.6-43.7-43.7-43.7zM149.3 50.9h728.7v796.1h-728.7v-796.1zM319.1 655.6c-16.6-27.8-34.3-52.6-53.1-74.6l-59.1 38.3c39.9 43.9 68.3 90.9 85.3 141.1l67.2-14.8-10.8-28.9h162v-61.2h-84c13.9-19.3 24.6-37 32.3-53.1l-61.8-23.4c-11.2 24.6-25.5 50.2-43 76.6h-35zM251.3 499.1h69.9v-363.6h-69.9v363.6zM338 605.9c35.4-32.3 62.3-60 80.6-83.3l-51.8-35.6c-22.8 29.1-49.5 58.2-80 87.4l51.2 31.5zM387 472.2h257.4v-264.8h-257.4v264.8zM453.5 368.7h125.7v47h-125.7v-47zM579.2 265.2v48.4h-125.7v-48.4h125.7zM648.4 138.9l-16.8 63.1 59.1-2c13.9 0 20.8 9.6 20.8 28.9v285.6h-244.5v63.8h313.8v-368.3c0-47.5-25.5-71.2-76.6-71.2h-55.8zM605.4 655.6c-10.8-20.6-24.4-42.3-41-65.2l-59.1 38.3c32.7 40.8 55.8 84.4 69.2 131l66.5-14.7c-4.5-12.5-7.6-22-9.4-28.2h185.5v-61.2h-96.1c9.8-13.4 19.7-29.3 29.6-47.7l-61.8-23.5c-13.4 27.3-27.1 51.1-41 71.2h-42.4z" />
<glyph unicode="&#xe954;" glyph-name="sort-falling" d="M561.7 189.5v705.9h-99.4v-700.9l-154.1 154.1-69.6-74.6 273.4-273.4 273.4 273.4-69.6 69.6-154.1-154.1z" />
<glyph unicode="&#xe955;" glyph-name="sort-rising" d="M562 705.3v-704.4h-100v704.4l-154.8-154.9-69.9 69.9 274.7 274.8 274.8-274.8-69.9-69.9-154.9 154.9z" />
<glyph unicode="&#xe956;" glyph-name="statistics" d="M892.2 107.8h-762.9c-17.6 0-31.8-16.8-31.8-37.5s14.2-37.5 31.8-37.5h762.9c17.6 0 31.8 16.8 31.8 37.5 0 20.8-14.2 37.5-31.8 37.5v0zM135.8 858.1c-20.7 0-37.5-14.2-37.5-31.8v-762.9c0-17.6 16.8-31.8 37.5-31.8s37.5 14.2 37.5 31.8v762.9c0 17.5-16.8 31.8-37.5 31.8zM911.4 583.1v0c-14.6 14.6-38.4 14.6-53 0l-190-190-190 190c-14.3 14.3-37.6 14.6-52.2 0.8-0.6-0.5-1.1-1-1.7-1.6l-216.5-216.4c-14.6-14.6-14.6-38.4 0-53v0c14.6-14.6 38.4-14.6 53 0l190.7 190.7 189.9-189.9c7.3-7.3 17-11 26.7-10.9 9.7 0 19.4 3.6 26.7 10.9l216.4 216.4c14.6 14.6 14.6 38.4 0 53z" />
<glyph unicode="&#xe957;" glyph-name="traditional-chinese" d="M884.3 0.9h-741.3c-24.1 0-43.7 19.6-43.7 43.7v808.7c0 24.1 19.6 43.7 43.7 43.7h741.3c24.1 0 43.7-19.6 43.7-43.7v-808.7c0-24.1-19.6-43.7-43.7-43.7zM149.3 50.9h728.7v796.1h-728.7v-796.1zM301.7 669.1l-20.8-24.2h221.8c0-26-0.7-50.2-2-72.6h37.6v-43.7h-41c-0.9-10.3-2.7-23.3-5.4-39h25.5v-35.6h-32.9l-3.4-11.4 18.8-14.1c-34.9-17.5-69.9-32-104.8-43.7l129.7 4.7c22.8 11.6 51.1 26.9 84.7 45.7l49.1-32.3c-72.6-41.7-153.7-75.3-243.3-100.8 74.4 3.1 154.8 7.6 241.2 13.4-18.8 14.3-33.2 24.6-43 30.9l48.4 30.9c64.5-40.3 114.2-75.9 149.2-106.8l-55.2-37.5c-12.5 12.1-28.7 26.4-48.4 43l-160.6-9.4v-74.6c0-37.6-22.2-56.4-66.5-56.4h-61.2l-12.1 55.8c21.1-2.2 39.2-3.4 54.4-3.4 13 0 19.5 6.3 19.5 18.8v56.4c-68.1-3.6-141.4-6.5-219.7-8.7l-14.8 57.1c18.8-1.3 37.4-2 55.8-2 45.7 9.8 92.5 24.4 140.4 43.7l-143.7-5.4-10.8 49.1c25.1 0 42.6 2 52.4 6 28.2 10.8 55.8 23.1 82.7 37l4 14.1h-191.5c5.4 33.1 9.2 58 11.4 74.6h-41v43.7h46.4c2.7 22.4 4.5 39.2 5.4 50.4l-21.5-18.8-36.3 43c35.8 26.9 67.4 64.5 94.8 112.9l57.8-12.8-16.8-29.6h194.2v-48.4h-228.5zM419.9 210.1c-48.8-27.3-110-50.6-183.5-69.9l-25.5 53.8c68.5 14.3 126.1 33.6 172.7 57.8l36.3-41.7zM303.7 534.7l-7.4-45h95.4c-24.6 10.8-47.3 18.6-67.9 23.5l14.1 21.5h-34.2zM349.4 610h-36.3l-4.7-45h85.3c-22.8 10.8-42.8 18.4-59.8 22.8l15.5 22.2zM397.8 489.7h39l7.4 45h-94.8c24.2-7.2 45.2-14.6 63.2-22.2l-14.8-22.8zM446.8 564.9l2 45h-91.4c22.8-7.2 43.2-15.2 61.2-24.2l-13.4-20.8h41.6zM577.2 601.2c-6.7-8.1-16.8-19.3-30.2-33.6l-37 44.4c34.5 35.4 64.5 84.9 90 148.5l59.1-13.4c-1.8-4.5-8.7-19.9-20.8-46.4h172.7v-55.1h-37.6c-11.7-45.3-30.7-84.5-57.1-117.6 31.4-18.8 67.2-34.7 107.5-47.7l-31.6-55.8c-46.6 17.5-86 37.9-118.3 61.2-33.6-26.4-74.2-45.7-121.6-57.8l-31.6 49.7c43 10.3 79.1 26 108.2 47-21.9 22.9-39.2 48.4-51.7 76.6zM622.9 254.5c68.1-16.1 129.5-35.8 184.1-59.1l-34.9-54.4c-60 26.9-121.4 47.7-184.1 62.5l34.9 51zM612.8 645.6c11.2-31.8 30.2-59.6 57.1-83.3 19.7 24.2 34.9 52 45.7 83.3h-102.8z" />
<glyph unicode="&#xe958;" glyph-name="user" d="M659.4 399.3c67.1 45.2 111.2 121.7 111.2 208.6 0 140.8-116.5 255.5-259.5 255.5s-257.8-114.7-257.8-253.7c0-86.9 44.2-163.4 111.2-208.5-151.8-59.1-257.8-201.7-257.8-370.3v0h72.4c0 166.8 128.9 304.3 293.1 323.4 1.8 0 45.9 3.5 83 0h3.5c160.8-22.8 284.3-158.4 284.3-323.5v0h74.2c-1.8 166.9-107.7 311.1-257.8 368.5v0zM511.1 418.4c-107.7 0-194.2 85.1-194.2 191.2s86.5 191.2 194.2 191.2c107.7 0 194.2-85.1 194.2-191.2s-86.5-191.2-194.2-191.2v0z" />
<glyph unicode="&#xe959;" glyph-name="word" d="M623.7 479.6h38.7l-44.6-197.8-58 278.1h-93.2l-67.4-278.1-50.6 278.1h-97.4l98.9-447.7h95.2l66.7 264.8 59.7-264.7h87.7l113.4 447.7h-149.1v-80.4zM866.9 695.4c-19.4 26.5-46.5 57.5-76.2 87.2-29.8 29.7-60.7 56.8-87.2 76.2-45.1 33.1-67 36.9-79.5 36.9h-433.8c-38.6 0-70-31.4-70-70v-755.6c0-38.6 31.4-70 70-70h643.7c38.6 0 70 31.4 70 70v545.8c-0.1 12.6-3.9 34.4-37 79.5v0zM751.1 743c26.8-26.8 47.9-51.1 63.5-71.2h-134.7v134.7c20.1-15.5 44.3-36.6 71.2-63.5v0zM847.8 70.2c0-7.6-6.4-14-14-14h-643.6c-7.6 0-14 6.4-14 14v755.6c0 7.6 6.4 14 14 14 0 0 433.8 0 433.8 0v-195.9c0-15.5 12.5-28 28-28h195.9l-0.1-545.7z" />
</font>
</defs>
</svg>
