<?xml version="1.0" encoding="utf-8"?>
<!-- Generator: Adobe Illustrator 21.0.0, SVG Export Plug-In . SVG Version: 6.00 Build 0)  -->
<svg version="1.1" id="图层_1" xmlns="http://www.w3.org/2000/svg" xmlns:xlink="http://www.w3.org/1999/xlink" x="0px" y="0px"
	 viewBox="0 0 41 41" style="enable-background:new 0 0 41 41;" xml:space="preserve">
<style type="text/css">
	.st0{fill:url(#SVGID_1_);}
	.st1{fill:url(#SVGID_2_);}
	.st2{fill:url(#SVGID_3_);}
	.st3{fill:url(#SVGID_4_);}
	.st4{fill:url(#SVGID_5_);}
	.st5{fill:url(#SVGID_6_);}
</style>
<linearGradient id="SVGID_1_" gradientUnits="userSpaceOnUse" x1="1.123" y1="35.3113" x2="16.9734" y2="35.3113">
	<stop  offset="0" style="stop-color:#4E9BF4"/>
	<stop  offset="1" style="stop-color:#2A6DF8"/>
</linearGradient>
<path class="st0" d="M0.7,32.5c0,0,2.8,1.9,3.4,2.8h7.4c0,0,3.6,0.3,6.1,2.8c0,0-2.7-5.5-6.1-5.5S0.7,32.5,0.7,32.5z"/>
<linearGradient id="SVGID_2_" gradientUnits="userSpaceOnUse" x1="-188.2625" y1="35.3113" x2="-172.4122" y2="35.3113" gradientTransform="matrix(-1 0 0 1 -148.3695 0)">
	<stop  offset="0" style="stop-color:#4E9BF4"/>
	<stop  offset="1" style="stop-color:#2A6DF8"/>
</linearGradient>
<path class="st1" d="M40.3,32.5c0,0-2.8,1.9-3.4,2.8h-7.4c0,0-3.6,0.3-6.1,2.8c0,0,2.7-5.5,6.1-5.5S40.3,32.5,40.3,32.5z"/>
<title>编组 11</title>
<desc>Created with Sketch.</desc>
<linearGradient id="SVGID_3_" gradientUnits="userSpaceOnUse" x1="17.4183" y1="40.0178" x2="8.1656" y2="40.0178">
	<stop  offset="0" style="stop-color:#4D5EFF"/>
	<stop  offset="1" style="stop-color:#AACAFF"/>
</linearGradient>
<path class="st2" d="M9.9,40.8c0,0-1.2-1.4-2-1.5c-0.8,0,7.1,0,7.1,0s1.5,0.1,2.7,1.5H9.9z"/>
<linearGradient id="SVGID_4_" gradientUnits="userSpaceOnUse" x1="-158.1994" y1="40.0178" x2="-167.4521" y2="40.0178" gradientTransform="matrix(-1 0 0 1 -134.1147 0)">
	<stop  offset="0" style="stop-color:#4D5EFF"/>
	<stop  offset="1" style="stop-color:#AACAFF"/>
</linearGradient>
<path class="st3" d="M31.6,40.8c0,0,1.2-1.4,2-1.5c0.8,0-7.1,0-7.1,0s-1.5,0.1-2.7,1.5H31.6z"/>
<linearGradient id="SVGID_5_" gradientUnits="userSpaceOnUse" x1="1.1855" y1="37.9926" x2="19.8622" y2="37.9926">
	<stop  offset="0" style="stop-color:#57D1FE"/>
	<stop  offset="1" style="stop-color:#4899FE"/>
</linearGradient>
<path class="st4" d="M0.7,35.2c0,0,2.8,1.9,3.4,2.8h10.4c0,0,3.6,0.3,6.1,2.8c0,0-2.7-5.5-6.1-5.5S0.7,35.2,0.7,35.2z"/>
<linearGradient id="SVGID_6_" gradientUnits="userSpaceOnUse" x1="-183.2312" y1="37.9926" x2="-164.5545" y2="37.9926" gradientTransform="matrix(-1 0 0 1 -143.4167 0)">
	<stop  offset="0" style="stop-color:#57D1FE"/>
	<stop  offset="1" style="stop-color:#4899FE"/>
</linearGradient>
<path class="st5" d="M40.3,35.2c0,0-2.8,1.9-3.4,2.8H26.6c0,0-3.6,0.3-6.1,2.8c0,0,2.7-5.5,6.1-5.5S40.3,35.2,40.3,35.2z"/>
</svg>
