<?xml version="1.0" encoding="utf-8"?>
<!-- Generator: Adobe Illustrator 21.0.0, SVG Export Plug-In . SVG Version: 6.00 Build 0)  -->
<svg version="1.1" id="图层_1" xmlns="http://www.w3.org/2000/svg" xmlns:xlink="http://www.w3.org/1999/xlink" x="0px" y="0px"
	 viewBox="0 0 41 41" style="enable-background:new 0 0 41 41;" xml:space="preserve">
<style type="text/css">
	.st0{fill:#A9A9A9;}
	.st1{fill:#DEBCE3;}
	.st2{fill:#C697CD;}
	.st3{fill:#B568C0;}
	.st4{fill:#FFFFFF;}
</style>
<title>编组 11</title>
<desc>Created with Sketch.</desc>
<path class="st0" d="M17.2,21.3"/>
<path class="st0" d="M39.7,19.3"/>
<g>
	<g>
		<path class="st1" d="M8.1,39.5c-1.4,0-2.5-1.1-2.5-2.5V9.8c0-1.4,1.1-2.5,2.5-2.5h24.8c1.4,0,2.5,1.1,2.5,2.5V37
			c0,1.4-1.1,2.5-2.5,2.5H8.1z"/>
		<path class="st2" d="M32.9,8.8c0.5,0,1,0.5,1,1V37c0,0.5-0.5,1-1,1H8.1c-0.5,0-1-0.5-1-1V9.8c0-0.5,0.5-1,1-1H32.9 M32.9,5.8H8.1
			c-2.2,0-4,1.8-4,4V37c0,2.2,1.8,4,4,4h24.8c2.2,0,4-1.8,4-4V9.8C36.9,7.5,35.1,5.8,32.9,5.8L32.9,5.8z"/>
	</g>
	<path class="st3" d="M33.1,10.1H7.9c-1.3,0-2.4-1.1-2.4-2.4V7.3c0-1.3,1.1-2.4,2.4-2.4h25.1c1.3,0,2.4,1.1,2.4,2.4v0.4
		C35.4,9,34.4,10.1,33.1,10.1z"/>
	<path class="st3" d="M20.6,8.5L20.6,8.5c-1.9,0-3.4-1.5-3.4-3.4V3.6c0-1.9,1.5-3.4,3.4-3.4h0c1.9,0,3.4,1.5,3.4,3.4v1.5
		C24.1,7,22.5,8.5,20.6,8.5z"/>
	<g>
		<path class="st4" d="M19.6,18.4h-7c-0.7,0-1.3-0.6-1.3-1.3v0c0-0.7,0.6-1.3,1.3-1.3h7c0.7,0,1.3,0.6,1.3,1.3v0
			C20.9,17.8,20.3,18.4,19.6,18.4z"/>
	</g>
	<g>
		<path class="st4" d="M23.6,24.7h-11c-0.7,0-1.3-0.6-1.3-1.3v0c0-0.7,0.6-1.3,1.3-1.3h11c0.7,0,1.3,0.6,1.3,1.3v0
			C24.9,24.1,24.3,24.7,23.6,24.7z"/>
	</g>
	<g>
		<path class="st4" d="M27.6,31h-15c-0.7,0-1.3-0.6-1.3-1.3v0c0-0.7,0.6-1.3,1.3-1.3h15c0.7,0,1.3,0.6,1.3,1.3v0
			C28.9,30.4,28.3,31,27.6,31z"/>
	</g>
</g>
</svg>
