<?xml version="1.0" encoding="utf-8"?>
<!-- Generator: Adobe Illustrator 21.0.0, SVG Export Plug-In . SVG Version: 6.00 Build 0)  -->
<svg version="1.1" id="图层_1" xmlns="http://www.w3.org/2000/svg" xmlns:xlink="http://www.w3.org/1999/xlink" x="0px" y="0px"
	 viewBox="0 0 16 16" style="enable-background:new 0 0 16 16;" xml:space="preserve">
<style type="text/css">
	.st0{fill:#4693FF;}
</style>
<path class="st0" d="M5.5,0.1H1.8C0.8,0.1,0,1,0,2v3.7c0,1,0.8,1.8,1.8,1.8h3.7c1,0,1.8-0.8,1.8-1.8V2C7.4,1,6.6,0.1,5.5,0.1z
	 M6.6,5.7c0,0.6-0.5,1.1-1.1,1.1H1.8c-0.6,0-1.1-0.5-1.1-1.1V2c0-0.6,0.5-1.1,1.1-1.1h3.7c0.6,0,1.1,0.5,1.1,1.1L6.6,5.7z"/>
<path class="st0" d="M3.7,3.1C3.3,3.1,3,3.4,3,3.8s0.3,0.7,0.7,0.7s0.7-0.3,0.7-0.7S4.1,3.1,3.7,3.1z"/>
<path class="st0" d="M14.2,0.1h-3.7C9.4,0.1,8.6,1,8.6,2v3.7c0,1,0.8,1.8,1.8,1.8h3.7c1,0,1.8-0.8,1.8-1.8V2C16,1,15.2,0.1,14.2,0.1
	z M15.3,5.7c0,0.6-0.5,1.1-1.1,1.1l-3.7,0c-0.6,0-1.1-0.5-1.1-1.1V2c0-0.6,0.5-1.1,1.1-1.1h3.7c0.6,0,1.1,0.5,1.1,1.1L15.3,5.7
	L15.3,5.7z"/>
<path class="st0" d="M12.3,3.1c-0.4,0-0.7,0.3-0.7,0.7s0.3,0.7,0.7,0.7S13,4.2,13,3.8S12.7,3.1,12.3,3.1z"/>
<path class="st0" d="M5.5,8.5H1.8c-1,0-1.8,0.8-1.8,1.8V14c0,1,0.8,1.8,1.8,1.8h3.7c1,0,1.8-0.8,1.8-1.8v-3.7
	C7.4,9.3,6.6,8.5,5.5,8.5z M6.6,14c0,0.6-0.5,1.1-1.1,1.1l-3.7,0c-0.6,0-1.1-0.5-1.1-1.1v-3.7c0-0.6,0.5-1.1,1.1-1.1h3.7
	c0.6,0,1.1,0.5,1.1,1.1L6.6,14z"/>
<path class="st0" d="M3.7,11.5c-0.4,0-0.7,0.3-0.7,0.7s0.3,0.7,0.7,0.7s0.7-0.3,0.7-0.7S4.1,11.5,3.7,11.5z"/>
<path class="st0" d="M15.3,8.7c-0.2,0-0.4,0.2-0.4,0.4v0.7v1.7h-2.2l0-1.7V9.6c0-0.4-0.4-0.8-0.8-0.8l-2.1,0c-0.5,0-0.8,0.3-0.8,0.8
	v2.2v3.4c0,0.2,0.2,0.4,0.4,0.4c0.2,0,0.4-0.2,0.4-0.4v-2.7v-3h2.1v1v0.9c0,0.4,0.4,0.8,0.8,0.8h2.2c0.5,0,0.8-0.3,0.8-0.8v-0.9V9.1
	C15.8,8.9,15.6,8.7,15.3,8.7z"/>
<path class="st0" d="M14,14.7c0,0.4,0.3,0.7,0.7,0.7c0.4,0,0.7-0.3,0.7-0.7s-0.3-0.7-0.7-0.7C14.4,13.9,14,14.2,14,14.7z"/>
<path class="st0" d="M11.1,14.7c0,0.4,0.3,0.7,0.7,0.7c0.4,0,0.7-0.3,0.7-0.7s-0.3-0.7-0.7-0.7C11.4,13.9,11.1,14.2,11.1,14.7z"/>
</svg>
