<?xml version="1.0" encoding="UTF-8"?>
<svg width="15px" height="17px" viewBox="0 0 15 17" version="1.1" xmlns="http://www.w3.org/2000/svg" xmlns:xlink="http://www.w3.org/1999/xlink">
    <!-- Generator: Sketch 57.1 (83088) - https://sketch.com -->
    <title>编组 21</title>
    <desc>Created with Sketch.</desc>
    <g id="数据分析" stroke="none" stroke-width="1" fill="none" fill-rule="evenodd">
        <g id="大数据-数据分析" transform="translate(-26.000000, -170.000000)" fill="#FFFFFF" fill-rule="nonzero">
            <g id="编组-5" transform="translate(16.000000, 160.000000)">
                <g id="编组-21" transform="translate(8.000000, 9.000000)">
                    <g id="提案办理" transform="translate(2.000000, 1.000000)">
                        <path d="M1.13043478,15.009058 L1.10326087,2.32246377 C1.10326087,1.67210145 1.44927536,1.14492754 2.09963768,1.14492754 L8.06884058,1.14492754 L10.9438406,1.14492754 C11.5253623,1.14492754 12.009058,1.33152174 12.1050725,1.88768116 L12.1050725,1.18115942 C12.1050725,0.530797101 11.5778986,0.00362318841 10.9275362,0.00362318841 L8.05253623,0.00362318841 L1.17753623,0.00362318841 C0.527173913,0.00362318841 0,0.530797101 0,1.18115942 L0.027173913,15.009058 C0.0289855072,15.6576087 0.55615942,16.1847826 1.20471014,16.1847826 L2.12681159,16.1847826 C1.47826087,16.1847826 1.13224638,15.6576087 1.13043478,15.009058 Z" id="路径"></path>
                        <path d="M11.5217391,9.22826087 C9.60144928,9.22826087 8.04347826,10.7862319 8.04347826,12.7065217 C8.04347826,14.6268116 9.60144928,16.1847826 11.5217391,16.1847826 C13.442029,16.1847826 15,14.6268116 15,12.7065217 C15,10.7862319 13.442029,9.22826087 11.5217391,9.22826087 Z M12.1195652,12.7355072 L12.1195652,14.4746377 L10.9547101,14.4746377 L10.9547101,12.7355072 L9.79528986,12.7355072 L11.5398551,10.8224638 L13.2844203,12.7355072 L12.1195652,12.7355072 Z" id="形状"></path>
                        <path d="M10.9655797,1.99818841 L8.14130435,1.99818841 L3.16847826,1.99818841 C2.52898551,1.99818841 2.01268116,2.52536232 2.01268116,3.17572464 L2.03985507,15.0108696 C2.04166667,15.6594203 2.55978261,16.1865942 3.19565217,16.1865942 L8.70108696,16.1865942 C7.67572464,15.3641304 7.02173913,14.1123188 7.02173913,12.7101449 C7.02173913,10.2355072 9.05978261,8.22826087 11.5706522,8.22826087 C11.7572464,8.22826087 11.9402174,8.23913043 12.1213768,8.26086957 L12.1213768,3.17572464 C12.1213768,2.52536232 11.6050725,1.99818841 10.9655797,1.99818841 Z M5.92572464,14.0380435 C5.92572464,14.3586957 5.67028986,14.6195652 5.35507246,14.6195652 L4.04891304,14.6195652 C3.73369565,14.6195652 3.47826087,14.3586957 3.47826087,14.0380435 L3.47826087,14.0380435 C3.47826087,13.7173913 3.73369565,13.4565217 4.04891304,13.4565217 L5.35507246,13.4565217 C5.66847826,13.4565217 5.92572464,13.7173913 5.92572464,14.0380435 L5.92572464,14.0380435 Z M5.92572464,10.7463768 C5.92572464,11.067029 5.67028986,11.3278986 5.35507246,11.3278986 L4.04891304,11.3278986 C3.73369565,11.3278986 3.47826087,11.067029 3.47826087,10.7463768 L3.47826087,10.7463768 C3.47826087,10.4257246 3.73369565,10.1648551 4.04891304,10.1648551 L5.35507246,10.1648551 C5.66847826,10.1648551 5.92572464,10.4257246 5.92572464,10.7463768 L5.92572464,10.7463768 Z M8.82608696,7.42934783 C8.82608696,7.75 8.57065217,8.01086957 8.25543478,8.01086957 L4.04710145,8.01086957 C3.73188406,8.01086957 3.47644928,7.75 3.47644928,7.42934783 L3.47644928,7.42934783 C3.47644928,7.10869565 3.73188406,6.84782609 4.04710145,6.84782609 L8.25362319,6.84782609 C8.56884058,6.84782609 8.82608696,7.10869565 8.82608696,7.42934783 L8.82608696,7.42934783 Z M10.6576087,4.14673913 C10.6576087,4.4673913 10.4021739,4.72826087 10.0869565,4.72826087 L4.04710145,4.72826087 C3.73188406,4.72826087 3.47644928,4.4673913 3.47644928,4.14673913 L3.47644928,4.14673913 C3.47644928,3.82608696 3.73188406,3.56521739 4.04710145,3.56521739 L10.0869565,3.56521739 C10.4021739,3.56521739 10.6576087,3.82608696 10.6576087,4.14673913 L10.6576087,4.14673913 Z" id="形状"></path>
                    </g>
                </g>
            </g>
        </g>
    </g>
</svg>