<?xml version="1.0" encoding="UTF-8"?>
<svg width="13px" height="16px" viewBox="0 0 13 16" version="1.1" xmlns="http://www.w3.org/2000/svg" xmlns:xlink="http://www.w3.org/1999/xlink">
    <!-- Generator: Sketch 57.1 (83088) - https://sketch.com -->
    <title>编组 24</title>
    <desc>Created with Sketch.</desc>
    <g id="数据分析" stroke="none" stroke-width="1" fill="none" fill-rule="evenodd">
        <g id="大数据-数据分析" transform="translate(-306.000000, -171.000000)" fill="#FFFFFF">
            <g id="编组-5备份-2" transform="translate(296.000000, 159.000000)">
                <g id="编组-24" transform="translate(7.000000, 10.000000)">
                    <g id="编组" transform="translate(3.000000, 2.000000)">
                        <path d="M10.702449,2.78571429 C10.702449,3.10231293 10.4442177,3.36231293 10.1258503,3.36231293 L2.87768707,3.36231293 C2.56108844,3.36231293 2.30108844,3.10408163 2.30108844,2.78571429 C2.30108844,2.46911565 2.55931973,2.20911565 2.87768707,2.20911565 L10.127619,2.20911565 C10.4442177,2.20911565 10.702449,2.46734694 10.702449,2.78571429 L10.702449,2.78571429 Z M10.702449,5.80843537 C10.702449,6.12503401 10.4442177,6.38503401 10.1258503,6.38503401 L8.2014966,6.38503401 C7.88489796,6.38503401 7.62489796,6.12680272 7.62489796,5.80843537 C7.62489796,5.49183673 7.88312925,5.23183673 8.2014966,5.23183673 L10.127619,5.23183673 C10.4442177,5.23183673 10.702449,5.49183673 10.702449,5.80843537 L10.702449,5.80843537 Z M10.702449,8.83115646 C10.702449,9.1477551 10.4442177,9.4077551 10.1258503,9.4077551 L8.2014966,9.4077551 C7.88489796,9.4077551 7.62489796,9.14952381 7.62489796,8.83115646 C7.62489796,8.51455782 7.88312925,8.25455782 8.2014966,8.25455782 L10.127619,8.25455782 C10.4442177,8.25455782 10.702449,8.51455782 10.702449,8.83115646 L10.702449,8.83115646 Z M10.702449,11.8538776 C10.702449,12.1704762 10.4442177,12.4304762 10.1258503,12.4304762 L8.2014966,12.4304762 C7.88489796,12.4304762 7.62489796,12.1722449 7.62489796,11.8538776 C7.62489796,11.5372789 7.88312925,11.2772789 8.2014966,11.2772789 L10.127619,11.2772789 C10.4442177,11.2772789 10.702449,11.5372789 10.702449,11.8538776 L10.702449,11.8538776 Z M5.7677551,11.7778231 C5.7677551,12.1262585 5.48122449,12.4127891 5.13278912,12.4127891 L2.93605442,12.4127891 C2.58761905,12.4127891 2.30108844,12.1262585 2.30108844,11.7778231 L2.30108844,5.86680272 C2.30108844,5.51836735 2.58761905,5.23183673 2.93605442,5.23183673 L5.13278912,5.23183673 C5.48122449,5.23183673 5.7677551,5.51836735 5.7677551,5.86680272 L5.7677551,11.7778231 Z M11.8361905,0 L1.14965986,0 C0.516462585,0 0,0.518231293 0,1.14965986 L0,15.8157823 L1.33891156,15.8157823 L1.33891156,15.8087075 C1.33891156,15.182585 1.84653061,14.6731973 2.47442177,14.6731973 C3.10054422,14.6731973 3.60993197,15.1808163 3.60993197,15.8087075 L3.60993197,15.8157823 L5.36979592,15.8157823 L5.36979592,15.8087075 C5.36979592,15.182585 5.87741497,14.6731973 6.50530612,14.6731973 C7.13142857,14.6731973 7.64081633,15.1808163 7.64081633,15.8087075 L7.64081633,15.8157823 L9.40068027,15.8157823 L9.40068027,15.8087075 C9.40068027,15.182585 9.90829932,14.6731973 10.5361905,14.6731973 C11.1623129,14.6731973 11.6717007,15.1808163 11.6717007,15.8087075 L11.6717007,15.8157823 L12.9911565,15.8157823 L12.9911565,1.14965986 C12.9858503,0.516462585 12.467619,0 11.8361905,0 L11.8361905,0 Z" id="Fill-1"></path>
                    </g>
                </g>
            </g>
        </g>
    </g>
</svg>