<?xml version="1.0" encoding="UTF-8"?>
<svg width="15px" height="17px" viewBox="0 0 15 17" version="1.1" xmlns="http://www.w3.org/2000/svg" xmlns:xlink="http://www.w3.org/1999/xlink">
    <!-- Generator: Sketch 57.1 (83088) - https://sketch.com -->
    <title>编组 23</title>
    <desc>Created with Sketch.</desc>
    <g id="数据分析" stroke="none" stroke-width="1" fill="none" fill-rule="evenodd">
        <g id="大数据-数据分析" transform="translate(-262.000000, -170.000000)" fill="#FFFFFF" fill-rule="nonzero">
            <g id="编组-5备份-2" transform="translate(252.000000, 159.000000)">
                <g id="编组-23" transform="translate(8.000000, 10.000000)">
                    <g id="社情民意" transform="translate(2.000000, 1.000000)">
                        <path d="M10.9143546,0.0162846803 L8.04282268,0.0162846803 L1.1761158,0.0162846803 C0.526537998,0.0162846803 0,0.542822678 0,1.19240048 L0.0271411339,15.0036188 C0.0289505428,15.6513872 0.55548854,16.1779252 1.20325694,16.1779252 L8.61097708,16.1779252 C7.56875754,15.3564536 6.90289505,14.106152 6.90289505,12.7056695 C6.90289505,10.2340169 8.97466828,8.2291918 11.5295537,8.2291918 C11.7195416,8.2291918 11.9059107,8.24004825 12.0904704,8.26176116 L12.0904704,1.19240048 C12.0904704,0.542822678 11.5639324,0.0162846803 10.9143546,0.0162846803 Z M1.69541616,1.17792521 L4.38781665,1.17792521 L4.38781665,4.21773221 L3.03075995,3.05609168 L1.69541616,4.21773221 L1.69541616,1.17792521 Z M4.68094089,13.8944511 L2.20205066,13.8944511 C1.92702051,13.8944511 1.7026538,13.6338963 1.7026538,13.3136309 C1.7026538,12.9951749 1.92702051,12.7328106 2.20205066,12.7328106 L4.68094089,12.7328106 C4.95597105,12.7328106 5.18033776,12.9951749 5.18033776,13.3136309 C5.18033776,13.6320869 4.95597105,13.8944511 4.68094089,13.8944511 Z M5.16767189,10.6845597 L2.28528347,10.6845597 C1.9668275,10.6845597 1.70446321,10.4240048 1.70446321,10.1037394 C1.70446321,9.78528347 1.96501809,9.52291918 2.28528347,9.52291918 L5.16767189,9.52291918 C5.48612786,9.52291918 5.74849216,9.78528347 5.74849216,10.1037394 C5.74849216,10.4221954 5.48793727,10.6845597 5.16767189,10.6845597 Z M6.5482509,7.47466828 L2.28528347,7.47466828 C1.9668275,7.47466828 1.70446321,7.21411339 1.70446321,6.89384801 C1.70446321,6.57539204 1.96501809,6.31302774 2.28528347,6.31302774 L6.5482509,6.31302774 C6.86851628,6.31302774 7.12907117,6.57539204 7.12907117,6.89384801 C7.12907117,7.21230398 6.86851628,7.47466828 6.5482509,7.47466828 Z" id="形状"></path>
                        <path d="M11.5259349,9.25331725 C9.6079614,9.25331725 8.05186972,10.8094089 8.05186972,12.7273824 C8.05186972,14.6453559 9.6079614,16.2014475 11.5259349,16.2014475 C13.4439083,16.2014475 15,14.6453559 15,12.7273824 C15,10.8094089 13.4439083,9.25331725 11.5259349,9.25331725 Z M13.0186972,12.9680338 C12.247889,13.9975875 11.0247286,14.504222 11.0247286,14.504222 C10.8872135,13.2991556 10.4710495,13.4963812 10.1164053,12.7870929 C9.76176116,12.0759952 10.2937274,11.641737 10.2937274,11.641737 C11.0048251,11.0500603 11.6363088,11.8986731 11.6363088,11.8986731 C12.287696,11.1188179 13.013269,11.7068758 13.013269,11.7068758 C13.6266586,12.2623643 13.0186972,12.9680338 13.0186972,12.9680338 Z" id="形状"></path>
                    </g>
                </g>
            </g>
        </g>
    </g>
</svg>