<?xml version="1.0" encoding="UTF-8"?>
<svg width="41px" height="41px" viewBox="0 0 41 41" version="1.1" xmlns="http://www.w3.org/2000/svg" xmlns:xlink="http://www.w3.org/1999/xlink">
    <!-- Generator: Sketch 57.1 (83088) - https://sketch.com -->
    <title>编组 7</title>
    <desc>Created with Sketch.</desc>
    <g id="数据分析" stroke="none" stroke-width="1" fill="none" fill-rule="evenodd">
        <g id="大数据-数据分析" transform="translate(-167.000000, -1181.000000)">
            <g id="编组-2备份-2" transform="translate(0.000000, 1039.000000)">
                <g id="登录次数" transform="translate(0.000000, 45.000000)">
                    <g id="编组-7" transform="translate(167.000000, 97.000000)">
                        <rect id="矩形备份-2" fill="#EAF5FF" x="0" y="0" width="41" height="41" rx="20.5"></rect>
                        <g id="合格" transform="translate(9.000000, 9.000000)">
                            <rect id="矩形" fill="#000000" fill-rule="nonzero" opacity="0" x="0" y="0" width="23" height="23"></rect>
                            <path d="M15.9583333,1.875 C17.0629028,1.875 17.9583333,2.7704305 17.9583333,3.875 L17.9593121,12.0157097 C17.7467548,11.9910281 17.5306016,11.9783468 17.3115215,11.9783468 C14.19406,11.9783468 11.6644627,14.5510335 11.6644627,17.7283468 C11.6644627,18.5675717 11.8410684,19.364957 12.1585618,20.0839662 L3.95833333,20.0833333 C2.85376383,20.0833333 1.95833333,19.1879028 1.95833333,18.0833333 L1.95833333,3.875 C1.95833333,2.7704305 2.85376383,1.875 3.95833333,1.875 L15.9583333,1.875 Z M9.81511083,13.875 L4.90462489,13.875 L4.90462489,15.875 L9.81511083,15.875 L9.81511083,13.875 Z M11.7793052,9.875 L4.90462489,9.875 L4.90462489,11.875 L11.7793052,11.875 L11.7793052,9.875 Z M14.7255968,5.875 L4.90462489,5.875 L4.90462489,7.875 L14.7255968,7.875 L14.7255968,5.875 Z" id="形状结合" fill="#40A2FF"></path>
                            <path d="M17.5913973,13.4566937 C15.2332292,13.4566937 13.3197442,15.3679328 13.3197442,17.7283468 C13.3197442,20.086515 15.2309833,22 17.5913973,22 C19.9495655,22 21.8630505,20.0887609 21.8630505,17.7283468 C21.8630505,15.3679328 19.9518114,13.4566937 17.5913973,13.4566937 Z M20.3830192,16.8502099 L17.7553462,19.8057807 C17.6250854,19.9517625 17.4454155,20.0258764 17.2634997,20.0258764 C17.1197637,20.0258764 16.9737819,19.978713 16.8525046,19.8821404 L15.2107704,18.5683039 C14.9277902,18.3414705 14.8806269,17.9282297 15.1074602,17.6452495 C15.3342935,17.3622693 15.7475344,17.3151059 16.0305146,17.5419393 L17.1848941,18.4672395 L19.3993262,15.9765648 C19.6396348,15.704814 20.0551216,15.6801094 20.3268724,15.9226638 C20.6008691,16.1629724 20.6233278,16.5784591 20.3830192,16.8502099 L20.3830192,16.8502099 Z" id="形状" fill="#FF9623" fill-rule="nonzero"></path>
                        </g>
                    </g>
                </g>
            </g>
        </g>
    </g>
</svg>