<?xml version="1.0" encoding="UTF-8"?>
<svg width="41px" height="41px" viewBox="0 0 41 41" version="1.1" xmlns="http://www.w3.org/2000/svg" xmlns:xlink="http://www.w3.org/1999/xlink">
    <!-- Generator: Sketch 57.1 (83088) - https://sketch.com -->
    <title>编组 12</title>
    <desc>Created with Sketch.</desc>
    <g id="数据分析" stroke="none" stroke-width="1" fill="none" fill-rule="evenodd">
        <g id="大数据-数据分析" transform="translate(-257.000000, -1491.000000)">
            <g id="编组-2备份-3" transform="translate(0.000000, 1314.000000)">
                <g id="登录次数" transform="translate(0.000000, 45.000000)">
                    <g id="编组-12" transform="translate(257.000000, 132.000000)">
                        <rect id="矩形备份-4" fill="#EAF5FF" x="0" y="0" width="41" height="41" rx="20.5"></rect>
                        <g id="275折线图" transform="translate(10.000000, 10.000000)" fill-rule="nonzero">
                            <rect id="矩形" fill="#000000" opacity="0" x="0" y="0" width="22" height="22"></rect>
                            <path d="M4.05410156,16.9726562 L18.9728516,16.9726562 C19.2048828,16.9726562 19.3960937,16.7814453 19.3960937,16.5494141 L19.3960937,10.4285156 C19.3960937,10.1964844 19.2048828,10.0052734 18.9728516,10.0052734 C18.9384766,10.0052734 18.9019531,10.0095703 18.8675781,10.0203125 L13.4943359,11.4103516 C13.4449219,11.4232422 13.3998047,11.4425781 13.3568359,11.4748047 L10.6068359,13.3976562 C10.5982422,13.4041016 10.5875,13.40625 10.5832031,13.40625 C10.5789062,13.40625 10.5681641,13.4041016 10.5617188,13.3998047 L7.0984375,11.3673828 C7.03398438,11.3287109 6.95878906,11.309375 6.88359375,11.309375 C6.77402344,11.309375 6.67089844,11.3501953 6.59140625,11.4253906 L3.76191406,14.1324219 C3.678125,14.2119141 3.63085938,14.3236328 3.63085938,14.4396484 L3.63085938,16.5494141 C3.63085938,16.7814453 3.81992188,16.9726562 4.05410156,16.9726562 Z" id="路径" fill="#2696FF"></path>
                            <path d="M4.05410156,13.1033203 C4.16152344,13.1033203 4.26679687,13.0603516 4.34628906,12.9851562 L6.840625,10.5853516 C6.85136719,10.5746094 6.86210937,10.5724609 6.87070312,10.5724609 C6.87929687,10.5724609 6.88574219,10.5746094 6.8921875,10.5789062 L10.3210937,12.6113281 C10.3855469,12.65 10.4607422,12.6714844 10.5359375,12.6714844 C10.621875,12.6714844 10.7056641,12.6457031 10.7765625,12.5962891 L13.5609375,10.6712891 C13.5652344,10.6691406 13.5716797,10.6648437 13.5759766,10.6648437 L19.0759766,9.246875 C19.2650391,9.19960937 19.3939453,9.02988281 19.3939453,8.83867187 L19.3939453,5.10039062 C19.3939453,4.86835937 19.2027344,4.67714844 18.9707031,4.67714844 C18.9320312,4.67714844 18.8955078,4.68359375 18.8589844,4.69433594 L13.0324219,6.3078125 C12.9722656,6.325 12.9185547,6.35507812 12.8712891,6.39375 L10.1341797,8.74628906 C10.1255859,8.75273438 10.1148437,8.75703125 10.10625,8.75703125 C10.0976562,8.75703125 10.0912109,8.75488281 10.0847656,8.75058594 L7.10273437,6.96523438 C7.03828125,6.9265625 6.9609375,6.90507813 6.88574219,6.90507813 C6.77617187,6.90507813 6.67304687,6.94589844 6.59355469,7.02109375 L3.76191406,9.73242188 C3.678125,9.81191406 3.63085937,9.92363281 3.63085937,10.0396484 L3.63085937,12.6822266 C3.63085937,12.9142578 3.82207031,13.1033203 4.05410156,13.1033203 Z" id="路径" fill="#FF9C01"></path>
                            <path d="M20.1136719,17.8943359 L2.69414063,17.8943359 L2.69414063,3.29785156 C2.69414063,2.99277344 2.44707031,2.74570312 2.14199219,2.74570312 L1.88417969,2.74570312 C1.57910156,2.74570312 1.33203125,2.99277344 1.33203125,3.29785156 L1.33203125,17.9308594 C1.33203125,18.6591797 1.925,19.2521484 2.65332031,19.2521484 L20.1115234,19.2521484 C20.4166016,19.2521484 20.6636858,19.0050781 20.6636858,18.7 L20.6636858,18.4443359 C20.6658203,18.1414062 20.41875,17.8943359 20.1136719,17.8943359 Z" id="路径" fill="#2696FF"></path>
                        </g>
                    </g>
                </g>
            </g>
        </g>
    </g>
</svg>