<?xml version="1.0" encoding="utf-8"?>
<!-- Generator: Adobe Illustrator 21.0.0, SVG Export Plug-In . SVG Version: 6.00 Build 0)  -->
<svg version="1.1" id="图层_1" xmlns="http://www.w3.org/2000/svg" xmlns:xlink="http://www.w3.org/1999/xlink" x="0px" y="0px"
	 viewBox="0 0 41 41" style="enable-background:new 0 0 41 41;" xml:space="preserve">
<style type="text/css">
	.st0{fill:#A9A9A9;}
	.st1{fill:#FF9B17;}
	.st2{fill:url(#SVGID_1_);}
	.st3{fill:#FFBC00;}
	.st4{fill:#FFECCA;}
	.st5{fill:url(#SVGID_2_);}
	.st6{fill:#E8A600;}
</style>
<title>编组 11</title>
<desc>Created with Sketch.</desc>
<path class="st0" d="M17.2,21.3"/>
<path class="st0" d="M39.7,19.3"/>
<g>
	<path class="st1" d="M13.8,15.5c0.7,1.5-1.9,4.3-4.6,4.8c-2.4,0.4-8.6-1.5-9,4.4c0,0-1.7,14.6,16.2,10.3c0,0,4.9-1.2,10.6-6.1
		c0,0,13.4-11.4,5.8-20.8c0,0-7.1-9.2-15.3-2.3c-1.2,1-2.9,2.7-3.7,4.8C13.3,12.5,13.3,14.4,13.8,15.5z"/>
	<linearGradient id="SVGID_1_" gradientUnits="userSpaceOnUse" x1="0.2953" y1="17.8409" x2="34.5366" y2="17.8409">
		<stop  offset="0" style="stop-color:#FDAE1F"/>
		<stop  offset="1" style="stop-color:#FFEE1F"/>
	</linearGradient>
	<path class="st2" d="M13.3,13.8c0.7,1.5-1.9,4.3-4.6,4.8c-2.4,0.4-8-1.1-8.4,4.8c0,0-2.2,14.2,15.6,10c0,0,4.9-1.2,10.6-6.1
		c0,0,13.2-11.2,5.5-20.6c0,0-6.9-9.4-15.1-2.6c-1.2,1-2.9,2.7-3.7,4.8C11.9,12.2,12.8,12.7,13.3,13.8z"/>
	<path class="st3" d="M20.1,12.4c-0.1-0.1-0.3-0.2-0.5-0.2c-0.2,0-0.5,0.1-0.5,0.4C19,12.7,19,13,18.9,13.3
		c-0.1,0.6-0.3,1.2-0.7,1.7l0,0l-0.1,0c-0.2,0-0.3,0.1-0.4,0.2l-0.1,0.1l-0.1-0.1c-0.1,0-0.2-0.1-0.3-0.1h0c-0.1,0-0.3,0-0.4,0.2
		c-0.3,0.4-0.7,0.9-1.1,1.3c-0.3,0.4-0.7,0.7-0.9,1.1c-0.3,0.4-0.8,1.2-0.8,1.9l0,0.1l0,0c-0.7,0.7-1.7,1.2-2.7,1.3
		c-0.4,0-0.5,0.3-0.5,0.6c0,0.2,0.1,0.4,0.4,0.4c0,0,0,0,0.1,0c1.3-0.1,2.5-0.6,3.3-1.5l0.1-0.1l0.1,0c0.3,0.2,0.7,0.3,1.1,0.3
		c1,0,2-0.5,2.6-1.3c0.7-0.9,0.8-2.3,0.4-3.8l0-0.1l0.1-0.1c0.5-0.5,0.8-1.3,1-2.1c0.1-0.3,0.2-0.7,0.4-1
		C20.2,12.6,20.2,12.5,20.1,12.4z M17.3,19c-0.3,0.5-0.8,0.6-1.2,0.7c-0.2,0-0.4,0-0.5,0c0-0.1-0.8-0.1-0.9-0.2
		c0-0.1,0.3-0.8,0.4-0.7l0.1-0.1c0.2-0.4,0.6-0.7,0.9-1.1c0.2-0.2,0.6-0.8,0.8-1c0.2-0.2,0.4-0.1,0.6-0.4c0,0,0.2,0.5,0.2,0.5
		C17.8,17.5,17.6,18.4,17.3,19z"/>
	<path class="st4" d="M19.7,11.9c-0.1-0.1-0.3-0.2-0.5-0.2c-0.2,0-0.5,0.1-0.5,0.4c-0.1,0.2-0.2,0.5-0.2,0.8
		c-0.1,0.6-0.3,1.2-0.7,1.7l0,0l-0.1,0c-0.2,0-0.3,0.1-0.4,0.2l-0.1,0.1L17,14.8c-0.1,0-0.2-0.1-0.3-0.1h0c-0.1,0-0.3,0-0.4,0.2
		c-0.3,0.4-0.7,0.9-1.1,1.3c-0.3,0.4-0.7,0.7-0.9,1.1c-0.3,0.4-0.8,1.2-0.8,1.9l0,0.1l0,0c-0.7,0.7-1.7,1.2-2.7,1.3
		c-0.4,0-0.5,0.3-0.5,0.6c0,0.2,0.1,0.4,0.4,0.4c0,0,0,0,0.1,0c1.3-0.1,2.5-0.6,3.3-1.5l0.1-0.1l0.1,0c0.3,0.2,0.7,0.3,1.1,0.3
		c1,0,2-0.5,2.6-1.3c0.7-0.9,0.8-2.3,0.4-3.8l0-0.1l0.1-0.1c0.5-0.5,0.8-1.3,1-2.1c0.1-0.3,0.2-0.7,0.4-1
		C19.7,12.1,19.7,12,19.7,11.9z M16.8,18.6c-0.3,0.5-0.8,0.6-1.2,0.7c-0.2,0-0.4,0-0.5,0c0-0.1-0.1-0.2-0.1-0.3
		c0-0.1,0.1-0.1,0.1-0.2l0-0.1c0.2-0.4,0.5-0.8,0.9-1.2c0.2-0.2,0.4-0.4,0.5-0.6c0.2-0.2,0.4-0.4,0.6-0.7c0,0,0,0,0,0
		C17.3,17,17.2,17.9,16.8,18.6z"/>
	<g>
		<path class="st1" d="M33.4,21.8c-1.9,0.7-1.5,0.8-6.1,3.4c-1,0.6-2.9-0.6-3.6-0.6c-8.1,0.1-7.9,6.2-5.2,9.5c1.5,1.8,3.2,2.3,5,2.7
			c0.9,0.2,3.3,0.3,4.3,0.3c7.3-0.1,13.4-4.3,13-9.3C40.7,27.7,40.6,19.3,33.4,21.8z"/>
		
			<linearGradient id="SVGID_2_" gradientUnits="userSpaceOnUse" x1="-75.664" y1="332.124" x2="-57.847" y2="311.1826" gradientTransform="matrix(0.8598 0.5106 -0.5106 0.8598 250.9441 -213.3088)">
			<stop  offset="0" style="stop-color:#FDAE1F"/>
			<stop  offset="1" style="stop-color:#FFEE1F"/>
		</linearGradient>
		<path class="st5" d="M33.9,20.9c-1.9,0.7-1.5,0.8-6.1,3.4c-1,0.6-3.2,0.2-4,0.2c-8.1,0.1-7.5,5.4-4.8,8.6c1.5,1.8,3.5,2.2,5.3,2.6
			C25.2,36,26,36.1,27,36c5.2-0.1,12.4-2.1,13.2-7.9C40.2,28.2,41.2,18.4,33.9,20.9z"/>
		<path class="st6" d="M21.7,32.9c-0.1,0.1-0.2,0.2-0.3,0.2c-0.1,0-0.2,0-0.3-0.1c-0.4-0.3-0.8-0.6-1-0.9c-0.1-0.2-0.1-0.5,0.1-0.7
			c0.1-0.1,0.2-0.1,0.3-0.1c0.1,0,0.2,0.1,0.3,0.2c0.2,0.2,0.4,0.5,0.8,0.7C21.7,32.4,21.8,32.7,21.7,32.9z"/>
		<path class="st3" d="M35.6,31.3c-1.5,1.3-3,2.1-4.3,2.4c-0.6,0.1-1.2,0.1-1.8,0c-0.1,0-0.2-0.1-0.3-0.2c-0.1-0.1-0.1-0.2-0.1-0.3
			c0-0.1,0.1-0.2,0.2-0.3c0.1-0.1,0.2-0.1,0.3-0.1c1.7,0.3,3.5-0.5,5.5-2.2c0.2-0.2,0.4-0.1,0.6,0.1C35.8,30.9,35.8,31.1,35.6,31.3z
			"/>
		<path class="st3" d="M38.3,28.9c-0.4,0.5-0.8,0.9-1.2,1.4c-0.1,0.1-0.1,0.1-0.2,0.1c0,0,0,0,0,0c-0.1,0-0.2,0-0.3-0.1
			c-0.1-0.1-0.2-0.2-0.2-0.3c0-0.2,0-0.3,0.1-0.4c0.4-0.4,0.8-0.8,1.1-1.3c0.2-0.2,0.4-0.2,0.6,0C38.4,28.5,38.4,28.8,38.3,28.9z"/>
		<path class="st4" d="M21.7,32.5c-0.1,0.1-0.2,0.2-0.3,0.2c-0.1,0-0.2,0-0.3-0.1c-0.4-0.3-0.8-0.6-1-0.9c-0.1-0.2-0.1-0.5,0.1-0.7
			c0.1-0.1,0.2-0.1,0.3-0.1c0.1,0,0.2,0.1,0.3,0.2c0.2,0.2,0.4,0.5,0.8,0.7C21.7,32,21.8,32.3,21.7,32.5z"/>
		<path class="st4" d="M35.6,30.9c-1.5,1.3-3,2.1-4.3,2.4c-0.6,0.1-1.2,0.1-1.8,0c-0.1,0-0.2-0.1-0.3-0.2c-0.1-0.1-0.1-0.2-0.1-0.3
			c0-0.1,0.1-0.2,0.2-0.3c0.1-0.1,0.2-0.1,0.3-0.1c1.7,0.3,3.5-0.5,5.5-2.2c0.2-0.2,0.4-0.1,0.6,0.1C35.8,30.4,35.8,30.7,35.6,30.9z
			"/>
		<path class="st4" d="M38.3,28.5c-0.4,0.5-0.8,0.9-1.2,1.4C37,29.9,37,30,36.9,30c0,0,0,0,0,0c-0.1,0-0.2,0-0.3-0.1
			c-0.1-0.1-0.2-0.2-0.2-0.3c0-0.2,0-0.3,0.1-0.4c0.4-0.4,0.8-0.8,1.1-1.3c0.2-0.2,0.4-0.2,0.6,0C38.4,28,38.4,28.3,38.3,28.5z"/>
	</g>
</g>
</svg>
