<?xml version="1.0" encoding="utf-8"?>
<!-- Generator: Adobe Illustrator 21.0.0, SVG Export Plug-In . SVG Version: 6.00 Build 0)  -->
<svg version="1.1" id="图层_1" xmlns="http://www.w3.org/2000/svg" xmlns:xlink="http://www.w3.org/1999/xlink" x="0px" y="0px"
	 viewBox="0 0 41 41" style="enable-background:new 0 0 41 41;" xml:space="preserve">
<style type="text/css">
	.st0{fill:#EFEFEF;}
	.st1{fill:#A9A9A9;}
	.st2{fill:#FF9B17;}
	.st3{fill:url(#SVGID_1_);}
	.st4{fill:#FFBC00;}
	.st5{fill:#FFECCA;}
	.st6{fill:url(#SVGID_2_);}
	.st7{fill:#E8A600;}
</style>
<ellipse class="st0" cx="20.6" cy="30.8" rx="19.9" ry="7.3"/>
<title>编组 11</title>
<desc>Created with Sketch.</desc>
<path class="st1" d="M17.2,19.3"/>
<path class="st1" d="M39.7,19.3"/>
<g>
	<path class="st2" d="M15.2,15.9c0.5,1.2-1.5,3.3-3.6,3.7c-1.9,0.3-6.7-1.1-7,3.5c0,0-1.3,11.4,12.7,8.1c0,0,3.8-0.9,8.3-4.8
		c0,0,10.5-8.9,4.5-16.3c0,0-5.6-7.2-12-1.8c-0.9,0.8-2.2,2.1-2.9,3.8C14.8,13.5,14.9,15,15.2,15.9z"/>
	<linearGradient id="SVGID_1_" gradientUnits="userSpaceOnUse" x1="4.6656" y1="17.7387" x2="31.5005" y2="17.7387">
		<stop  offset="0" style="stop-color:#FDAE1F"/>
		<stop  offset="1" style="stop-color:#FFEE1F"/>
	</linearGradient>
	<path class="st3" d="M14.9,14.6c0.5,1.2-1.5,3.3-3.6,3.7c-1.9,0.3-6.3-0.9-6.6,3.7c0,0-1.8,11.2,12.3,7.8c0,0,3.8-0.9,8.3-4.8
		c0,0,10.3-8.8,4.3-16.1c0,0-5.4-7.4-11.8-2c-0.9,0.8-2.2,2.1-2.9,3.8C13.8,13.3,14.5,13.7,14.9,14.6z"/>
	<path class="st4" d="M20.2,13.5c-0.1-0.1-0.2-0.2-0.4-0.2c-0.2,0-0.4,0.1-0.4,0.3c-0.1,0.2-0.1,0.4-0.2,0.6c-0.1,0.5-0.2,1-0.5,1.3
		l0,0l0,0c-0.1,0-0.3,0.1-0.3,0.2l-0.1,0.1l-0.1,0c-0.1,0-0.1-0.1-0.2-0.1h0c-0.1,0-0.2,0-0.3,0.2c-0.2,0.3-0.5,0.7-0.9,1.1
		c-0.3,0.3-0.5,0.6-0.7,0.9c-0.2,0.3-0.7,1-0.6,1.5l0,0l0,0c-0.5,0.6-1.3,1-2.1,1c-0.3,0-0.4,0.3-0.4,0.5c0,0.2,0.1,0.3,0.3,0.3
		c0,0,0,0,0,0c1-0.1,1.9-0.5,2.6-1.2l0.1-0.1l0.1,0c0.3,0.1,0.5,0.2,0.9,0.2c0.8,0,1.6-0.4,2-1c0.5-0.7,0.7-1.8,0.3-3l0-0.1l0,0
		c0.4-0.4,0.6-1,0.8-1.6c0.1-0.3,0.2-0.5,0.3-0.8C20.3,13.6,20.3,13.5,20.2,13.5z M18,18.7c-0.2,0.4-0.6,0.5-1,0.5
		c-0.2,0-0.3,0-0.4,0c0-0.1-0.6-0.1-0.7-0.2c0-0.1,0.2-0.6,0.3-0.6l0.1-0.1c0.2-0.3,0.5-0.6,0.7-0.9c0.1-0.2,0.5-0.6,0.6-0.7
		c0.2-0.2,0.3-0.1,0.5-0.3c0,0,0.2,0.4,0.2,0.4C18.4,17.5,18.3,18.2,18,18.7z"/>
	<path class="st5" d="M19.8,13.1c-0.1-0.1-0.2-0.2-0.4-0.2c-0.2,0-0.4,0.1-0.4,0.3c-0.1,0.2-0.1,0.4-0.2,0.6c-0.1,0.5-0.2,1-0.5,1.3
		l0,0l0,0c-0.1,0-0.3,0.1-0.3,0.2l-0.1,0.1l-0.1,0c-0.1,0-0.1-0.1-0.2-0.1h0c-0.1,0-0.2,0-0.3,0.2c-0.2,0.3-0.5,0.7-0.9,1.1
		c-0.3,0.3-0.5,0.6-0.7,0.9c-0.2,0.3-0.7,1-0.6,1.5l0,0l0,0c-0.5,0.6-1.3,1-2.1,1c-0.3,0-0.4,0.3-0.4,0.5c0,0.2,0.1,0.3,0.3,0.3
		c0,0,0,0,0,0c1-0.1,1.9-0.5,2.6-1.2l0.1-0.1l0.1,0c0.3,0.1,0.5,0.2,0.9,0.2c0.8,0,1.6-0.4,2-1c0.5-0.7,0.7-1.8,0.3-3l0-0.1l0,0
		c0.4-0.4,0.6-1,0.8-1.6c0.1-0.3,0.2-0.5,0.3-0.8C19.9,13.3,19.9,13.2,19.8,13.1z M17.6,18.3c-0.2,0.4-0.6,0.5-1,0.5
		c-0.2,0-0.3,0-0.4,0c0-0.1,0-0.2-0.1-0.3c0-0.1,0.1-0.1,0.1-0.1l0,0c0.2-0.3,0.4-0.6,0.7-0.9c0.1-0.2,0.3-0.3,0.4-0.5
		c0.2-0.2,0.3-0.4,0.5-0.5c0,0,0,0,0,0C18,17.1,17.9,17.8,17.6,18.3z"/>
	<g>
		<path class="st2" d="M30.6,20.8c-1.5,0.5-1.2,0.6-4.8,2.7C25,24,23.6,23,23,23c-6.4,0.1-6.2,4.9-4.1,7.4c1.2,1.4,2.5,1.8,3.9,2.1
			c0.7,0.1,2.6,0.2,3.4,0.2c5.7-0.1,10.5-3.4,10.2-7.3C36.4,25.5,36.3,18.9,30.6,20.8z"/>
		
			<linearGradient id="SVGID_2_" gradientUnits="userSpaceOnUse" x1="-76.6793" y1="328.6375" x2="-62.7161" y2="312.2257" gradientTransform="matrix(0.8598 0.5106 -0.5106 0.8598 250.9441 -213.3088)">
			<stop  offset="0" style="stop-color:#FDAE1F"/>
			<stop  offset="1" style="stop-color:#FFEE1F"/>
		</linearGradient>
		<path class="st6" d="M31,20.1c-1.5,0.5-1.2,0.6-4.8,2.7c-0.8,0.5-2.5,0.1-3.1,0.1c-6.4,0.1-5.9,4.2-3.8,6.8c1.2,1.4,2.8,1.8,4.1,2
			c0.7,0.1,1.4,0.2,2.1,0.2c4.1-0.1,9.7-1.6,10.4-6.2C36,25.8,36.7,18.2,31,20.1z"/>
		<path class="st7" d="M21.4,29.6c0,0.1-0.1,0.2-0.2,0.2c-0.1,0-0.1,0-0.2,0c-0.3-0.2-0.6-0.5-0.8-0.7c-0.1-0.2-0.1-0.4,0-0.5
			c0.1-0.1,0.2-0.1,0.2-0.1c0.1,0,0.2,0.1,0.2,0.1c0.1,0.2,0.3,0.4,0.6,0.5C21.4,29.2,21.5,29.4,21.4,29.6z"/>
		<path class="st4" d="M32.3,28.3c-1.2,1-2.3,1.6-3.4,1.9c-0.5,0.1-1,0.1-1.4,0c-0.1,0-0.2-0.1-0.2-0.1c-0.1-0.1-0.1-0.2-0.1-0.3
			c0-0.1,0.1-0.2,0.1-0.2c0.1-0.1,0.2-0.1,0.2-0.1c1.3,0.2,2.7-0.4,4.3-1.7c0.1-0.1,0.3-0.1,0.5,0.1C32.5,27.9,32.5,28.2,32.3,28.3z
			"/>
		<path class="st4" d="M34.5,26.4c-0.3,0.4-0.6,0.7-0.9,1.1c0,0-0.1,0.1-0.2,0.1c0,0,0,0,0,0c-0.1,0-0.2,0-0.2-0.1
			C33,27.5,33,27.4,33,27.3c0-0.1,0-0.3,0.1-0.3c0.3-0.3,0.6-0.7,0.9-1c0.1-0.1,0.3-0.1,0.5,0C34.6,26.1,34.6,26.3,34.5,26.4z"/>
		<path class="st5" d="M21.4,29.2c0,0.1-0.1,0.2-0.2,0.2c-0.1,0-0.1,0-0.2,0c-0.3-0.2-0.6-0.5-0.8-0.7c-0.1-0.2-0.1-0.4,0-0.5
			c0.1-0.1,0.2-0.1,0.2-0.1c0.1,0,0.2,0.1,0.2,0.1c0.1,0.2,0.3,0.4,0.6,0.5C21.5,28.8,21.5,29.1,21.4,29.2z"/>
		<path class="st5" d="M32.3,28c-1.2,1-2.3,1.6-3.4,1.9c-0.5,0.1-1,0.1-1.4,0c-0.1,0-0.2-0.1-0.2-0.1c-0.1-0.1-0.1-0.2-0.1-0.3
			c0-0.1,0.1-0.2,0.1-0.2c0.1-0.1,0.2-0.1,0.2-0.1c1.3,0.2,2.7-0.4,4.3-1.7c0.1-0.1,0.3-0.1,0.5,0.1C32.5,27.6,32.5,27.8,32.3,28z"
			/>
		<path class="st5" d="M34.4,26.1c-0.3,0.4-0.6,0.7-0.9,1.1c0,0-0.1,0.1-0.2,0.1c0,0,0,0,0,0c-0.1,0-0.2,0-0.2-0.1
			C33,27.1,33,27.1,33,27c0-0.1,0-0.3,0.1-0.3c0.3-0.3,0.6-0.7,0.9-1c0.1-0.1,0.3-0.1,0.5,0C34.5,25.7,34.6,26,34.4,26.1z"/>
	</g>
</g>
</svg>
