<?xml version="1.0" encoding="UTF-8"?>
<svg width="41px" height="41px" viewBox="0 0 41 41" version="1.1" xmlns="http://www.w3.org/2000/svg" xmlns:xlink="http://www.w3.org/1999/xlink">
    <!-- Generator: Sketch 57.1 (83088) - https://sketch.com -->
    <title>编组 8</title>
    <desc>Created with Sketch.</desc>
    <g id="数据分析" stroke="none" stroke-width="1" fill="none" fill-rule="evenodd">
        <g id="大数据-数据分析" transform="translate(-43.000000, -1181.000000)">
            <g id="编组-2备份-2" transform="translate(0.000000, 1039.000000)">
                <g id="登录次数" transform="translate(0.000000, 45.000000)">
                    <g id="编组-8" transform="translate(43.000000, 97.000000)">
                        <rect id="矩形备份" fill="#EAF5FF" x="0" y="0" width="41" height="41" rx="20.5"></rect>
                        <g id="录取分数表" transform="translate(9.000000, 9.000000)" fill-rule="nonzero">
                            <rect id="矩形" fill="#000000" opacity="0" x="0" y="0" width="24" height="24"></rect>
                            <path d="M15.2,5.36615384 L20.2769231,8.41230768 L20.2769231,21.7538462 L2,21.7538462 L2,8.04615384 L8.09230768,10.4430769 L15.2,5.36615384 Z M12.0615384,17.4184615 L6.06153845,17.4184615 L6.06153845,19.4184615 L12.0615384,19.4184615 L12.0615384,17.4184615 Z M15.0615384,13.3876923 L6.06153845,13.3876923 L6.06153845,15.3876923 L15.0615384,15.3876923 L15.0615384,13.3876923 Z" id="形状" fill="#40A2FF"></path>
                            <polygon id="路径" fill="#FF9623" points="15.2 1 7.88923076 6.17846153 2 4.14769229 2 6.38153845 8.29538461 8.41230768 15.2 3.43692308 20.2769231 6.48307692 20.2769231 4.04615384"></polygon>
                        </g>
                    </g>
                </g>
            </g>
        </g>
    </g>
</svg>