<?xml version="1.0" encoding="UTF-8"?>
<svg width="41px" height="41px" viewBox="0 0 41 41" version="1.1" xmlns="http://www.w3.org/2000/svg" xmlns:xlink="http://www.w3.org/1999/xlink">
    <!-- Generator: Sketch 57.1 (83088) - https://sketch.com -->
    <title>编组 15</title>
    <desc>Created with Sketch.</desc>
    <defs>
        <polygon id="path-1" points="0 0 24 0 24 24 0 24"></polygon>
    </defs>
    <g id="数据分析" stroke="none" stroke-width="1" fill="none" fill-rule="evenodd">
        <g id="大数据-数据分析" transform="translate(-251.000000, -791.000000)">
            <g id="编组-2备份" transform="translate(0.000000, 734.000000)">
                <g id="登录次数" transform="translate(0.000000, 45.000000)">
                    <g id="编组-15" transform="translate(251.000000, 12.000000)">
                        <rect id="矩形备份" fill="#EAF5FF" x="0" y="0" width="41" height="41" rx="20.5"></rect>
                        <g id="编组" transform="translate(9.000000, 8.000000)">
                            <mask id="mask-2" fill="white">
                                <use xlink:href="#path-1"></use>
                            </mask>
                            <g id="Clip-2"></g>
                            <path d="M17.0005041,19.9994141 C17.0005041,21.1034541 16.1038555,22 14.999689,22 L3.0008151,22 C1.89664862,22 1,21.1034541 1,19.9994141 L1,18.495721 C1,15.4569962 4.5833305,12.9971473 9.00031102,12.9971473 C13.4173309,12.9971473 17.0005041,15.4602205 17.0005041,18.495721 L17.0005041,19.9994141 Z M9.00031102,12.9971473 C6.23804655,12.9971473 4.00128164,10.5340741 4.00128164,7.49857365 C4.00128164,4.45984889 6.2412712,2 9.00031102,2 C11.7624575,2 13.9992259,4.46307317 13.9992259,7.49857365 C14.0024471,10.5340741 11.7624575,12.9971473 9.00031102,12.9971473 L9.00031102,12.9971473 Z" id="Fill-1" fill="#40A2FF" mask="url(#mask-2)"></path>
                            <path d="M19.7280446,20.0118394 C19.9074844,19.7036063 20.0017857,19.3544799 20.0017857,18.9990622 L20.0017857,17.4953297 C20.0017857,15.296608 18.0040773,13.3966432 15.1161302,12.5159435 C16.270672,11.4149312 17.0005041,9.79803437 17.0005041,7.99558431 C17.0005041,6.9072332 16.733055,5.88490114 16.270672,5.00722907 C18.3533617,5.16451092 20.0017857,7.11472728 20.0017857,9.49609253 C20.0017857,11.0499979 19.3002283,12.4214564 18.2336958,13.2300031 C21.0053589,13.8307018 23,15.513657 23,17.4953297 L23,19.0116448 C23,19.5651982 22.5531504,20.0118394 21.9995335,20.0118394 L19.7280446,20.0118394 Z" id="路径" fill="#FF9C01" mask="url(#mask-2)"></path>
                        </g>
                    </g>
                </g>
            </g>
        </g>
    </g>
</svg>