<?xml version="1.0" encoding="UTF-8"?>
<svg width="24px" height="20px" viewBox="0 0 24 20" version="1.1" xmlns="http://www.w3.org/2000/svg" xmlns:xlink="http://www.w3.org/1999/xlink">
    <!-- Generator: Sketch 57.1 (83088) - https://sketch.com -->
    <title>编组 20</title>
    <desc>Created with Sketch.</desc>
    <g id="数据分析" stroke="none" stroke-width="1" fill="none" fill-rule="evenodd">
        <g id="大数据-数据分析" transform="translate(-91.000000, -1848.000000)" fill-rule="nonzero">
            <g id="菜单" transform="translate(0.000000, 1836.000000)">
                <g id="编组-18" transform="translate(37.000000, 0.000000)">
                    <g id="编组-20" transform="translate(53.000000, 9.000000)">
                        <rect id="矩形" fill="#000000" opacity="0" x="0" y="0" width="26" height="26"></rect>
                        <path d="M21.7089844,20.1474609 C21.328125,20.1474609 20.9904297,20.3378906 20.7898437,20.6298828 L3.26777344,20.6298828 C3.06210938,20.6298828 2.89453125,20.4623047 2.89453125,20.2566406 L2.89453125,6.75898437 C2.89453125,6.40859375 2.61015625,6.12421875 2.25976562,6.12421875 C1.909375,6.12421875 1.625,6.40859375 1.625,6.75898437 L1.625,20.2566406 C1.625,21.1630859 2.36132812,21.8994141 3.26777344,21.8994141 L20.7898437,21.8994141 C20.9904297,22.1914062 21.328125,22.3818359 21.7089844,22.3818359 C22.3259766,22.3818359 22.8261719,21.8816406 22.8261719,21.2646484 C22.8261719,20.6476562 22.3259766,20.1474609 21.7089844,20.1474609 Z M22.7322266,4.10058594 L5.21015625,4.10058594 C5.00957031,3.80859375 4.671875,3.61816406 4.29101562,3.61816406 C3.67402344,3.61816406 3.17382812,4.11835937 3.17382812,4.73535156 C3.17382812,5.35234375 3.67402344,5.85253906 4.29101562,5.85253906 C4.671875,5.85253906 5.00957031,5.66210938 5.21015625,5.37011719 L22.7322266,5.37011719 C22.9378906,5.37011719 23.1054688,5.53769531 23.1054688,5.74335937 L23.1054688,19.2410156 L24.375,19.2410156 L24.375,5.74335937 C24.375,4.83691406 23.6386719,4.10058594 22.7322266,4.10058594 Z M10.1892578,9.43261719 L8.47285156,9.43261719 C7.69335938,9.43261719 7.05859375,10.0673828 7.05859375,10.846875 L7.05859375,17.5830078 L5.94140625,17.5830078 C5.59101562,17.5830078 5.30664062,17.8673828 5.30664062,18.2177734 C5.30664062,18.5681641 5.59101562,18.8525391 5.94140625,18.8525391 L19.7792969,18.8525391 C20.1296875,18.8525391 20.4140625,18.5681641 20.4140625,18.2177734 C20.4140625,17.8673828 20.1296875,17.5830078 19.7792969,17.5830078 L18.8398438,17.5830078 L18.8398438,8.25703125 C18.8398438,7.47753906 18.2050781,6.84277344 17.4255859,6.84277344 L14.5158203,6.84277344 C13.7363281,6.84277344 13.1015625,7.47753906 13.1015625,8.25703125 L13.1015625,17.5830078 L11.6035156,17.5830078 L11.6035156,10.846875 C11.6035156,10.0673828 10.96875,9.43261719 10.1892578,9.43261719 Z M8.328125,17.5830078 L8.328125,10.846875 C8.328125,10.7681641 8.39160156,10.7021484 8.47285156,10.7021484 L10.1892578,10.7021484 C10.2679687,10.7021484 10.3339844,10.765625 10.3339844,10.846875 L10.3339844,17.5830078 L8.328125,17.5830078 L8.328125,17.5830078 Z M14.3710938,8.25703125 C14.3710938,8.17832031 14.4345703,8.11230469 14.5158203,8.11230469 L17.4255859,8.11230469 C17.5042969,8.11230469 17.5703125,8.17578125 17.5703125,8.25703125 L17.5703125,17.5830078 L14.3710938,17.5830078 L14.3710938,8.25703125 Z" id="形状" fill="#FFFFFF"></path>
                    </g>
                </g>
            </g>
        </g>
    </g>
</svg>