<?xml version="1.0" encoding="UTF-8"?>
<svg width="41px" height="41px" viewBox="0 0 41 41" version="1.1" xmlns="http://www.w3.org/2000/svg" xmlns:xlink="http://www.w3.org/1999/xlink">
    <!-- Generator: Sketch 57.1 (83088) - https://sketch.com -->
    <title>编组 16</title>
    <desc>Created with Sketch.</desc>
    <g id="数据分析" stroke="none" stroke-width="1" fill="none" fill-rule="evenodd">
        <g id="大数据-数据分析" transform="translate(-83.000000, -911.000000)">
            <g id="编组-2备份" transform="translate(0.000000, 734.000000)">
                <g id="登录次数" transform="translate(0.000000, 45.000000)">
                    <g id="编组-16" transform="translate(83.000000, 132.000000)">
                        <rect id="矩形备份-2" fill="#EAF5FF" x="0" y="0" width="41" height="41" rx="20.5"></rect>
                        <g id="编组" transform="translate(11.000000, 8.000000)">
                            <path d="M12.427499,14.8367748 C11.9482503,15.4690219 11.1625072,15.8673082 10.4413756,16.0011052 C10.4342234,16.549719 10.4384179,16.9425587 10.4368584,17.5 C10.4431502,17.7803079 10.1796225,18.0006521 9.83744798,18 C9.49524655,17.999345 9.2825638,17.7787284 9.27866506,17.521592 C9.28318222,17.432158 9.27414791,17.3020376 9.27855751,17.2125491 C9.27847685,16.5944905 9.2807892,15.9995257 9.28068165,15.3814398 C9.28864045,15.1043142 9.44472431,14.8299665 9.76791605,14.7811373 C10.0792234,14.7523245 10.3084959,14.6901782 10.5724537,14.6056462 C10.9766047,14.4918929 11.2525277,14.2140593 11.4692974,13.9004139 C11.6410299,13.5541704 11.7379606,13.2440654 11.7274743,12.8799296 C11.6813617,12.4400309 11.6477519,12.2516312 11.3255012,11.7806049 C10.8749418,11.3187018 10.4661661,11.2128461 9.92693068,11.2286959 C9.42719344,11.2684564 9.10757779,11.4386642 8.90769365,11.6053045 C8.6441929,11.825676 8.56562666,11.9136666 8.42602504,12.2144306 C8.2820407,12.6044108 8.26754816,12.7746186 8.23751445,13.0166133 C8.23057739,13.3920236 7.93145026,13.5366322 7.62939236,13.522253 C7.37237158,13.5405538 6.99352203,13.3658525 7.00035154,12.9905783 C6.98459527,11.8263568 7.49947036,10.9608296 8.34716303,10.4481909 C9.14056916,9.94609148 10.3623791,9.87076431 11.1548442,10.1975633 C11.9670449,10.5362905 12.6471188,11.2450631 12.8813387,12.1563149 C13.1447588,13.0363846 12.9592597,14.1333944 12.427499,14.8367748 M9.49839635,20 C9.21980483,20.0013703 9.01526228,19.7688087 9.00059201,19.4983874 C8.98608588,19.2279661 9.24054839,18.9995131 9.50167921,19 C9.78018865,18.9986297 9.98481327,19.2311707 9.99940147,19.501592 C10.0139897,19.7720339 9.75950664,20.0004869 9.49839635,20 M15.9971712,10.2284235 C15.3729345,9.22808445 14.4409938,8.3682732 13.3554005,7.80319071 C12.2246086,7.22861682 10.9343256,6.94002308 9.64925459,7.01042455 C8.38842049,7.07837751 7.14262412,7.46158267 6.09060944,8.13723315 C5.07200244,8.80471277 4.21781368,9.72020692 3.68380331,10.7872334 C3.12430283,11.9326947 2.88233205,13.2062762 3.05466788,14.4610674 C3.23645925,15.8473628 3.84309504,17.1333244 4.82322481,18.1632656 C5.04517376,18.4006883 5.2888249,18.6121403 5.53569433,18.8091489 C5.61022794,18.8629885 5.68467611,18.9168282 5.75006746,18.9763627 C5.75587749,18.9851663 5.77678222,18.9972162 5.78267769,19.0061299 C5.82115492,19.0447008 5.8623378,19.1067388 5.90995729,19.1396974 L5.95700716,19.2105115 C6.00394311,19.2814632 6.03589829,19.3490585 6.08283425,19.4199827 L6.19618685,19.6496196 C6.21054105,19.690694 6.23403751,19.7261561 6.24836322,19.767203 C6.26006873,19.7849203 6.2626035,19.8083875 6.27442293,19.8259947 C6.29199543,19.8526257 6.30634963,19.8937001 6.3122451,19.9026137 L6.37276628,20.0524404 C6.40725623,20.1435579 6.44174618,20.2345653 6.49135931,20.3288466 L6.73355793,20.9284008 C6.91856761,21.3634923 7.10935884,21.80758 7.3460892,22.223111 C7.79343325,22.9956013 8.46452053,23.754501 9.41540077,23.9407801 C9.57503427,23.9669709 9.72868686,23.9843031 9.89165258,23.9959954 C9.92169957,24.002323 9.945965,24 9.97008803,23.9973984 C10.0336281,23.9955552 10.0970259,23.9938495 10.1513383,23.9978111 C10.2148499,23.9959954 10.2632384,23.9910433 10.3241013,23.9659255 C11.0479061,23.8679027 11.698288,23.5031576 12.161866,22.9541142 C12.6904366,22.3275714 13.0248552,21.5836929 13.3199992,20.8390715 C13.4468516,20.5233241 13.5678939,20.198663 13.6889363,19.8741395 C13.7172175,19.8116888 13.7410272,19.7424153 13.7683686,19.6785891 C13.7687388,19.6812026 13.7695932,19.6837062 13.7710173,19.6858521 C13.774378,19.6713261 13.786824,19.6511328 13.7900423,19.6366343 C13.793403,19.6221083 13.7967352,19.6076099 13.805849,19.6019425 C13.8149627,19.5962477 13.8091812,19.5874166 13.8183235,19.5817217 C13.8780472,19.4572605 13.9379133,19.3329369 14.0185702,19.2205256 C14.0434907,19.180249 14.0684112,19.1398074 14.0992271,19.1082244 C14.1116732,19.0880036 14.1300431,19.0766139 14.1424891,19.0565306 C14.1608591,19.045141 14.1733051,19.0249201 14.191675,19.0135304 L14.2009027,19.0079456 C14.3417391,18.9083272 14.4674522,18.8054899 14.6025355,18.6970402 C15.056544,18.3287737 15.4487212,17.8864467 15.7896904,17.4257147 C16.5808232,16.3369817 16.9929938,15.008075 17,13.6922361 C16.9991171,12.4812979 16.6599137,11.2672784 15.9971712,10.2284235" id="Fill-27" fill="#2696FF"></path>
                            <path d="M3.07493527,7.320422 C3.43202503,6.99078357 3.49819191,6.44334235 3.29287712,6.22125638 L1.66320834,4.38582781 L1.50122604,4.21177472 C1.26153451,3.93592642 0.669314539,3.89846245 0.317982048,4.23708445 C-0.0391355247,4.56672288 -0.11431378,5.11983793 0.189236157,5.45587332 C0.750277876,6.05624248 1.17169886,6.55654083 1.71491252,7.16842453 C1.79595929,7.25545107 1.86788344,7.34823489 1.94893021,7.43526144 C2.12810088,7.63612617 2.7178177,7.65003262 3.07493527,7.320422" id="Fill-29" fill="#FF9C01"></path>
                            <g transform="translate(8.519595, 0.038420)" fill="#FF9C01">
                                <path d="M8.55118913,7.31101113 C8.63245841,7.22103641 8.64461264,7.20062174 8.72273906,7.12533224 C9.26497927,6.51300354 9.71955322,6.01999216 10.2617934,5.40766346 C10.5390602,5.09129178 10.4511714,4.57936764 10.0946936,4.23941062 C9.73813224,3.89948142 9.1412397,3.95335499 8.89732061,4.22311226 C8.81605133,4.31308698 8.82497927,4.30732971 8.75261011,4.39151934 C8.21036991,5.00395929 7.73788445,5.50837396 7.19564425,6.12070265 C6.93064298,6.41674311 6.97617269,6.9809555 7.32697674,7.31187332 C7.68356587,7.65183034 8.33728015,7.54895044 8.55118913,7.31101113" id="Fill-31"></path>
                                <path d="M1.20836789,5.13094463 C1.6952048,5.122267 2.1060847,4.75819621 2.10675221,4.40422149 C2.11011757,3.58123793 2.11542984,2.82041618 2.10989507,2.00318989 C2.11195322,1.88823919 2.10945006,1.86457042 2.11164728,1.74950847 C2.11370544,1.31893704 1.6952048,0.980843489 1.20836789,0.989548925 C0.721419722,0.998226549 0.299887484,1.30603186 0.309232617,1.75451479 C0.305839444,2.57747054 0.304560051,3.28541997 0.301083439,4.10826448 L0.295409608,4.41487383 C0.289012642,4.75992061 0.721558786,5.13965006 1.20836789,5.13094463" id="Fill-15"></path>
                            </g>
                        </g>
                    </g>
                </g>
            </g>
        </g>
    </g>
</svg>