<?xml version="1.0" encoding="UTF-8"?>
<svg width="41px" height="41px" viewBox="0 0 41 41" version="1.1" xmlns="http://www.w3.org/2000/svg" xmlns:xlink="http://www.w3.org/1999/xlink">
    <!-- Generator: Sketch 57.1 (83088) - https://sketch.com -->
    <title>编组 14</title>
    <desc>Created with Sketch.</desc>
    <g id="数据分析" stroke="none" stroke-width="1" fill="none" fill-rule="evenodd">
        <g id="大数据-数据分析" transform="translate(-83.000000, -791.000000)">
            <g id="编组-2备份" transform="translate(0.000000, 734.000000)">
                <g id="登录次数" transform="translate(0.000000, 45.000000)">
                    <g id="编组-14" transform="translate(83.000000, 12.000000)">
                        <rect id="矩形" fill="#EAF5FF" x="0" y="0" width="41" height="41" rx="20.5"></rect>
                        <rect id="矩形" x="9" y="9" width="24" height="24"></rect>
                        <g id="编组-19" transform="translate(11.000000, 11.000000)">
                            <g id="编组" transform="translate(0.000000, 12.000000)" fill="#40A2FF">
                                <path d="M19.8883092,6.00902521 C19.6311328,5.05067227 19.0061244,3.65810084 18.1689479,3.00142857 C16.9147966,2.01776471 13.3014857,0.381394958 13.3014857,0.381394958 L11.0253176,4.75588235 L10.7750655,4.11709244 L10.6526454,3.75198319 L11.2914353,2.44361345 L11.2467966,2.39773109 L11.2467966,2.39033613 L9.99183866,1.10310924 L9.99183866,1.0962521 L9.98847731,1.09964706 L9.98514958,1.0962521 L9.98514958,1.10310924 L8.7301916,2.39033613 L8.7301916,2.39773109 L8.68555294,2.44361345 L9.32430924,3.75198319 L9.20188908,4.11709244 L8.95167059,4.75588235 L6.67550252,0.381394958 C6.67550252,0.381394958 3.0621916,2.01776471 1.80804034,3.00142857 C0.970863866,3.65810084 0.345855462,5.05067227 0.0886453782,6.00902521 C-0.0394554622,6.48633613 -0.0174722689,7.19668908 0.166594958,7.63968067 C0.356544538,8.0967563 0.863704202,8.36989916 1.39348571,8.36989916 L18.5835025,8.36989916 C19.1132504,8.36989916 19.6204101,8.0967563 19.8103933,7.63968067 C19.9944605,7.19668908 20.0164101,6.48633613 19.8883092,6.00902521" id="Fill-3"></path>
                            </g>
                            <path d="M9.90904202,11.9962428 C12.8558992,11.9962428 14.8179832,8.03895798 14.8179832,5.91186555 C14.8179832,3.78477311 14.8095126,-2.22044605e-14 9.90904202,-2.22044605e-14 C5.00853782,-2.22044605e-14 5,3.78477311 5,5.91186555 C5,8.03895798 6.96319328,12.002521 9.90904202,11.9962428" id="Fill-1" fill="#FF9C01"></path>
                        </g>
                    </g>
                </g>
            </g>
        </g>
    </g>
</svg>