<?xml version="1.0" encoding="UTF-8"?>
<svg width="41px" height="41px" viewBox="0 0 41 41" version="1.1" xmlns="http://www.w3.org/2000/svg" xmlns:xlink="http://www.w3.org/1999/xlink">
    <!-- Generator: Sketch 57.1 (83088) - https://sketch.com -->
    <title>编组 6</title>
    <desc>Created with Sketch.</desc>
    <defs>
        <polygon id="path-1" points="9 9 33 9 33 32.9978068 9 32.9978068"></polygon>
    </defs>
    <g id="数据分析" stroke="none" stroke-width="1" fill="none" fill-rule="evenodd">
        <g id="大数据-数据分析" transform="translate(-290.000000, -1181.000000)">
            <g id="编组-2备份-2" transform="translate(0.000000, 1039.000000)">
                <g id="登录次数" transform="translate(0.000000, 45.000000)">
                    <g id="编组-6" transform="translate(290.000000, 97.000000)">
                        <rect id="矩形备份-3" fill="#EAF5FF" x="0" y="0" width="41" height="41" rx="20.5"></rect>
                        <mask id="mask-2" fill="white">
                            <use xlink:href="#path-1"></use>
                        </mask>
                        <g id="Clip-2"></g>
                        <g id="编组" mask="url(#mask-2)">
                            <g transform="translate(9.000000, 9.000000)" id="编组-4">
                                <g transform="translate(1.000000, 1.000000)">
                                    <path d="M11.3102745,3.29675397 C11.1397745,3.21197348 10.9426331,3.19834422 10.7620721,3.25903202 C10.5815916,3.319693 10.4325818,3.44954666 10.3479892,3.62015397 L10.3479892,3.6217369 L9.08261354,6.18696373 L6.25370866,6.59664666 C5.98235744,6.63469056 5.75661598,6.82415885 5.67215744,7.08469787 C5.58769891,7.3452369 5.65917208,7.6312369 5.85650135,7.82124178 L7.90357452,9.81500519 L7.42161354,12.6329101 C7.37581598,12.9017125 7.48616476,13.173171 7.7065672,13.3336101 C7.92696964,13.4941564 8.21924769,13.515754 8.46092574,13.3895759 L10.9915965,12.0583881 L13.5237965,13.3895759 C13.7654745,13.515754 14.0577794,13.4940759 14.2781818,13.3336101 C14.4985574,13.173171 14.6089331,12.9017125 14.5631355,12.6329101 L14.0795648,9.81500519 L16.1267452,7.82124178 C16.3232696,7.63083446 16.3933745,7.34472714 16.3072257,7.08491251 L16.2523331,6.96251739 C16.1436209,6.76526861 15.9491087,6.62996861 15.7264257,6.59664666 L12.8975209,6.18696373 L11.6321184,3.6217369 C11.5632745,3.48152714 11.4501892,3.36790519 11.3102745,3.29831007 L11.3102745,3.29675397 Z M10.9915965,1.56947019e-07 C13.2389501,-0.000214320138 15.3914892,0.905917387 16.9622355,2.51325885 C18.5329013,4.12060031 19.3891574,6.29344909 19.3371623,8.54018568 L19.3371623,8.57949056 C19.3352574,8.6412247 19.332655,8.70295885 19.3293013,8.76466617 L19.3293013,8.79927592 C19.3257331,8.85532227 19.3215477,8.91128812 19.3167184,8.96725397 L19.3151355,8.99859056 C19.3044574,9.13389056 19.2909355,9.26897592 19.2743818,9.40365885 L19.2696599,9.43196373 C19.2627648,9.48436129 19.2554135,9.53665153 19.2476599,9.58894178 L19.241355,9.63758324 C19.2325818,9.69362958 19.2231379,9.74970275 19.2131574,9.80556129 L19.2037404,9.8589247 L19.1770184,9.9986247 L19.1675745,10.0457637 C19.1531404,10.1182028 19.1373916,10.1905076 19.120516,10.2624101 L19.0828209,10.4162491 L19.0672062,10.4790296 C19.0567965,10.5157052 19.0463331,10.5523808 19.0357623,10.5889759 L19.0168745,10.6548954 L18.9745379,10.7961515 L18.950955,10.873071 L18.9196452,10.9720174 L18.8818965,11.0818296 C18.8615599,11.1391637 18.8406062,11.1961759 18.819116,11.2530003 L18.797116,11.3141979 L18.7735331,11.3770857 L18.7374745,11.4648979 L18.7091696,11.5356198 L18.652694,11.6690418 L18.6212501,11.7396832 L18.5804696,11.8291857 L18.5521916,11.8903832 L18.4831331,12.0348052 L18.4548282,12.0912808 C17.1545477,14.681593 14.6041843,16.4124832 11.7168989,16.6644369 L11.6996209,16.6644369 C11.6191331,16.6717613 11.5385379,16.6775296 11.4578355,16.6817149 L11.3824721,16.6864369 C11.3286257,16.6884223 11.2747526,16.6900052 11.2207721,16.6911589 L11.1831574,16.6911589 C11.120377,16.6942979 11.0543501,16.6942979 10.9915965,16.6942979 L10.8942331,16.6942979 L10.800116,16.6911589 L10.7608111,16.6911589 C10.7058916,16.6911589 10.6524209,16.687993 10.5991111,16.6864369 L10.5237477,16.6817149 C10.4426428,16.6776369 10.3615111,16.6724052 10.2804062,16.665993 L10.2647916,16.662854 C7.45818183,16.4179296 4.96421354,14.7745296 3.63197939,12.2923125 L3.63028915,12.2923125 L3.526755,12.0881418 L3.50161598,12.0348052 L3.42939159,11.8841052 L3.40277696,11.8291857 L3.36191598,11.7365442 C3.35088915,11.7161003 3.34302818,11.6941003 3.3336111,11.6737637 L3.27241354,11.5324003 C3.26329159,11.5100784 3.25438427,11.4875149 3.24569159,11.4648979 L3.20805013,11.3707808 L3.16257452,11.2514174 L3.13271354,11.168193 C3.07350135,10.9983101 3.01804525,10.8271662 2.96626476,10.6548954 L2.94740379,10.5858101 C2.93723549,10.5492418 2.92728183,10.5125662 2.91765013,10.4758906 L2.88148427,10.3377467 L2.86431354,10.2624101 C2.84826964,10.190293 2.83254769,10.1179881 2.81714769,10.0457637 L2.80614769,9.99714909 C2.79691842,9.95062714 2.7880111,9.90397105 2.77953305,9.85734178 L2.77008915,9.80400519 C2.76002818,9.74865641 2.75058427,9.69311983 2.74178427,9.63758324 L2.7339233,9.58738568 C2.72670622,9.53560519 2.71989159,9.4838247 2.71350622,9.43196373 L2.70878427,9.40365885 C2.69198915,9.26846617 2.67838671,9.13295153 2.66800379,8.99703446 L2.66486476,8.96725397 C2.66118915,8.91128812 2.65805013,8.85532227 2.65544769,8.79927592 L2.65386476,8.76466617 C2.6505111,8.70295885 2.64788183,8.6412247 2.64600379,8.57949056 L2.64600379,8.54018568 C2.6428646,8.47740519 2.6428646,8.41306861 2.6428646,8.34873202 C2.64243549,6.13435153 3.52192574,4.01054666 5.08768183,2.44481739 C6.65351842,0.879088119 8.77721598,-0.000428954284 10.9915965,1.56947019e-07 L10.9915965,1.56947019e-07 Z" id="Fill-1" fill="#40A2FF"></path>
                                    <path d="M18.9635379,13.1965393 L21.897694,17.5278832 C22.0035087,17.6847808 22.0099209,17.8884149 21.9141135,18.0516979 C21.8182526,18.2148735 21.6372355,18.308454 21.4487062,18.2924101 L17.3685648,17.9345345 L16.2570282,21.6269125 C16.2023233,21.8085198 16.0479477,21.9423442 15.8603574,21.9708637 C15.6728477,21.9993564 15.4856867,21.917393 15.379416,21.7603076 L12.5473452,17.5483271 C15.2162404,17.0975686 17.5577111,15.5095174 18.9635379,13.1965393 L18.9635379,13.1965393 Z" id="路径" fill="#FF9623"></path>
                                    <path d="M3.01815257,13.1949564 C4.03766476,14.867493 5.55571842,16.1785589 7.35883305,16.9438369 L7.76231842,17.1023979 C8.30445744,17.3030003 8.8642233,17.4522247 9.43423793,17.5483271 L6.60058427,21.7587247 C6.49463549,21.9168832 6.30683061,21.999571 6.11870379,21.970971 C5.93046964,21.9424515 5.77579891,21.8077954 5.7215233,21.6253296 L4.61156964,17.9328442 L0.531428175,18.290854 C0.343086712,18.306254 0.162606224,18.2123515 0.0672550047,18.0492832 C-0.0281230441,17.8862149 -0.0216303612,17.6828759 0.0840232974,17.5263271 L3.01815257,13.1949564 Z" id="路径" fill="#FF9623"></path>
                                </g>
                            </g>
                        </g>
                    </g>
                </g>
            </g>
        </g>
    </g>
</svg>