<?xml version="1.0" encoding="UTF-8"?>
<svg width="41px" height="41px" viewBox="0 0 41 41" version="1.1" xmlns="http://www.w3.org/2000/svg" xmlns:xlink="http://www.w3.org/1999/xlink">
    <!-- Generator: Sketch 57.1 (83088) - https://sketch.com -->
    <title>编组 11</title>
    <desc>Created with Sketch.</desc>
    <g id="数据分析" stroke="none" stroke-width="1" fill="none" fill-rule="evenodd">
        <g id="大数据-数据分析" transform="translate(-85.000000, -1491.000000)">
            <g id="编组-2备份-3" transform="translate(0.000000, 1314.000000)">
                <g id="登录次数" transform="translate(0.000000, 45.000000)">
                    <g id="编组-11" transform="translate(85.000000, 132.000000)">
                        <rect id="矩形备份-2" fill="#EAF5FF" x="0" y="0" width="41" height="41" rx="20.5"></rect>
                        <g id="用户星" transform="translate(11.000000, 11.000000)" fill-rule="nonzero">
                            <rect id="矩形" fill="#000000" opacity="0" x="0" y="0" width="20" height="20"></rect>
                            <path d="M11.3680529,19.4053633 L11.702293,17.4621064 L10.2914885,16.0862806 C9.80178779,15.6121259 9.62689467,14.9708511 9.82122037,14.3762145 C10.0155461,13.7815779 10.5324524,13.3696074 11.2048193,13.2724446 L12.9109988,13.0237077 C12.8371551,12.973183 12.7710843,12.9226583 12.7089001,12.8682471 C12.4951419,12.6816945 12.3435678,12.4834823 12.2502915,12.2813836 C12.1570152,12.0792849 12.102604,11.8694131 12.0909444,11.6673144 C12.0792849,11.4613292 12.0909444,11.2592304 12.1298096,11.0610182 C12.1570152,10.9016712 12.1997668,10.7656432 12.2502915,10.6529343 C12.3008162,10.5402254 12.3668869,10.4469491 12.4485037,10.3653323 C12.5301205,10.287602 12.6195103,10.2098717 12.7283327,10.1399145 C12.8371551,10.0660707 12.9459774,9.98056742 13.0664594,9.87174504 C13.1713953,9.77846871 13.2646716,9.65021375 13.3540614,9.48309365 C13.4356782,9.31986008 13.5134085,9.14885346 13.5794792,8.97784686 C13.6455499,8.78352117 13.7077341,8.57364941 13.7582588,8.36377768 C13.8904003,8.32491254 14.0147687,8.25495529 14.1352506,8.14613291 C14.2401865,8.05285658 14.3334629,7.92460162 14.4228527,7.75748152 C14.5044695,7.59036143 14.5705402,7.37271666 14.6094053,7.09288766 C14.6366109,6.87912939 14.6327244,6.70423627 14.6016323,6.55654875 C14.5705402,6.40886123 14.523902,6.29226582 14.4733773,6.19898947 C14.4228526,6.09016709 14.3490089,6.00855029 14.2557326,5.95802563 C14.2673921,5.42945975 14.2363,4.89700736 14.1546832,4.36844148 C14.092499,3.91760588 13.9759036,3.43956469 13.8087835,2.93043139 C13.6416634,2.42129809 13.3929265,1.95491643 13.0625728,1.53128643 C12.9148853,1.34473377 12.7244461,1.16206762 12.4834823,0.983287988 C12.2502915,0.804508359 11.974349,0.645161289 11.6712009,0.49747377 C11.3641663,0.34978625 11.0376991,0.23319084 10.6879129,0.139914492 C10.3381267,0.0466381445 9.96502135,1.13686838e-13 9.58414299,1.13686838e-13 C9.2771084,1.13686838e-13 8.96230078,0.0310921094 8.63972014,0.0816167969 C8.31325297,0.139914512 7.99455885,0.229304316 7.67586471,0.361445781 C7.35717057,0.493587246 7.04236295,0.676253398 6.73144186,0.909444219 C6.42052076,1.14263504 6.14069176,1.4380101 5.88806836,1.79556936 C5.62378543,2.17644771 5.4216867,2.60785074 5.28177221,3.08589193 C5.14185771,3.56393313 5.04469486,4.01476873 4.9941702,4.43839873 C4.92421295,4.94364553 4.90089387,5.44889232 4.9125534,5.9502526 C4.80373102,6.08628059 4.72211422,6.22230855 4.67158955,6.36999609 C4.61717836,6.50213756 4.58219973,6.65759811 4.56276717,6.83637775 C4.53944809,7.01515738 4.56276717,7.22114262 4.62883791,7.44267391 C4.69879516,7.6680917 4.77652543,7.83909832 4.86980176,7.95958023 C4.96307809,8.08006217 5.04858139,8.1733385 5.13019818,8.23940922 C5.22347451,8.30936646 5.31675084,8.35211813 5.41002717,8.37932371 C5.47609791,8.58919545 5.54216863,8.79518068 5.60823938,8.99339289 C5.67431012,9.16439949 5.74426736,9.33151959 5.82588414,9.49863969 C5.90750094,9.66575979 5.99689074,9.79401473 6.10571313,9.88729107 C6.33501744,10.0738437 6.53322965,10.2526234 6.71200928,10.42363 C6.89078891,10.5946366 6.99183826,10.839487 7.01904387,11.1581811 C7.03070342,11.3602798 7.03847645,11.5468325 7.03847645,11.7178391 C7.03847645,11.8927322 7.00738434,12.0559658 6.94908662,12.2153129 C6.89078891,12.3746599 6.78196652,12.534007 6.63039248,12.693354 C6.47881844,12.8527011 6.26506018,13.0198212 5.98523119,13.1908278 C5.64321797,13.4162456 5.24290705,13.5872522 4.78429844,13.7077341 C4.3256898,13.8282161 2.32802172,14.516129 1.89661869,14.6638165 C1.46910217,14.8076176 1.09211033,15.0058298 0.773416211,15.2584531 C0.458608594,15.50719 0.260396387,15.8802954 0.178779609,16.3699961 C0.0466381836,17.2172561 0.0194325977,17.353284 0.0893898437,17.897396 C0.15934709,18.4376214 0.268169473,18.760202 0.415857012,18.8690244 C0.536338945,18.9584143 0.878352148,19.0672366 1.44966969,19.1954916 C2.02098721,19.3237466 5.61212594,20 9.78235525,20 C10.3264672,20 10.8511465,19.9883404 11.3563933,19.9650213 C11.3330742,19.7823552 11.3369607,19.5958025 11.3680529,19.4053633 Z" id="形状" fill="#2696FF"></path>
                            <g id="网络" transform="translate(11.000000, 10.000000)">
                                <rect id="矩形" fill="#000000" opacity="0" x="0" y="0" width="11" height="11"></rect>
                                <path d="M5,2 C2.79563073,2 1,3.79281184 1,6 C1,8.20436927 2.79281184,10 5,10 C7.20718816,10 9,8.20718816 9,6 C9,3.79281184 7.20436927,2 5,2 Z M5,9.29245948 C4.67864693,9.29245948 4.25581395,8.65257223 4.03312192,7.56448203 L5.9640592,7.56730092 C5.74418605,8.65257223 5.32135307,9.29245948 5,9.29245948 Z M3.92882312,6.85976039 C3.90063425,6.58914729 3.88653982,6.30162086 3.88653982,5.99718111 C3.88653982,5.67864693 3.90345314,5.37702607 3.93446089,5.09513742 L6.07117689,5.09795631 C6.10218464,5.37702607 6.11627907,5.67864693 6.11627907,5.99718111 C6.11627907,6.30443975 6.10218464,6.59196617 6.07399577,6.86257928 L3.92882312,6.85976039 L3.92882312,6.85976039 Z M5,2.70472164 C5.31853418,2.70472164 5.73572939,3.33333333 5.95842142,4.39605356 L4.04157858,4.39323467 C4.26427061,3.33051445 4.68428471,2.70472164 5,2.70472164 L5,2.70472164 Z M6.77589852,5.10077519 L8.17124736,5.10359408 C8.25299507,5.38830162 8.29527837,5.68992248 8.29527837,6 C8.29527837,6.30162086 8.25581395,6.59196617 8.17970402,6.86821705 L6.78153629,6.86539817 C6.80690627,6.58350951 6.82100071,6.2931642 6.8210007,6 C6.8210007,5.69274137 6.80408739,5.39112051 6.77589852,5.10077519 L6.77589852,5.10077519 Z M7.87808316,4.39887245 L6.67723749,4.39605356 C6.60112755,3.9901339 6.49682875,3.61522199 6.36434109,3.28823115 C6.31360113,3.15856237 6.2572234,3.04016913 6.19802678,2.93023256 C6.91402396,3.20930233 7.50880902,3.73361522 7.87808316,4.39887245 Z M3.80197322,2.93023256 C3.7427766,3.04016913 3.68921776,3.16138125 3.63565891,3.28823115 C3.50317125,3.61522199 3.39887245,3.98731501 3.32276251,4.39323467 L2.12473573,4.39041579 C2.49682875,3.73079634 3.08879493,3.20930233 3.80197322,2.93023256 Z M1.83157153,5.09513742 L3.22410148,5.09795631 C3.19591261,5.39112051 3.18181818,5.69274137 3.18181818,6 C3.18181818,6.2931642 3.19591261,6.58069063 3.22128259,6.86257928 L1.84002819,6.85976039 L1.84002819,6.92741367 C1.75264271,6.63424947 1.70754052,6.32135307 1.70754052,6 C1.70472163,5.68428471 1.74982382,5.38266385 1.83157153,5.09513742 Z M2.10218464,7.56166314 L3.31712474,7.56448203 C3.39323467,7.98449612 3.50035236,8.37068358 3.63565891,8.70894996 C3.68639887,8.83861875 3.7427766,8.95701198 3.80197322,9.06694856 C3.07470049,8.78224102 2.47145877,8.24383369 2.10218464,7.56166314 L2.10218464,7.56166314 Z M6.19802678,9.06694856 C6.2572234,8.95701198 6.31078224,8.83579986 6.36434109,8.70894996 C6.49964764,8.37350247 6.60676533,7.98731501 6.68287526,7.5701198 L7.89499648,7.57293869 C7.52572234,8.24947146 6.92529951,8.78224101 6.19802678,9.06694856 L6.19802678,9.06694856 Z" id="形状" fill="#FE9F08"></path>
                            </g>
                        </g>
                    </g>
                </g>
            </g>
        </g>
    </g>
</svg>